<svg width="24" height="24" viewBox="0 0 24 24" fill="none" xmlns="http://www.w3.org/2000/svg">
<path d="M13.4993 7.50008L16.4995 10.5L10.4992 16.4999L7.49905 13.5L13.4993 7.50008ZM23.4733 6.97359L21.7497 5.25012L20.9997 6.0001C20.8037 6.20156 20.5696 6.36205 20.3111 6.47227C20.0525 6.58249 19.7747 6.64023 19.4936 6.64214C19.2126 6.64404 18.9339 6.59008 18.6739 6.48338C18.4139 6.37668 18.1777 6.21937 17.979 6.0206C17.7803 5.82182 17.6231 5.58554 17.5166 5.32549C17.41 5.06544 17.3561 4.78681 17.3582 4.50577C17.3602 4.22474 17.4181 3.94692 17.5285 3.68845C17.6388 3.42998 17.7995 3.19601 18.001 3.00016L18.7511 2.25017L17.0275 0.526698C16.688 0.189345 16.2288 0 15.7502 0C15.2715 0 14.8124 0.189345 14.4729 0.526698L0.526731 14.472C0.189357 14.8114 0 15.2706 0 15.7492C0 16.2278 0.189357 16.6869 0.526731 17.0264L2.25031 18.7499L2.99884 18.0014C3.19471 17.7998 3.42869 17.6392 3.68718 17.5289C3.94566 17.4185 4.22351 17.3607 4.50455 17.3586C4.7856 17.3566 5.06426 17.4104 5.32433 17.517C5.58439 17.6235 5.82069 17.7807 6.01947 17.9794C6.21826 18.1781 6.37558 18.4143 6.48229 18.6743C6.58899 18.9343 6.64296 19.2129 6.64105 19.4939C6.63915 19.7749 6.5814 20.0528 6.47118 20.3113C6.36095 20.5698 6.20044 20.8039 5.99898 20.9998L5.24894 21.7498L6.97252 23.4733C7.31202 23.8107 7.77121 24 8.24983 24C8.72845 24 9.18764 23.8107 9.52714 23.4733L23.4733 9.52804C23.8106 9.18856 24 8.72941 24 8.25081C24 7.77222 23.8106 7.31306 23.4733 6.97359ZM10.4992 19.4999L4.49891 13.5L13.4993 4.50013L19.4996 10.5L10.4992 19.4999Z" fill="#6346FA"/>
</svg>
