<svg width="100" height="100" viewBox="0 0 100 100" fill="none" xmlns="http://www.w3.org/2000/svg">
<path d="M59.4349 57.3357C59.4532 57.3513 59.4706 57.3678 59.4871 57.3851L59.6359 57.5309L60.2099 58.1065L62.3756 60.3027L70.0495 68.1364H69.9608L78.6654 58.6969L78.7254 58.6327L78.775 58.7043L79.4091 59.6085L85.9949 68.9961L85.9036 68.9812L92.2337 64.1936L92.2702 64.1664L92.3015 64.1985L97.1339 69.3864L98.4386 70.8019L98.7778 71.1725C98.8535 71.2565 98.89 71.301 98.89 71.301C98.89 71.301 98.8456 71.2614 98.7674 71.1824L98.4229 70.8019L97.0922 69.4037L92.2285 64.2529H92.2963L85.9819 69.0726L85.9297 69.1122L85.8905 69.0578L79.2969 59.6851L78.6602 58.7784H78.7672C75.5995 62.2123 72.6197 65.4362 70.0521 68.2179L70.0078 68.2648L69.9634 68.2179C66.8114 64.9718 64.1734 62.2592 62.3234 60.3521L60.1838 58.1287L59.6228 57.5407C59.5628 57.474 59.5158 57.4246 59.4793 57.3876C59.4428 57.3505 59.4323 57.3382 59.4349 57.3357Z" fill="#E6E6E6"/>
<path d="M69.1494 68.2008C69.1479 68.3724 69.2003 68.5406 69.3001 68.6839C69.3998 68.8272 69.5424 68.9392 69.7096 69.0056C69.8768 69.0719 70.061 69.0897 70.2389 69.0565C70.4168 69.0234 70.5802 68.9409 70.7084 68.8195C70.8366 68.6982 70.9238 68.5434 70.9587 68.375C70.9937 68.2066 70.975 68.0322 70.9049 67.8739C70.8348 67.7156 70.7165 67.5806 70.5652 67.4862C70.4138 67.3917 70.2362 67.3421 70.0549 67.3435C69.8152 67.3448 69.5857 67.4356 69.4161 67.596C69.2466 67.7565 69.1508 67.9738 69.1494 68.2008Z" fill="#E0E0E0"/>
<path d="M85.1377 69.2307C85.1387 69.4018 85.1934 69.5688 85.2947 69.7105C85.396 69.8522 85.5395 69.9622 85.7069 70.0267C85.8743 70.0911 86.0582 70.1071 86.2352 70.0726C86.4122 70.0381 86.5744 69.9546 86.7013 69.8327C86.8282 69.7109 86.914 69.5561 86.948 69.388C86.9819 69.22 86.9624 69.0462 86.8919 68.8886C86.8214 68.731 86.7032 68.5968 86.5521 68.5029C86.401 68.409 86.2239 68.3597 86.0431 68.3611C85.8014 68.3631 85.5703 68.4557 85.4006 68.6187C85.2309 68.7817 85.1363 69.0018 85.1377 69.2307Z" fill="#E0E0E0"/>
<path d="M91.3555 64.4704C91.357 64.641 91.412 64.8072 91.5133 64.9482C91.6147 65.0891 91.7579 65.1985 91.9249 65.2624C92.0918 65.3263 92.2751 65.3418 92.4514 65.3071C92.6278 65.2724 92.7893 65.189 92.9155 65.0674C93.0418 64.9458 93.1271 64.7915 93.1607 64.6239C93.1943 64.4564 93.1747 64.2832 93.1044 64.1262C93.034 63.9693 92.9161 63.8356 92.7655 63.7421C92.6149 63.6485 92.4384 63.5994 92.2583 63.6009C92.017 63.6035 91.7866 63.6964 91.6174 63.8593C91.4483 64.0223 91.3541 64.242 91.3555 64.4704Z" fill="#E0E0E0"/>
<path d="M77.8067 58.8132C77.8077 58.9843 77.8623 59.1513 77.9637 59.293C78.065 59.4347 78.2084 59.5447 78.3759 59.6092C78.5433 59.6737 78.7271 59.6896 78.9042 59.6551C79.0812 59.6206 79.2434 59.5371 79.3703 59.4153C79.4971 59.2934 79.583 59.1386 79.6169 58.9706C79.6508 58.8025 79.6313 58.6287 79.5609 58.4711C79.4904 58.3135 79.3721 58.1793 79.221 58.0854C79.0699 57.9915 78.8928 57.9422 78.7121 57.9436C78.4703 57.9456 78.2393 58.0382 78.0695 58.2012C77.8998 58.3642 77.8053 58.5843 77.8067 58.8132Z" fill="#E0E0E0"/>
<path d="M98.1738 71.3259C98.1749 71.497 98.2295 71.664 98.3308 71.8057C98.4322 71.9474 98.5756 72.0574 98.743 72.1219C98.9105 72.1863 99.0943 72.2023 99.2713 72.1678C99.4483 72.1333 99.6106 72.0498 99.7374 71.9279C99.8643 71.8061 99.9502 71.6513 99.9841 71.4833C100.018 71.3152 99.9985 71.1414 99.928 70.9838C99.8576 70.8262 99.7393 70.692 99.5882 70.5981C99.4371 70.5042 99.26 70.4549 99.0793 70.4563C98.8375 70.4583 98.6064 70.5509 98.4367 70.7139C98.267 70.8769 98.1725 71.097 98.1738 71.3259Z" fill="#E0E0E0"/>
<path d="M18.1863 5.9043H12.3232V27.9824H18.1863V5.9043Z" fill="#E6E6E6"/>
<path d="M26.8103 10.719H20.9473V27.9798H26.8103V10.719Z" fill="#E6E6E6"/>
<path d="M35.5672 14.6619H29.7041V27.9799H35.5672V14.6619Z" fill="#E6E6E6"/>
<path d="M43.6736 20.0723H37.8105V27.9825H43.6736V20.0723Z" fill="#E6E6E6"/>
<path d="M38.9802 0.395264C38.9802 0.395264 38.9254 0.461965 38.8184 0.580545L38.3304 1.11168L36.4752 3.11272L29.785 10.2769L29.7485 10.314L29.7068 10.2843L25.3414 7.11726H25.4301L19.3244 14.4445L19.2513 14.5335L19.207 14.5878L19.1522 14.5409L10.9303 7.6657H11.0216C7.79394 11.6777 5.05941 15.1041 3.10244 17.5276L0.824534 20.3463L0.216571 21.0875L0.0574047 21.2777C0.0396394 21.3002 0.0204701 21.3216 0 21.3419C0.014822 21.3178 0.0313876 21.2947 0.0495771 21.2727L0.200914 21.0751L0.793224 20.3167L3.03982 17.4782L10.9199 7.5817L10.9616 7.52982L11.0112 7.57182L19.2435 14.4297H19.1443L19.2174 14.3408L25.331 7.01845L25.3701 6.97151L25.4197 7.00857L29.7772 10.1732H29.6989L36.4231 3.06578C37.2345 2.21349 37.8712 1.54401 38.307 1.08945L38.8053 0.570663C38.9201 0.447142 38.9802 0.395264 38.9802 0.395264Z" fill="#E6E6E6"/>
<path d="M38.0115 5.51644C38.0094 5.47896 38.0138 5.4414 38.0246 5.40527L38.0898 5.08906C38.1576 4.79508 38.249 4.40475 38.3507 3.92796C38.583 2.93979 38.9117 1.59095 39.2901 0.0790532L39.3736 0.153166L39.0787 0.23963C37.4427 0.71642 35.9606 1.13886 34.8856 1.44025L33.6097 1.78858L33.26 1.87752C33.2199 1.89167 33.1776 1.89919 33.1348 1.89975C33.1722 1.8805 33.2115 1.86478 33.2522 1.85281L33.594 1.74164L34.8569 1.35379C35.9241 1.03016 37.4036 0.5929 39.0318 0.11858L39.3266 0.0345857L39.4414 0L39.4127 0.111168C39.05 1.63047 38.7186 2.97438 38.4577 3.95019C38.3299 4.42204 38.2255 4.8099 38.1498 5.10141C38.1133 5.22246 38.082 5.32622 38.0585 5.41021C38.0484 5.44761 38.0326 5.48341 38.0115 5.51644Z" fill="#E6E6E6"/>
<path d="M84.2637 37.7258C85.4287 37.7079 86.5733 38.0175 87.5525 38.6153C88.5318 39.2132 89.3018 40.0726 89.7652 41.0848C90.2286 42.097 90.3646 43.2166 90.156 44.302C89.9474 45.3873 89.4036 46.3898 88.5932 47.1825C87.7829 47.9753 86.7425 48.5227 85.6036 48.7557C84.4646 48.9887 83.2783 48.8967 82.1946 48.4913C81.1109 48.0859 80.1785 47.3855 79.5152 46.4784C78.852 45.5714 78.4877 44.4985 78.4685 43.3954C78.4447 41.9165 79.0415 40.4891 80.1279 39.4262C81.2144 38.3633 82.7017 37.7518 84.2637 37.7258ZM84.4046 45.9721C84.9616 45.9622 85.503 45.7963 85.9604 45.4953C86.4179 45.1942 86.7708 44.7716 86.9746 44.2807C87.1785 43.7898 87.2241 43.2528 87.1057 42.7374C86.9872 42.222 86.7101 41.7514 86.3093 41.385C85.9086 41.0187 85.4021 40.773 84.8539 40.6791C84.3057 40.5852 83.7404 40.6472 83.2294 40.8573C82.7184 41.0674 82.2847 41.4162 81.983 41.8596C81.6813 42.303 81.5252 42.8211 81.5344 43.3485C81.5408 43.6992 81.6202 44.0453 81.7679 44.367C81.9157 44.6886 82.1289 44.9796 82.3954 45.2232C82.662 45.4669 82.9766 45.6584 83.3213 45.7869C83.6661 45.9154 84.0342 45.9783 84.4046 45.9721Z" fill="#E0E0E0"/>
<path d="M84.2558 37.0316C86.0128 37.0079 87.7081 37.6446 88.97 38.8023C90.2319 39.9601 90.9575 41.5443 90.9877 43.2077L86.9694 43.3065C86.9434 41.6538 85.7613 40.9818 84.3602 40.8978C84.0158 40.8784 83.671 40.9265 83.3473 41.0394C83.0236 41.1522 82.728 41.3273 82.4793 41.5535C82.2305 41.7798 82.0339 42.0523 81.9018 42.354C81.7697 42.6557 81.705 42.98 81.7117 43.3065L77.7352 43.4078C77.708 41.7439 78.3794 40.1378 79.602 38.9423C80.8246 37.7468 82.4984 37.0596 84.2558 37.0316Z" fill="#F0F0F0"/>
<path d="M36.5567 62.306C38.5852 60.2908 41.368 59.11 44.3066 59.0176C47.2452 58.9252 50.1047 59.9286 52.2699 61.8119C53.3335 62.74 54.1919 63.8587 54.7955 65.1033C55.399 66.3478 55.7357 67.6934 55.7859 69.062C55.8362 70.4306 55.599 71.7951 55.0882 73.0763C54.5773 74.3575 53.803 75.5299 52.81 76.5257C50.7816 78.5409 47.9987 79.7217 45.0601 79.8141C42.1215 79.9065 39.262 78.9031 37.0969 77.0198C36.0333 76.0917 35.1748 74.9729 34.5713 73.7284C33.9677 72.4839 33.6311 71.1383 33.5808 69.7697C33.5306 68.4011 33.7677 67.0366 34.2786 65.7554C34.7894 64.4742 35.5638 63.3018 36.5567 62.306ZM48.5595 72.8151C49.0355 72.3393 49.4068 71.7785 49.6517 71.1654C49.8966 70.5524 50.0102 69.8993 49.9859 69.2443C49.9616 68.5893 49.7999 67.9454 49.5102 67.3501C49.2205 66.7548 48.8086 66.22 48.2985 65.7769C47.2622 64.8775 45.8942 64.3994 44.4891 64.4456C43.084 64.4918 41.7543 65.0586 40.7864 66.024C40.3104 66.4998 39.9391 67.0606 39.6942 67.6737C39.4493 68.2867 39.3357 68.9398 39.36 69.5948C39.3843 70.2498 39.546 70.8937 39.8356 71.489C40.1253 72.0843 40.5372 72.6191 41.0473 73.0622C42.0836 73.9637 43.4529 74.4432 44.8595 74.3969C46.266 74.3507 47.5969 73.7826 48.5647 72.8151H48.5595Z" fill="#F5F5F5"/>
<path d="M36.5563 62.306C38.5847 60.2908 41.3676 59.11 44.3062 59.0176C47.2448 58.9252 50.1043 59.9286 52.2694 61.8119L48.3085 65.7843C47.2722 64.8849 45.9041 64.4068 44.4991 64.453C43.094 64.4992 41.7643 65.066 40.7964 66.0314C40.3203 66.5073 39.9491 67.068 39.7042 67.6811C39.4593 68.2941 39.3457 68.9472 39.37 69.6022C39.3942 70.2573 39.5559 70.9012 39.8456 71.4964C40.1353 72.0917 40.5472 72.6265 41.0573 73.0696L37.0912 77.0272C36.0268 76.0987 35.1678 74.9792 34.564 73.7338C33.9602 72.4885 33.6236 71.1419 33.5738 69.7724C33.5241 68.4029 33.7621 67.0377 34.2741 65.756C34.7861 64.4743 35.5618 63.3016 36.5563 62.306Z" fill="#E0E0E0"/>
<path d="M51.8156 60.1052C57.2951 64.9052 57.9604 72.7043 52.8332 77.8527L47.2676 73.3096C49.7177 70.8515 50.25 67.5683 47.6277 65.2733L51.8156 60.1052Z" fill="#EBEBEB"/>
<path d="M46.6865 73.6354L49.9925 79.8263C51.3595 79.3519 52.5913 78.5831 53.5907 77.5807L47.652 73.04L46.6865 73.6354Z" fill="#E0E0E0"/>
<path d="M59.1592 16.49C59.1111 13.715 59.9333 10.9889 61.5219 8.65641C63.1105 6.32395 65.3941 4.48998 68.0838 3.38653C70.7736 2.28308 73.7485 1.95972 76.6324 2.45736C79.5163 2.95501 82.1794 4.25129 84.285 6.18223C86.3906 8.11316 87.8439 10.592 88.4612 13.3051C89.0785 16.0182 88.832 18.8437 87.7529 21.4242C86.6738 24.0046 84.8105 26.2241 82.3988 27.8017C79.9871 29.3794 77.1354 30.2444 74.2044 30.2873C70.2788 30.3402 66.491 28.9177 63.671 26.3316C60.851 23.7455 59.2286 20.2065 59.1592 16.49ZM81.059 16.1565C81.0361 14.8302 80.5983 13.5401 79.8011 12.4494C79.0038 11.3586 77.8828 10.5161 76.5799 10.0285C75.2769 9.5409 73.8505 9.43002 72.481 9.70989C71.1115 9.98977 69.8604 10.6478 68.8859 11.6009C67.9114 12.5539 67.2572 13.7591 67.0062 15.0641C66.7551 16.3691 66.9184 17.7153 67.4754 18.9325C68.0323 20.1496 68.958 21.1831 70.1353 21.9022C71.3126 22.6213 72.6887 22.9937 74.0896 22.9724C75.9678 22.9418 77.7566 22.207 79.0632 20.9292C80.3698 19.6513 81.0876 17.9349 81.059 16.1565Z" fill="#FAFAFA"/>
<path d="M59.1589 16.4899C59.0996 12.7707 60.6013 9.18114 63.3345 6.50917C66.0676 3.83719 69.8089 2.30109 73.737 2.23804L73.8623 9.55788C71.9834 9.58638 70.1935 10.3204 68.8862 11.5984C67.5789 12.8763 66.8614 14.5937 66.8915 16.3725C66.9217 18.1514 67.6969 19.8461 69.0467 21.0837C70.3966 22.3214 72.2104 23.0007 74.0893 22.9722L74.2041 30.2871C70.278 30.3413 66.4895 28.9193 63.6692 26.3329C60.8489 23.7465 59.2269 20.2068 59.1589 16.4899Z" fill="#E0E0E0"/>
<path d="M72.4082 1.11186C81.966 0.966103 89.593 7.95738 89.7443 17.0065L80.6979 17.1449C80.6249 12.8167 77.131 10.0918 72.5622 10.1635L72.4082 1.11186Z" fill="#F0F0F0"/>
<path d="M89.8573 99.9358C89.8573 99.9704 70.3476 100 46.2821 100C22.2167 100 2.70703 99.9704 2.70703 99.9358C2.70703 99.9013 22.2115 99.8691 46.2821 99.8691C70.3528 99.8691 89.8573 99.8988 89.8573 99.9358Z" fill="#263238"/>
<path d="M29.4502 65.6811L77.8003 65.3525V65.9948L29.4502 66.4049V65.6811Z" fill="#263238"/>
<path d="M28.3936 19.1406L29.4947 66.0637L77.7978 65.7079V18.3525L28.3936 19.1406Z" fill="white"/>
<path d="M28.3945 19.1408L77.7988 18.2983H77.8588V18.3552C77.8588 31.9103 77.8588 47.9063 77.8588 64.9719V65.7748H77.791L29.4878 66.1231H29.4304V66.0688C28.8068 37.9456 28.3998 19.625 28.3867 19.1432C28.3867 19.6175 28.8512 37.9456 29.5452 66.0638L29.4878 66.0095L77.791 65.6463L77.7231 65.7106V64.9694C77.7231 47.9038 77.7231 31.9079 77.7231 18.3527L77.7832 18.4095L28.3945 19.1408Z" fill="#263238"/>
<path d="M28.2021 19.4544L78.0108 19.1851L78.0735 17.2063L28.2021 17.5003V19.4544Z" fill="#263238"/>
<path d="M52.0451 67.3436C51.9616 67.3436 51.8729 66.9755 51.8494 66.516C51.8259 66.0565 51.8781 65.681 51.9616 65.6761C52.0451 65.6711 52.1338 66.0417 52.1573 66.5012C52.1808 66.9607 52.1312 67.3436 52.0451 67.3436Z" fill="#263238"/>
<path d="M52.0275 67.005C52.0275 66.9877 52.111 66.9828 52.2415 67.0322C52.3202 67.0635 52.394 67.1051 52.4606 67.1557C52.5504 67.224 52.6257 67.3078 52.6824 67.4027C52.7598 67.534 52.7987 67.6825 52.795 67.8328C52.7914 67.9831 52.7453 68.1298 52.6616 68.2575C52.6114 68.3345 52.5478 68.403 52.4737 68.4601C52.3963 68.519 52.3077 68.5634 52.2128 68.591C52.011 68.6437 51.7963 68.6289 51.6048 68.549C51.5079 68.5082 51.4196 68.4513 51.3439 68.381C51.2686 68.3107 51.2091 68.2267 51.169 68.134C51.0968 67.9655 51.0813 67.78 51.1247 67.6028C51.1568 67.4552 51.232 67.319 51.3418 67.2098C51.4516 67.1007 51.5915 67.0228 51.7457 66.9852C51.943 66.9342 52.1531 66.9517 52.338 67.0346C52.4632 67.0939 52.5102 67.1557 52.4998 67.1705C52.4893 67.1853 52.4189 67.1705 52.2989 67.1409C52.1354 67.112 51.9668 67.1257 51.8109 67.1804C51.7105 67.2174 51.621 67.2767 51.55 67.3533C51.4685 67.4437 51.4154 67.5537 51.3965 67.6712C51.3775 67.7886 51.3937 67.9087 51.443 68.0179C51.4998 68.1352 51.6014 68.2279 51.7274 68.2773C51.8528 68.3304 51.9936 68.3417 52.1266 68.3094C52.249 68.2794 52.3551 68.2071 52.4241 68.1068C52.4921 68.0122 52.5326 67.9023 52.5415 67.7881C52.5494 67.7365 52.5494 67.6841 52.5415 67.6325C52.533 67.584 52.5181 67.5367 52.4972 67.4917C52.4303 67.3463 52.3252 67.2196 52.1919 67.1236C52.0953 67.0593 52.0275 67.0248 52.0275 67.005Z" fill="#263238"/>
<path d="M59.2131 44.8184C59.2131 44.8184 59.2131 44.8184 59.1818 44.8184H59.0931L58.7486 44.8332L57.4205 44.8875L52.5359 45.0605C48.4106 45.2037 42.7093 45.394 36.4157 45.599L34.25 45.6682H34.2004V45.6213C33.7621 40.169 33.3655 35.2826 33.0915 31.7696C32.9558 30.0156 32.8488 28.605 32.7732 27.6341C32.7392 27.1401 32.7105 26.772 32.6923 26.5175C32.6923 26.3891 32.6766 26.2927 32.674 26.226C32.6714 26.1593 32.674 26.1692 32.674 26.1519C32.674 26.1346 32.674 26.1272 32.674 26.1272C32.6752 26.1354 32.6752 26.1437 32.674 26.1519C32.674 26.1692 32.674 26.1939 32.674 26.226C32.674 26.2581 32.6897 26.3891 32.7027 26.5151C32.7236 26.7621 32.7575 27.145 32.8019 27.6317C32.8828 28.6026 33.0028 30.0132 33.1515 31.7622C33.4438 35.2653 33.8456 40.1394 34.2892 45.6138L34.237 45.5694L36.4027 45.4977C42.6963 45.2952 48.4054 45.1148 52.5229 44.9913L57.4101 44.848L58.7382 44.8134H59.0826H59.2026L59.2131 44.8184Z" fill="#455A64"/>
<path d="M41.7236 24.6079V25.2379L48.6069 24.9266V24.3979L41.7236 24.6079Z" fill="#263238"/>
<path d="M36.5114 44.28H38.9041L38.5284 38.1311H36.1826L36.5114 44.28Z" fill="#FF725E"/>
<path d="M40.8503 44.2823H43.2404L42.8672 35.6877H40.5215L40.8503 44.2823Z" fill="#FF725E"/>
<path d="M44.9092 44.0081H47.3019L46.9261 32.7554H44.583L44.9092 44.0081Z" fill="#FF725E"/>
<path d="M54.2262 43.5705H56.6163L56.2432 28.2341H53.8975L54.2262 43.5705Z" fill="#FF725E"/>
<path d="M49.693 43.6227H52.0831L51.7074 30.4258H49.3643L49.693 43.6227Z" fill="#FF725E"/>
<path d="M35.0075 36.5373C34.9449 36.4459 39.2189 33.7482 44.5497 30.5119C49.8805 27.2757 54.2588 24.7262 54.3215 24.83C54.3841 24.9337 50.1101 27.6191 44.7767 30.8553C39.4433 34.0916 35.0649 36.6287 35.0075 36.5373Z" fill="#FF725E"/>
<path d="M51.9563 24.8202C51.9354 24.7115 53.4827 24.3459 55.4188 24L55.9093 23.9136L55.6301 24.3064L55.6145 24.3286C54.5081 25.885 53.5271 27.0979 53.4357 27.0461C53.3444 26.9942 54.1611 25.675 55.2622 24.1162L55.2779 24.0939L55.4918 24.4002C53.5584 24.7338 51.9771 24.9264 51.9563 24.8202Z" fill="#FF725E"/>
<path d="M36.1826 46.3574H38.6823L38.7606 46.7774H36.1826V46.3574Z" fill="#263238"/>
<path d="M40.6074 46.1843H43.1071L43.1854 46.6043H40.6074V46.1843Z" fill="#263238"/>
<path d="M45.167 46.061H47.6667L47.745 46.481H45.167V46.061Z" fill="#263238"/>
<path d="M49.4336 45.9597H51.9333L52.0116 46.3822H49.4336V45.9597Z" fill="#263238"/>
<path d="M54.7236 45.8115H57.2233L57.3016 46.234H54.7236V45.8115Z" fill="#263238"/>
<path d="M65.9353 62.5558C70.342 62.5558 73.9145 59.1736 73.9145 55.0013C73.9145 50.8291 70.342 47.4468 65.9353 47.4468C61.5285 47.4468 57.9561 50.8291 57.9561 55.0013C57.9561 59.1736 61.5285 62.5558 65.9353 62.5558Z" fill="#FF725E"/>
<path opacity="0.3" d="M65.9353 62.5558C70.342 62.5558 73.9145 59.1736 73.9145 55.0013C73.9145 50.8291 70.342 47.4468 65.9353 47.4468C61.5285 47.4468 57.9561 50.8291 57.9561 55.0013C57.9561 59.1736 61.5285 62.5558 65.9353 62.5558Z" fill="black"/>
<path d="M65.934 54.9915L58.1505 56.6492C56.898 51.2143 61.5269 47.437 65.934 47.437" fill="#FF725E"/>
<path d="M65.9457 54.9915L65.8936 47.437C71.7697 47.437 74.6816 52.5236 73.7423 56.5998L65.9457 54.9915Z" fill="#FF725E"/>
<path d="M65.9457 54.9915L65.8936 47.437C71.7697 47.437 74.6816 52.5236 73.7423 56.5998L65.9457 54.9915Z" fill="#FF725E"/>
<path opacity="0.1" d="M65.9457 54.9915L65.8936 47.437C71.7697 47.437 74.6816 52.5236 73.7423 56.5998L65.9457 54.9915Z" fill="black"/>
<path d="M74.1189 37.113C73.9639 37.0149 73.7986 36.9321 73.6257 36.866C73.1438 36.7264 72.6269 36.7403 72.1541 36.9055C71.5435 37.0858 70.9382 37.5453 70.3511 38.1209C69.764 38.6965 69.1351 39.3932 68.2167 39.8008C67.7735 40.0093 67.2747 40.0876 66.7842 40.0256C66.3416 39.9387 65.914 39.794 65.5135 39.5958C65.1608 39.4219 64.784 39.2963 64.3941 39.2227C64.0549 39.1723 63.7077 39.2134 63.3921 39.3413C62.9277 39.5279 62.5479 39.8639 62.3197 40.29C62.2463 40.45 62.1862 40.6152 62.1396 40.784C62.1478 40.6053 62.193 40.4299 62.2727 40.2677C62.4912 39.8179 62.8752 39.4587 63.353 39.2573C63.6803 39.1194 64.0417 39.0706 64.3967 39.1165C64.7995 39.1873 65.1896 39.3121 65.5552 39.4871C65.9453 39.6787 66.3615 39.8184 66.792 39.9021C67.2562 39.9568 67.7271 39.8812 68.1462 39.6847C69.0282 39.2944 69.6466 38.6027 70.2493 38.0369C70.8521 37.4712 71.4757 36.9944 72.1097 36.819C72.6023 36.6564 73.1384 36.6564 73.6309 36.819C73.7623 36.867 73.8861 36.9318 73.9989 37.0117C74.0431 37.0407 74.0834 37.0747 74.1189 37.113Z" fill="#263238"/>
<path d="M74.7947 41.9946C74.7947 42.0317 71.961 42.0589 68.4672 42.0589C64.9733 42.0589 62.1396 42.0317 62.1396 41.9946C62.1396 41.9576 64.9733 41.9304 68.4672 41.9304C71.961 41.9304 74.7947 41.9601 74.7947 41.9946Z" fill="#263238"/>
<path d="M74.0913 41.9946C74.0548 41.9946 74.0234 40.4679 74.0234 38.583C74.0234 36.6981 74.0548 35.1738 74.0913 35.1738C74.1278 35.1738 74.1591 36.7005 74.1591 38.583C74.1591 40.4655 74.1304 41.9946 74.0913 41.9946Z" fill="#263238"/>
<path d="M63.4172 39.1217C63.4172 39.1217 63.3989 39.097 63.4172 39.0525C63.4292 39.0213 63.4482 38.993 63.473 38.9695C63.4978 38.946 63.5277 38.928 63.5607 38.9166C63.6103 38.8959 63.665 38.8883 63.7188 38.8949C63.7726 38.9014 63.8235 38.9217 63.866 38.9537C63.912 39.0025 63.9391 39.0647 63.9429 39.13C63.9468 39.1953 63.9271 39.26 63.8871 39.3133C63.8471 39.3667 63.7891 39.4056 63.7227 39.4237C63.6564 39.4419 63.5854 39.4382 63.5215 39.4132C63.4766 39.3878 63.4396 39.3515 63.4144 39.3081C63.3892 39.2647 63.3766 39.2157 63.378 39.1661C63.3775 39.1332 63.3839 39.1005 63.3969 39.07C63.4099 39.0394 63.4292 39.0116 63.4537 38.9883C63.4928 38.9586 63.5215 38.9586 63.5242 38.9636C63.5268 38.9685 63.4537 39.0352 63.472 39.1612C63.4756 39.1936 63.4872 39.2248 63.5058 39.2522C63.5243 39.2796 63.5494 39.3026 63.5789 39.3193C63.6155 39.328 63.6541 39.3261 63.6895 39.3138C63.725 39.3015 63.7557 39.2794 63.7776 39.2503C63.7996 39.2213 63.8118 39.1866 63.8127 39.1509C63.8135 39.1152 63.803 39.08 63.7825 39.05C63.7563 39.0297 63.7253 39.0157 63.6921 39.0092C63.6589 39.0028 63.6245 39.0041 63.592 39.013C63.4589 39.0327 63.4354 39.1266 63.4172 39.1217Z" fill="#263238"/>
<path d="M71.95 36.6436C71.95 36.6436 71.95 36.614 71.997 36.5893C72.0577 36.5604 72.1279 36.5551 72.1927 36.5745C72.2442 36.5877 72.2909 36.6141 72.3276 36.6506C72.3644 36.6872 72.39 36.7326 72.4014 36.782C72.4054 36.8457 72.3867 36.9088 72.3482 36.9612C72.3096 37.0136 72.2536 37.0521 72.1891 37.0707C72.1246 37.0892 72.0554 37.0867 71.9926 37.0634C71.9298 37.0402 71.8771 36.9976 71.843 36.9425C71.8242 36.8949 71.8194 36.8434 71.8291 36.7933C71.8387 36.7433 71.8625 36.6967 71.8978 36.6584C71.9419 36.6091 72.0047 36.578 72.0727 36.572C72.1196 36.572 72.1431 36.5868 72.1405 36.5942C72.1379 36.6016 72.0414 36.6066 71.9761 36.7128C71.9581 36.7393 71.9468 36.7693 71.9432 36.8006C71.9395 36.8319 71.9437 36.8636 71.9552 36.8931C71.9782 36.9198 72.009 36.9394 72.0438 36.9494C72.0785 36.9594 72.1157 36.9594 72.1504 36.9493C72.1851 36.9392 72.2159 36.9195 72.2388 36.8928C72.2616 36.8661 72.2756 36.8335 72.2788 36.7993C72.2719 36.7685 72.2574 36.7397 72.2366 36.7153C72.2157 36.6908 72.1891 36.6713 72.1588 36.6584C72.044 36.6041 71.9631 36.6609 71.95 36.6436Z" fill="#263238"/>
<path d="M73.8659 28.5581C73.8659 28.5927 71.1209 28.6224 67.7366 28.6224C64.3524 28.6224 61.6074 28.5927 61.6074 28.5581C61.6074 28.5235 64.3498 28.4939 67.7366 28.4939C71.1235 28.4939 73.8659 28.5285 73.8659 28.5581Z" fill="#263238"/>
<path d="M73.8659 30.1763C73.8659 30.2134 71.1209 30.2405 67.7366 30.2405C64.3524 30.2405 61.6074 30.2134 61.6074 30.1763C61.6074 30.1392 64.3498 30.1121 67.7366 30.1121C71.1235 30.1121 73.8659 30.1417 73.8659 30.1763Z" fill="#263238"/>
<path d="M73.8659 31.7893C73.8659 31.8239 71.1209 31.8536 67.7366 31.8536C64.3524 31.8536 61.6074 31.8239 61.6074 31.7893C61.6074 31.7547 64.3498 31.7251 67.7366 31.7251C71.1235 31.7251 73.8659 31.7523 73.8659 31.7893Z" fill="#263238"/>
<path d="M73.8659 33.4002C73.8659 33.4372 71.1209 33.4644 67.7366 33.4644C64.3524 33.4644 61.6074 33.4372 61.6074 33.4002C61.6074 33.3631 64.3498 33.3359 67.7366 33.3359C71.1235 33.3359 73.8659 33.3656 73.8659 33.4002Z" fill="#263238"/>
<path d="M68.1306 25.6157H61.6074V26.137H68.1306V25.6157Z" fill="#263238"/>
<path d="M41.2039 51.4958H34.6807V52.0171H41.2039V51.4958Z" fill="#263238"/>
<path d="M52.5318 54.5171C52.5318 54.5542 48.5735 54.5813 43.6915 54.5813C38.8095 54.5813 34.8486 54.5542 34.8486 54.5171C34.8486 54.4801 38.8069 54.4529 43.6915 54.4529C48.5761 54.4529 52.5318 54.4825 52.5318 54.5171Z" fill="#263238"/>
<path d="M52.6343 55.9795C52.6343 56.0141 48.6055 56.0437 43.6375 56.0437C38.6694 56.0437 34.6406 56.0141 34.6406 55.9795C34.6406 55.9449 38.6668 55.9153 43.6375 55.9153C48.6081 55.9153 52.6343 55.9499 52.6343 55.9795Z" fill="#263238"/>
<path d="M52.8412 57.3582C52.8412 57.3928 48.789 57.4224 43.7922 57.4224C38.7954 57.4224 34.7432 57.3928 34.7432 57.3582C34.7432 57.3236 38.7954 57.2939 43.7922 57.2939C48.789 57.2939 52.8412 57.3211 52.8412 57.3582Z" fill="#263238"/>
<path d="M44.156 58.8255C44.156 58.86 42.0685 58.8897 39.501 58.8897C36.9335 58.8897 34.8486 58.86 34.8486 58.8255C34.8486 58.7909 36.9361 58.7612 39.501 58.7612C42.0659 58.7612 44.156 58.7909 44.156 58.8255Z" fill="#263238"/>
<path d="M15.7392 98.8168V96.5935L11.3217 96.5564L11.2852 99.8248L11.5461 99.842C12.7646 99.9137 17.7458 100.124 18.5625 99.8964C19.4861 99.6395 15.7392 98.8168 15.7392 98.8168Z" fill="#FF725E"/>
<path d="M18.6805 99.691C18.6805 99.7306 17.0288 99.7627 14.991 99.7627C12.9531 99.7627 11.2988 99.7306 11.2988 99.691C11.2988 99.6515 12.9531 99.6194 14.991 99.6194C17.0288 99.6194 18.6805 99.6515 18.6805 99.691Z" fill="#263238"/>
<path d="M15.8168 99.2735C15.7802 99.2537 15.8168 99.1327 15.9055 99.0265C15.9942 98.9202 16.1168 98.8511 16.1429 98.8782C16.169 98.9054 16.1116 99.0067 16.0255 99.1253C15.9394 99.2439 15.8533 99.2933 15.8168 99.2735Z" fill="#263238"/>
<path d="M16.099 99.4194C16.0599 99.4046 16.0808 99.2712 16.1669 99.1328C16.253 98.9945 16.3678 98.9105 16.3991 98.9352C16.4304 98.9599 16.3782 99.076 16.2974 99.2045C16.2165 99.3329 16.1382 99.4342 16.099 99.4194Z" fill="#263238"/>
<path d="M12.6251 99.6763C12.6068 99.6887 12.539 99.6294 12.4424 99.5306C12.3249 99.4014 12.1947 99.2832 12.0536 99.1773C11.9129 99.0794 11.749 99.0158 11.5761 98.992C11.4431 98.9747 11.357 98.992 11.3491 98.9722C11.3413 98.9525 11.4248 98.9006 11.5788 98.8907C11.7816 98.8852 11.9804 98.9453 12.1424 99.0612C12.2967 99.1732 12.4277 99.3114 12.5285 99.4688C12.6094 99.5849 12.646 99.664 12.6251 99.6763Z" fill="#263238"/>
<path d="M15.8289 98.8534C15.8497 98.8855 15.7715 98.9646 15.6462 99.0066C15.521 99.0486 15.4088 99.0338 15.4035 98.9942C15.3983 98.9547 15.4844 98.9103 15.5966 98.8732C15.7088 98.8361 15.8054 98.8188 15.8289 98.8534Z" fill="#263238"/>
<path d="M15.7562 98.6364C15.7562 98.676 15.6414 98.7105 15.4953 98.713C15.3492 98.7155 15.2344 98.6834 15.2344 98.6438C15.2344 98.6043 15.3544 98.5722 15.4953 98.5697C15.6362 98.5673 15.7562 98.5969 15.7562 98.6364Z" fill="#FF725E"/>
<path d="M18.6805 99.691C18.6805 99.7306 17.0288 99.7627 14.991 99.7627C12.9531 99.7627 11.2988 99.7306 11.2988 99.691C11.2988 99.6515 12.9531 99.6194 14.991 99.6194C17.0288 99.6194 18.6805 99.6515 18.6805 99.691Z" fill="#263238"/>
<path d="M15.8168 99.2735C15.7802 99.2537 15.8168 99.1327 15.9055 99.0265C15.9942 98.9202 16.1168 98.8511 16.1429 98.8782C16.169 98.9054 16.1116 99.0067 16.0255 99.1253C15.9394 99.2439 15.8533 99.2933 15.8168 99.2735Z" fill="#263238"/>
<path d="M16.099 99.4194C16.0599 99.4046 16.0808 99.2712 16.1669 99.1328C16.253 98.9945 16.3678 98.9105 16.3991 98.9352C16.4304 98.9599 16.3782 99.076 16.2974 99.2045C16.2165 99.3329 16.1382 99.4342 16.099 99.4194Z" fill="#263238"/>
<path d="M12.6251 99.6763C12.6068 99.6887 12.539 99.6294 12.4424 99.5306C12.3249 99.4014 12.1947 99.2832 12.0536 99.1773C11.9129 99.0794 11.749 99.0158 11.5761 98.992C11.4431 98.9747 11.357 98.992 11.3491 98.9722C11.3413 98.9525 11.4248 98.9006 11.5788 98.8907C11.7816 98.8852 11.9804 98.9453 12.1424 99.0612C12.2967 99.1732 12.4277 99.3114 12.5285 99.4688C12.6094 99.5849 12.646 99.664 12.6251 99.6763Z" fill="#263238"/>
<path d="M15.8289 98.8534C15.8497 98.8855 15.7715 98.9646 15.6462 99.0066C15.521 99.0486 15.4088 99.0338 15.4035 98.9942C15.3983 98.9547 15.4844 98.9103 15.5966 98.8732C15.7088 98.8361 15.8054 98.8188 15.8289 98.8534Z" fill="#263238"/>
<path d="M15.7562 98.6364C15.7562 98.676 15.6414 98.7105 15.4953 98.713C15.3492 98.7155 15.2344 98.6834 15.2344 98.6438C15.2344 98.6043 15.3544 98.5722 15.4953 98.5697C15.6362 98.5673 15.7562 98.5969 15.7562 98.6364Z" fill="#263238"/>
<path d="M20.3973 98.026L21.094 95.894L16.8826 94.6292L15.8389 97.7394L16.0998 97.8333C17.2401 98.2434 21.9342 99.8393 22.7848 99.8516C23.7189 99.8615 20.3973 98.026 20.3973 98.026Z" fill="#FF725E"/>
<path d="M22.9351 99.6837C22.9351 99.7232 21.333 99.2909 19.3865 98.7178C17.44 98.1447 15.8718 97.653 15.8848 97.616C15.8979 97.5789 17.4843 98.0113 19.4335 98.5819C21.3826 99.1526 22.9482 99.6467 22.9351 99.6837Z" fill="#263238"/>
<path d="M20.3298 98.4831C20.3011 98.4535 20.3689 98.3498 20.4942 98.2633C20.6194 98.1768 20.7551 98.1546 20.7681 98.1892C20.7812 98.2238 20.6977 98.3028 20.5829 98.3819C20.4681 98.4609 20.3585 98.5103 20.3298 98.4831Z" fill="#263238"/>
<path d="M20.5521 98.7028C20.5208 98.6781 20.5808 98.5546 20.7087 98.4558C20.8365 98.3569 20.9696 98.3001 20.9931 98.3322C21.0166 98.3644 20.9279 98.4607 20.8104 98.562C20.693 98.6633 20.586 98.7176 20.5521 98.7028Z" fill="#263238"/>
<path d="M17.1602 97.9766C17.1393 97.9766 17.0949 97.91 17.0349 97.7864C16.9632 97.6306 16.8758 97.4817 16.774 97.3418C16.6704 97.2091 16.5343 97.1023 16.3774 97.0305C16.2547 96.9786 16.166 96.9687 16.166 96.949C16.166 96.9292 16.2599 96.8995 16.4113 96.9341C16.6059 96.9865 16.7761 97.0997 16.894 97.2553C17.0057 97.4048 17.0879 97.5722 17.1367 97.7494C17.1706 97.8828 17.1784 97.9766 17.1602 97.9766Z" fill="#455A64"/>
<path d="M20.4743 98.0853C20.4743 98.1224 20.3856 98.1767 20.2525 98.1817C20.1194 98.1866 20.015 98.1397 20.0229 98.1001C20.0307 98.0606 20.1299 98.0433 20.2473 98.0384C20.3647 98.0334 20.4534 98.0458 20.4743 98.0853Z" fill="#263238"/>
<path d="M20.4741 97.8606C20.4741 97.8976 20.3437 97.8976 20.2001 97.8606C20.0566 97.8235 19.9549 97.7568 19.9679 97.7197C19.981 97.6827 20.1062 97.6852 20.2419 97.7197C20.3776 97.7543 20.4846 97.821 20.4741 97.8606Z" fill="#263238"/>
<path d="M23.3961 54.653L17.5983 54.2306L8.81543 53.5562L9.79652 98.2237L17.4235 98.1299C17.4235 98.1299 17.4235 97.6358 17.4052 96.7612L21.8775 97.9199C21.8775 97.9199 26.235 83.9818 27.7197 78.2628C28.9591 73.4974 23.3961 54.653 23.3961 54.653ZM17.3217 89.8243C17.2069 79.5128 17.0738 61.9778 17.233 59.8335C17.233 59.8335 21.4809 75.2711 21.5201 76.489C21.5461 77.2252 19.1795 84.3499 17.3217 89.8243Z" fill="#455A64"/>
<path d="M17.4674 96.4376C17.4674 96.4771 15.761 96.5092 13.6579 96.5092C11.5548 96.5092 9.8457 96.4771 9.8457 96.4376C9.8457 96.3981 11.5522 96.366 13.6579 96.366C15.7636 96.366 17.4674 96.3981 17.4674 96.4376Z" fill="#455A64"/>
<path d="M17.3975 94.8318C17.636 94.8853 17.8698 94.9564 18.0968 95.0442L19.8424 95.6199L21.588 96.1979C21.8349 96.2648 22.0743 96.3541 22.3029 96.4647C22.048 96.4312 21.7972 96.3741 21.5541 96.2943C21.1 96.1683 20.4764 95.9805 19.7928 95.7557C19.1092 95.5309 18.4881 95.3086 18.0602 95.1381C17.8254 95.0656 17.6023 94.9625 17.3975 94.8318Z" fill="#455A64"/>
<path d="M24.3878 76.3507C23.9161 76.4548 23.4343 76.5127 22.9501 76.5236C22.4699 76.5817 21.9845 76.5924 21.502 76.5557C21.9734 76.4498 22.4553 76.391 22.9397 76.3803C23.42 76.3223 23.9054 76.3124 24.3878 76.3507Z" fill="#455A64"/>
<path d="M23.8874 77.1607C23.5123 77.1307 23.143 77.0543 22.7889 76.9335C22.4203 76.8573 22.0641 76.7352 21.7295 76.5703C22.1056 76.5973 22.4761 76.673 22.8306 76.7951C23.4255 76.9582 23.9004 77.1212 23.8874 77.1607Z" fill="#455A64"/>
<path d="M17.9358 54.2874C17.9709 54.5693 17.984 54.8534 17.975 55.1372C17.975 55.6634 17.975 56.3897 17.975 57.1926C17.975 57.5903 17.975 57.9707 17.9593 58.3215C17.9689 58.6375 17.9066 58.9518 17.7767 59.243C17.6841 59.4415 17.5362 59.6123 17.3487 59.7371C17.2848 59.7873 17.2085 59.8213 17.127 59.8359C17.127 59.8359 17.2 59.7914 17.3174 59.6976C17.4822 59.5639 17.6102 59.3943 17.6906 59.2035C17.7994 58.9205 17.8481 58.6199 17.8341 58.3191C17.8341 57.9658 17.8341 57.578 17.8341 57.1876C17.8341 56.3847 17.8549 55.6584 17.8706 55.1347C17.8698 54.8511 17.8916 54.5678 17.9358 54.2874Z" fill="#455A64"/>
<path d="M13.5697 54.0354C13.5725 54.0716 13.5725 54.1079 13.5697 54.1441C13.5697 54.2232 13.5697 54.3294 13.5697 54.4653C13.5697 54.7518 13.5462 55.1668 13.5279 55.7005C13.4914 56.7751 13.4392 58.3191 13.374 60.2238C13.2514 64.0431 13.1261 69.3223 13.0948 75.15C13.0635 80.9778 13.1339 86.2669 13.2148 90.0837C13.2592 91.9884 13.2931 93.5423 13.3192 94.607C13.3192 95.1382 13.3401 95.5507 13.3479 95.8422C13.3479 95.9781 13.3479 96.0893 13.3479 96.1634C13.3507 96.1996 13.3507 96.2359 13.3479 96.2721C13.3451 96.2359 13.3451 96.1996 13.3479 96.1634C13.3479 96.0868 13.3479 95.9806 13.3296 95.8447C13.3296 95.5557 13.3009 95.1431 13.2774 94.6095C13.2331 93.5423 13.1809 91.9958 13.1287 90.0862C13.0217 86.2644 12.9382 80.9852 12.9695 75.15C13.0009 69.3149 13.1418 64.0332 13.2879 60.2213C13.3609 58.3117 13.4288 56.7627 13.4862 55.698C13.5149 55.1693 13.5384 54.7568 13.554 54.4628C13.554 54.3269 13.5697 54.2157 13.5749 54.1416C13.5705 54.1064 13.5687 54.0709 13.5697 54.0354Z" fill="#455A64"/>
<path d="M21.4973 55.1597C21.5131 55.1924 21.5262 55.2263 21.5364 55.261C21.5599 55.3351 21.5938 55.4339 21.6356 55.5623C21.7191 55.8267 21.8521 56.217 21.9983 56.7259C22.2983 57.7413 22.7028 59.2161 23.1542 61.0516C23.6056 62.8871 24.1066 65.0759 24.6284 67.5167C25.1503 69.9575 25.7008 72.6453 26.194 75.4813C26.2566 75.837 26.314 76.1903 26.3636 76.5436C26.3636 76.6375 26.3819 76.7338 26.3819 76.8252L26.3349 77.0871C26.301 77.2625 26.2749 77.4379 26.2331 77.6083C26.0844 78.2951 25.9174 78.9671 25.7374 79.6242C25.3825 80.9385 25.0068 82.1959 24.6363 83.3916C23.9004 85.7829 23.1907 87.9223 22.588 89.7183C21.9852 91.5143 21.4816 92.9595 21.1268 93.9576L20.7145 95.1063L20.6023 95.4052C20.5926 95.4396 20.5785 95.4728 20.5605 95.504C20.5674 95.4688 20.577 95.4341 20.5892 95.4003C20.6153 95.3262 20.6467 95.2273 20.6884 95.0989L21.0772 93.9427L22.4966 89.6911C23.0863 87.8927 23.7856 85.7508 24.5162 83.3595C24.8815 82.1638 25.2547 80.9039 25.6095 79.5921C25.7869 78.9374 25.9539 78.2679 26.1027 77.5836C26.1444 77.4132 26.1679 77.2402 26.1992 77.0673L26.2462 76.8079C26.2462 76.7239 26.2331 76.6424 26.2279 76.5609C26.1783 76.2126 26.1236 75.8593 26.0609 75.506C25.5652 72.6724 25.0172 69.9846 24.4954 67.5439C23.9735 65.1031 23.5012 62.897 23.0629 61.0714C22.6245 59.2457 22.2305 57.7561 21.9461 56.7383C21.8104 56.2294 21.6851 55.8366 21.6095 55.5698L21.5234 55.2659C21.5106 55.2315 21.5018 55.1959 21.4973 55.1597Z" fill="#455A64"/>
<path d="M17.2967 88.9177C17.3177 89.0327 17.3256 89.1495 17.3202 89.2661C17.3202 89.5131 17.3202 89.8367 17.3332 90.2196C17.3332 91.0472 17.3646 92.1466 17.3828 93.3595C17.4011 94.5725 17.4507 95.6718 17.4741 96.4994C17.4741 96.8823 17.495 97.2035 17.5029 97.453C17.5146 97.5689 17.5146 97.6855 17.5029 97.8013C17.4741 97.688 17.4583 97.572 17.4559 97.4555C17.435 97.2307 17.4115 96.9071 17.3854 96.5044C17.3332 95.7015 17.2837 94.5898 17.255 93.362C17.2263 92.1342 17.2315 91.0225 17.255 90.2196C17.255 89.817 17.2732 89.4785 17.2837 89.2661C17.2784 89.1498 17.2827 89.0333 17.2967 88.9177Z" fill="#455A64"/>
<path d="M23.3961 54.653L17.5983 54.2306L8.81543 53.5562L9.79652 98.2237L17.4235 98.1299C17.4235 98.1299 17.4235 97.6358 17.4052 96.7612L21.8775 97.9199C21.8775 97.9199 26.235 83.9818 27.7197 78.2628C28.9591 73.4974 23.3961 54.653 23.3961 54.653ZM17.3217 89.8243C17.2069 79.5128 17.0738 61.9778 17.233 59.8335C17.233 59.8335 21.4809 75.2711 21.5201 76.489C21.5461 77.2252 19.1795 84.3499 17.3217 89.8243Z" fill="#263238"/>
<path d="M17.4674 96.4376C17.4674 96.4771 15.761 96.5092 13.6579 96.5092C11.5548 96.5092 9.8457 96.4771 9.8457 96.4376C9.8457 96.3981 11.5522 96.366 13.6579 96.366C15.7636 96.366 17.4674 96.3981 17.4674 96.4376Z" fill="#455A64"/>
<path d="M17.3975 94.8318C17.636 94.8853 17.8698 94.9564 18.0968 95.0442L19.8424 95.6199L21.588 96.1979C21.8349 96.2648 22.0743 96.3541 22.3029 96.4647C22.048 96.4312 21.7972 96.3741 21.5541 96.2943C21.1 96.1683 20.4764 95.9805 19.7928 95.7557C19.1092 95.5309 18.4881 95.3086 18.0602 95.1381C17.8254 95.0656 17.6023 94.9625 17.3975 94.8318Z" fill="#455A64"/>
<path d="M24.3878 76.3507C23.9161 76.4548 23.4343 76.5127 22.9501 76.5236C22.4699 76.5817 21.9845 76.5924 21.502 76.5557C21.9734 76.4498 22.4553 76.391 22.9397 76.3803C23.42 76.3223 23.9054 76.3124 24.3878 76.3507Z" fill="#455A64"/>
<path d="M23.8874 77.1607C23.5123 77.1307 23.143 77.0543 22.7889 76.9335C22.4203 76.8573 22.0641 76.7352 21.7295 76.5703C22.1056 76.5973 22.4761 76.673 22.8306 76.7951C23.4255 76.9582 23.9004 77.1212 23.8874 77.1607Z" fill="#455A64"/>
<path d="M17.9358 54.2874C17.9709 54.5693 17.984 54.8534 17.975 55.1372C17.975 55.6634 17.975 56.3897 17.975 57.1926C17.975 57.5903 17.975 57.9707 17.9593 58.3215C17.9689 58.6375 17.9066 58.9518 17.7767 59.243C17.6841 59.4415 17.5362 59.6123 17.3487 59.7371C17.2848 59.7873 17.2085 59.8213 17.127 59.8359C17.127 59.8359 17.2 59.7914 17.3174 59.6976C17.4822 59.5639 17.6102 59.3943 17.6906 59.2035C17.7994 58.9205 17.8481 58.6199 17.8341 58.3191C17.8341 57.9658 17.8341 57.578 17.8341 57.1876C17.8341 56.3847 17.8549 55.6584 17.8706 55.1347C17.8698 54.8511 17.8916 54.5678 17.9358 54.2874Z" fill="#455A64"/>
<path d="M13.5697 54.0354C13.5725 54.0716 13.5725 54.1079 13.5697 54.1441C13.5697 54.2232 13.5697 54.3294 13.5697 54.4653C13.5697 54.7518 13.5462 55.1668 13.5279 55.7005C13.4914 56.7751 13.4392 58.3191 13.374 60.2238C13.2514 64.0431 13.1261 69.3223 13.0948 75.15C13.0635 80.9778 13.1339 86.2669 13.2148 90.0837C13.2592 91.9884 13.2931 93.5423 13.3192 94.607C13.3192 95.1382 13.3401 95.5507 13.3479 95.8422C13.3479 95.9781 13.3479 96.0893 13.3479 96.1634C13.3507 96.1996 13.3507 96.2359 13.3479 96.2721C13.3451 96.2359 13.3451 96.1996 13.3479 96.1634C13.3479 96.0868 13.3479 95.9806 13.3296 95.8447C13.3296 95.5557 13.3009 95.1431 13.2774 94.6095C13.2331 93.5423 13.1809 91.9958 13.1287 90.0862C13.0217 86.2644 12.9382 80.9852 12.9695 75.15C13.0009 69.3149 13.1418 64.0332 13.2879 60.2213C13.3609 58.3117 13.4288 56.7627 13.4862 55.698C13.5149 55.1693 13.5384 54.7568 13.554 54.4628C13.554 54.3269 13.5697 54.2157 13.5749 54.1416C13.5705 54.1064 13.5687 54.0709 13.5697 54.0354Z" fill="#455A64"/>
<path d="M21.4973 55.1597C21.5131 55.1924 21.5262 55.2263 21.5364 55.261C21.5599 55.3351 21.5938 55.4339 21.6356 55.5623C21.7191 55.8267 21.8521 56.217 21.9983 56.7259C22.2983 57.7413 22.7028 59.2161 23.1542 61.0516C23.6056 62.8871 24.1066 65.0759 24.6284 67.5167C25.1503 69.9575 25.7008 72.6453 26.194 75.4813C26.2566 75.837 26.314 76.1903 26.3636 76.5436C26.3636 76.6375 26.3819 76.7338 26.3819 76.8252L26.3349 77.0871C26.301 77.2625 26.2749 77.4379 26.2331 77.6083C26.0844 78.2951 25.9174 78.9671 25.7374 79.6242C25.3825 80.9385 25.0068 82.1959 24.6363 83.3916C23.9004 85.7829 23.1907 87.9223 22.588 89.7183C21.9852 91.5143 21.4816 92.9595 21.1268 93.9576L20.7145 95.1063L20.6023 95.4052C20.5926 95.4396 20.5785 95.4728 20.5605 95.504C20.5674 95.4688 20.577 95.4341 20.5892 95.4003C20.6153 95.3262 20.6467 95.2273 20.6884 95.0989L21.0772 93.9427L22.4966 89.6911C23.0863 87.8927 23.7856 85.7508 24.5162 83.3595C24.8815 82.1638 25.2547 80.9039 25.6095 79.5921C25.7869 78.9374 25.9539 78.2679 26.1027 77.5836C26.1444 77.4132 26.1679 77.2402 26.1992 77.0673L26.2462 76.8079C26.2462 76.7239 26.2331 76.6424 26.2279 76.5609C26.1783 76.2126 26.1236 75.8593 26.0609 75.506C25.5652 72.6724 25.0172 69.9846 24.4954 67.5439C23.9735 65.1031 23.5012 62.897 23.0629 61.0714C22.6245 59.2457 22.2305 57.7561 21.9461 56.7383C21.8104 56.2294 21.6851 55.8366 21.6095 55.5698L21.5234 55.2659C21.5106 55.2315 21.5018 55.1959 21.4973 55.1597Z" fill="#455A64"/>
<path d="M17.2967 88.9177C17.3177 89.0327 17.3256 89.1495 17.3202 89.2661C17.3202 89.5131 17.3202 89.8367 17.3332 90.2196C17.3332 91.0472 17.3646 92.1466 17.3828 93.3595C17.4011 94.5725 17.4507 95.6718 17.4741 96.4994C17.4741 96.8823 17.495 97.2035 17.5029 97.453C17.5146 97.5689 17.5146 97.6855 17.5029 97.8013C17.4741 97.688 17.4583 97.572 17.4559 97.4555C17.435 97.2307 17.4115 96.9071 17.3854 96.5044C17.3332 95.7015 17.2837 94.5898 17.255 93.362C17.2263 92.1342 17.2315 91.0225 17.255 90.2196C17.255 89.817 17.2732 89.4785 17.2837 89.2661C17.2784 89.1498 17.2827 89.0333 17.2967 88.9177Z" fill="#455A64"/>
<path d="M13.4081 33.2147L17.8438 33.526C17.9039 33.0319 17.99 31.1519 17.99 31.1519C17.99 31.1519 19.8399 30.9913 19.9756 29.2571C20.1113 27.5229 20.0539 23.5183 20.0539 23.5183C19.0398 23.033 17.9071 22.8131 16.7731 22.8813C15.6391 22.9495 14.5449 23.3033 13.6037 23.9062L13.3193 24.089L13.4081 33.2147Z" fill="#E5BAAB"/>
<path d="M19.4243 26.4755C19.3891 26.4405 19.3656 26.3965 19.3566 26.3489C19.3476 26.3014 19.3536 26.2523 19.3737 26.2079C19.3938 26.1635 19.4273 26.1257 19.4699 26.0991C19.5125 26.0725 19.5624 26.0583 19.6135 26.0583C19.6645 26.0583 19.7144 26.0725 19.757 26.0991C19.7997 26.1257 19.8331 26.1635 19.8532 26.2079C19.8734 26.2523 19.8793 26.3014 19.8703 26.3489C19.8613 26.3965 19.8378 26.4405 19.8026 26.4755C19.7783 26.4998 19.7489 26.5192 19.7164 26.5324C19.6839 26.5456 19.6489 26.5524 19.6135 26.5524C19.5781 26.5524 19.5431 26.5456 19.5105 26.5324C19.478 26.5192 19.4487 26.4998 19.4243 26.4755Z" fill="#263238"/>
<path d="M19.894 26.1051C19.8627 26.1348 19.6931 25.9939 19.44 25.9766C19.1869 25.9594 18.9964 26.073 18.9703 26.0409C18.9442 26.0088 18.9886 25.9742 19.0747 25.9223C19.1857 25.8533 19.3182 25.8219 19.4504 25.8334C19.5837 25.8409 19.7105 25.8905 19.8105 25.9742C19.8862 26.0359 19.9097 26.0878 19.894 26.1051Z" fill="#263238"/>
<path d="M16.9705 26.1447C17.0118 26.1733 17.0434 26.2127 17.0612 26.2582C17.079 26.3036 17.0823 26.3529 17.0707 26.4001C17.0592 26.4473 17.0332 26.4902 16.996 26.5235C16.9589 26.5569 16.9122 26.5791 16.8618 26.5875C16.8114 26.5959 16.7596 26.5901 16.7126 26.5708C16.6657 26.5515 16.6258 26.5195 16.5979 26.4789C16.57 26.4383 16.5553 26.3909 16.5557 26.3424C16.556 26.294 16.5714 26.2467 16.6 26.2065C16.6196 26.1789 16.6448 26.1553 16.6743 26.1371C16.7037 26.119 16.7368 26.1067 16.7714 26.1009C16.806 26.0951 16.8414 26.096 16.8756 26.1036C16.9099 26.1111 16.9421 26.1251 16.9705 26.1447Z" fill="#263238"/>
<path d="M17.1362 26.1568C17.1049 26.1839 16.9353 26.0431 16.6822 26.0258C16.4291 26.0085 16.2386 26.1246 16.2125 26.0925C16.1864 26.0604 16.2308 26.0234 16.3143 25.9715C16.4274 25.9049 16.5598 25.8738 16.6926 25.8825C16.8255 25.8917 16.9518 25.9411 17.0527 26.0234C17.1284 26.0876 17.1519 26.1444 17.1362 26.1568Z" fill="#263238"/>
<path d="M18.0209 28.1876C18.1543 28.1485 18.2934 28.1293 18.4331 28.1308C18.501 28.1308 18.5558 28.1184 18.5636 28.0838C18.5702 28.02 18.5575 27.9558 18.5271 27.8985L18.3601 27.4044C18.1994 26.982 18.0814 26.5461 18.0078 26.1025C18.21 26.5081 18.3716 26.9308 18.4905 27.3649L18.6471 27.859C18.6848 27.9408 18.6921 28.0322 18.668 28.1184C18.657 28.1415 18.6404 28.1619 18.6195 28.1777C18.5987 28.1936 18.5741 28.2046 18.5479 28.2098C18.5107 28.2144 18.473 28.2144 18.4357 28.2098C18.2971 28.2234 18.157 28.2159 18.0209 28.1876Z" fill="#263238"/>
<path d="M17.1838 28.4023C16.9228 28.2393 17.883 28.81 18.3997 28.8174C18.3058 28.9377 18.1716 29.0243 18.0189 29.0629C17.8662 29.1016 17.7042 29.0899 17.5595 29.0298C17.022 28.805 17.1838 28.4023 17.1838 28.4023Z" fill="white"/>
<path d="M17.9792 31.1273C17.132 31.0934 16.3145 30.8217 15.6309 30.3467C15.6309 30.3467 16.1136 31.6288 17.9531 31.5819L17.9792 31.1273Z" fill="#D78776"/>
<path d="M13.67 25.6281C13.6282 25.6133 12.3079 25.4502 12.4332 26.9276C12.5584 28.4049 14.0927 27.7947 14.0901 27.7527C14.0875 27.7107 13.67 25.6281 13.67 25.6281Z" fill="#E5BAAB"/>
<path d="M13.5554 27.2709C13.5554 27.2709 13.5319 27.2907 13.4875 27.3154C13.4247 27.3459 13.3521 27.353 13.284 27.3352C13.1784 27.2818 13.0894 27.203 13.0262 27.1067C12.963 27.0104 12.9277 26.9001 12.9239 26.7867C12.9095 26.6606 12.9256 26.5331 12.9709 26.4137C12.9813 26.3665 13.0036 26.3223 13.0358 26.2849C13.0681 26.2475 13.1093 26.2179 13.1561 26.1988C13.187 26.1894 13.2202 26.1901 13.2506 26.2009C13.2809 26.2117 13.3065 26.2318 13.3231 26.2581C13.3466 26.2976 13.3414 26.3272 13.3492 26.3297C13.3571 26.3322 13.3805 26.3025 13.3492 26.2433C13.3383 26.207 13.3143 26.1755 13.2814 26.1543C13.2351 26.1282 13.1802 26.1194 13.1274 26.1296C13.0653 26.1463 13.0087 26.1777 12.963 26.221C12.9173 26.2642 12.8841 26.3178 12.8665 26.3767C12.8102 26.509 12.7896 26.6524 12.8065 26.7942C12.8094 26.9261 12.8536 27.0543 12.9335 27.1625C13.0134 27.2707 13.1254 27.354 13.2553 27.4019C13.2981 27.4104 13.3423 27.4097 13.3848 27.3998C13.4272 27.39 13.4668 27.3713 13.5006 27.3451C13.5554 27.308 13.5632 27.2734 13.5554 27.2709Z" fill="#D78776"/>
<path d="M20.1727 22.8935C20.2783 22.8909 20.3818 22.8652 20.4753 22.8186C20.5688 22.772 20.6497 22.7056 20.7117 22.6247C20.7738 22.5437 20.8153 22.4504 20.8332 22.3518C20.8511 22.2532 20.8447 22.1521 20.8147 22.0562C20.7846 21.9603 20.7317 21.8722 20.66 21.7988C20.5883 21.7253 20.4997 21.6685 20.401 21.6327C20.3024 21.5968 20.1964 21.583 20.0912 21.5921C19.986 21.6013 19.8844 21.6332 19.7943 21.6855C20.0125 21.514 20.1903 21.3011 20.3162 21.0605C20.3771 20.9391 20.3972 20.803 20.3739 20.6705C20.3505 20.538 20.2849 20.4154 20.1857 20.3193C20.0709 20.2474 19.9381 20.2054 19.8006 20.1976C19.6632 20.1898 19.526 20.2165 19.4029 20.2749C19.0141 20.433 18.7062 20.7443 18.307 20.8752C17.9078 21.0061 17.4616 20.9419 17.0337 20.9592C16.5535 20.9673 16.0885 21.1195 15.7056 21.394C15.3793 21.6367 15.1681 21.9921 15.1185 22.3821C15.0672 22.3155 15.0105 22.2527 14.9489 22.1944C14.7459 21.9651 14.4722 21.8018 14.1661 21.7275C14.1478 21.7596 14.5053 21.9474 14.8471 22.2833C14.9402 22.3676 15.0273 22.4576 15.108 22.5526C14.5131 22.4834 13.8582 22.4785 13.3885 22.8293C13.1982 22.9899 13.0479 23.1883 12.9482 23.4104C12.8485 23.6325 12.8019 23.8728 12.8119 24.1139C12.8119 24.5932 13.0206 25.0502 13.1693 25.5097C13.2053 25.6399 13.2673 25.7623 13.352 25.8704L13.5764 27.1056L14.3931 27.0908L14.3409 24.4993C14.3409 24.4993 14.2574 23.4074 15.2489 23.5111C16.2405 23.6149 17.5973 24.6648 19.5229 24.398C19.8389 24.3813 20.1467 24.2969 20.4232 24.151C20.5569 24.0707 20.6657 23.9581 20.7382 23.8248C20.8106 23.6915 20.8442 23.5423 20.8354 23.3925C20.8164 23.2436 20.7362 23.1077 20.6122 23.0143C20.4882 22.9209 20.3302 22.8775 20.1727 22.8935Z" fill="#263238"/>
<path d="M36.7661 35.6826L36.8861 34.897C37.0088 34.4673 37.0857 34.027 37.1157 33.5828C37.1354 33.362 37.1142 33.1396 37.0531 32.9257C36.9916 32.6564 36.8897 32.3968 36.7504 32.1549C36.5991 31.9449 36.7974 31.6608 37.0114 31.7473C37.2253 31.8337 37.6715 32.392 37.815 33.1974C37.9585 34.0028 38.6291 32.8861 38.8796 32.4834C39.1301 32.0808 39.9729 30.8678 40.166 30.8431C40.4478 30.806 40.5417 31.0901 40.2782 31.4829C40.0147 31.8757 39.3206 33.1233 39.5528 33.2369C39.7267 33.2106 39.9044 33.219 40.0747 33.2616C40.1021 33.2693 40.1264 33.2848 40.1442 33.306C40.1619 33.3272 40.1723 33.3532 40.1738 33.3802C40.1729 33.5048 40.1869 33.6292 40.2156 33.7508C40.2156 33.7508 40.5574 33.6767 40.6279 33.8175C40.6755 33.9621 40.6975 34.1132 40.6931 34.2646C40.6931 34.2646 40.954 34.1806 41.0793 34.2646C41.3402 34.4647 41.0062 34.8081 41.0062 34.8081C40.2379 35.6758 39.4126 36.4968 38.5352 37.2662L36.7374 35.6258" fill="#E5BAAB"/>
<path d="M40.1123 33.8053C40.0356 33.958 39.9324 34.0974 39.807 34.2178C39.7026 34.3364 39.5722 34.4649 39.4182 34.6205C39.3379 34.7014 39.2507 34.7758 39.1573 34.8429C39.0998 34.8861 39.0304 34.9129 38.9573 34.9199C38.8842 34.9269 38.8105 34.9139 38.745 34.8824C38.7093 34.8626 38.6791 34.835 38.6568 34.8019C38.6346 34.7688 38.621 34.7312 38.6172 34.6922C38.6119 34.6226 38.6282 34.553 38.6641 34.4921C38.7284 34.4003 38.7981 34.3121 38.8729 34.2277C39.006 34.0696 39.1156 33.9214 39.2069 33.7929C39.2945 33.6477 39.3949 33.5097 39.5069 33.3804C39.4635 33.5447 39.3892 33.7003 39.2878 33.8399C39.193 33.9987 39.0884 34.1521 38.9746 34.2994C38.9054 34.3782 38.8409 34.4606 38.7816 34.5464C38.7346 34.6279 38.7372 34.7292 38.8129 34.7663C38.8555 34.7833 38.9021 34.7893 38.9479 34.7836C38.9938 34.778 39.0372 34.7609 39.0738 34.7342C39.1604 34.6721 39.2424 34.6044 39.3191 34.5316C39.4756 34.3932 39.6113 34.2623 39.7235 34.1511C39.8404 34.0237 39.9706 33.9078 40.1123 33.8053Z" fill="#D78776"/>
<path d="M40.5679 34.3116C40.4911 34.4434 40.3925 34.5627 40.2757 34.6648C40.1578 34.7844 40.0295 34.8943 39.8921 34.9934C39.8096 35.0525 39.7224 35.1053 39.6312 35.1515C39.577 35.1772 39.5189 35.1947 39.459 35.2034C39.4227 35.209 39.3856 35.2072 39.35 35.1983C39.3145 35.1894 39.2814 35.1734 39.2528 35.1515C39.2046 35.1043 39.1742 35.0435 39.1662 34.9783C39.1582 34.9131 39.173 34.8472 39.2085 34.7908C39.2613 34.7028 39.3234 34.62 39.3937 34.5438C39.5085 34.4178 39.6155 34.2967 39.7225 34.1757C39.913 33.9682 40.0382 33.8471 40.0539 33.857C39.985 33.9926 39.8973 34.1189 39.793 34.2325L39.5007 34.6253C39.4391 34.6952 39.3832 34.7696 39.3337 34.8476C39.3136 34.8792 39.3043 34.9158 39.3071 34.9525C39.3099 34.9893 39.3247 35.0242 39.3494 35.0527C39.3963 35.0947 39.4955 35.0774 39.5816 35.0379C39.6673 34.9959 39.75 34.9489 39.8295 34.8971C39.9651 34.8055 40.0949 34.7065 40.2183 34.6006C40.322 34.4912 40.4394 34.3941 40.5679 34.3116Z" fill="#D78776"/>
<path d="M40.6769 35.0181C40.69 35.0181 40.6769 35.1293 40.5543 35.2651C40.5171 35.3072 40.4714 35.3418 40.4198 35.3668C40.3683 35.3918 40.312 35.4068 40.2542 35.4109C40.1795 35.4115 40.1068 35.388 40.0481 35.3442C40.0157 35.3185 39.9898 35.2864 39.9722 35.2501C39.9546 35.2137 39.9458 35.1742 39.9463 35.1342C39.967 35.0083 40.0208 34.8893 40.1029 34.7883C40.1579 34.7068 40.218 34.6284 40.2829 34.5537C40.3951 34.4252 40.476 34.3585 40.4917 34.3708C40.5073 34.3832 40.4499 34.4672 40.3612 34.6179C40.309 34.7043 40.2568 34.7834 40.2099 34.8649C40.147 34.9521 40.1035 35.0504 40.082 35.154C40.084 35.1959 40.103 35.2355 40.1351 35.2645C40.1672 35.2935 40.2099 35.3096 40.2542 35.3096C40.3408 35.307 40.4234 35.2745 40.4864 35.2182C40.6039 35.0996 40.6587 35.0082 40.6769 35.0181Z" fill="#D78776"/>
<path d="M36.5702 34.6626C36.5702 34.6626 29.7261 41.0388 28.7659 41.0857C27.67 41.1351 24.2988 36.6093 24.2988 36.6093C22.1409 33.457 19.2942 32.9481 18.2557 32.8691V32.4788L13.1545 32.0835C13.1545 32.0835 13.1545 32.4985 13.1545 32.8617H10.9027C10.9027 32.8617 6.85828 32.6863 6.25293 37.8297L9.15968 40.0061L10.3521 44.2058C10.767 45.6683 9.28492 47.9979 8.5778 51.7702C8.46875 52.3991 8.57961 53.0445 8.89353 53.6082L23.623 55.2115L22.8402 44.5492L22.6027 42.0788C23.816 43.6475 25.9948 45.8659 28.6641 45.8165C33.2173 45.735 39.5422 36.676 39.5422 36.676L36.5702 34.6626Z" fill="#E0E0E0"/>
<path d="M16.539 32.4094C16.5643 32.6286 16.5643 32.8498 16.539 33.069C16.5009 33.6178 16.4225 34.1635 16.3042 34.702L16.2859 34.7835L16.2076 34.744C16.0302 34.655 15.8449 34.5612 15.657 34.4574C14.9264 34.0498 14.3028 33.6298 13.8305 33.3383C13.5756 33.1914 13.3299 33.0306 13.0947 32.8566C13.1728 32.8782 13.2474 32.9098 13.3165 32.9504C13.4522 33.0221 13.6479 33.1258 13.8827 33.2617C14.3576 33.5335 14.9891 33.9436 15.7092 34.3462C15.8919 34.4475 16.0745 34.5439 16.252 34.6328L16.1554 34.6748C16.3068 34.0374 16.3798 33.4668 16.4346 33.0616C16.4554 32.8424 16.4903 32.6246 16.539 32.4094Z" fill="#FAFAFA"/>
<path d="M18.2729 32.8961C18.2402 33.1083 18.1913 33.318 18.1268 33.5236C18.0772 33.7187 18.0251 33.951 17.9363 34.2029C17.8902 34.3362 17.8353 34.4665 17.772 34.5933C17.7537 34.6387 17.7209 34.6776 17.678 34.7044C17.6483 34.7217 17.6133 34.7289 17.5787 34.7249C17.5441 34.7208 17.5119 34.7058 17.4875 34.6822C17.4387 34.614 17.3992 34.5401 17.3701 34.4623C17.1092 33.9016 16.9031 33.3926 16.7517 33.0196C16.6565 32.8242 16.5839 32.6196 16.5352 32.4094C16.657 32.5911 16.7593 32.784 16.8404 32.985C17.0153 33.3482 17.2475 33.8521 17.4954 34.4129C17.5194 34.4753 17.5491 34.5357 17.5841 34.5933C17.5971 34.5933 17.5841 34.5933 17.6076 34.5933C17.6272 34.5782 17.6425 34.5587 17.6519 34.5365C17.7144 34.4149 17.7701 34.2904 17.8189 34.1634C17.9103 33.9164 17.9729 33.6891 18.0329 33.4989C18.0848 33.2889 18.1655 33.0862 18.2729 32.8961Z" fill="#FAFAFA"/>
<path d="M17.3221 50.1494C17.3096 50.0916 17.3026 50.0329 17.3012 49.974C17.3012 49.8455 17.2908 49.6808 17.2699 49.4799C17.249 49.0254 17.2177 48.3954 17.1812 47.6222C17.1185 46.0411 17.0298 43.8795 16.9359 41.4931C16.842 39.1066 16.7819 36.945 16.7298 35.364C16.7115 34.5883 16.6958 33.9583 16.6828 33.5037C16.6828 33.2962 16.6828 33.1282 16.6828 33.0097C16.676 32.9505 16.676 32.8909 16.6828 32.8318C16.6948 32.8896 16.7009 32.9483 16.7011 33.0072C16.7011 33.1356 16.7219 33.3036 16.735 33.5013C16.7559 33.9534 16.7872 34.5833 16.8237 35.3566C16.8863 36.9376 16.9724 39.0992 17.069 41.4857C17.1655 43.8721 17.2203 46.0337 17.2751 47.6172C17.2934 48.3905 17.309 49.0204 17.3221 49.475C17.3221 49.685 17.3221 49.853 17.3221 49.9814C17.3282 50.0373 17.3282 50.0936 17.3221 50.1494Z" fill="#F5F5F5"/>
<path d="M16.3936 33.9706L16.8215 35.0872L17.1894 33.8891L16.618 32.6885L16.3936 33.9706Z" fill="#FF725E"/>
<path d="M16.9 34.7537L16.6182 47.3231L18.6221 51.2906L19.4127 46.8266L16.9 34.7537Z" fill="#FF725E"/>
<path d="M28.8404 42.6392C28.8404 42.6392 28.8404 42.6763 28.8404 42.738L28.8247 42.8319L28.7804 42.738C28.6794 42.4882 28.6213 42.2246 28.6082 41.9574C28.565 41.6594 28.6027 41.3558 28.7178 41.0754C28.7569 41.0754 28.7178 41.4707 28.7438 41.95C28.7647 42.2909 28.8221 42.5824 28.8404 42.7232H28.7804C28.8039 42.6565 28.83 42.6392 28.8404 42.6392Z" fill="#FAFAFA"/>
<path d="M29.4264 42.5975C29.2317 42.4042 29.0871 42.1708 29.0037 41.9156C28.8781 41.6801 28.8095 41.421 28.8027 41.1572C28.9356 41.3869 29.0439 41.6286 29.1263 41.8786C29.2507 42.1084 29.3512 42.3492 29.4264 42.5975Z" fill="#FAFAFA"/>
<path d="M39.1159 37.276C38.5516 36.9933 38.0092 36.673 37.4929 36.3174C36.952 35.9977 36.4358 35.6419 35.9482 35.2527C36.5123 35.5376 37.0546 35.8595 37.5712 36.2161C38.112 36.5343 38.6282 36.8884 39.1159 37.276Z" fill="#FAFAFA"/>
<path d="M10.6666 39.2946C10.6666 39.2946 9.58111 46.4588 10.0951 46.859C12.934 49.1194 16.8793 50.3052 18.2883 50.6782C18.4944 50.6313 18.7345 50.5695 19.0111 50.4855C19.2508 50.4135 19.4759 50.3032 19.6764 50.1595C19.9326 49.9893 20.1627 49.7865 20.3601 49.5567C20.3899 49.5074 20.4351 49.468 20.4896 49.4441C20.544 49.4202 20.605 49.4129 20.664 49.4232C20.723 49.4335 20.7772 49.461 20.819 49.5017C20.8609 49.5424 20.8883 49.5944 20.8976 49.6506C20.9106 49.8976 20.4932 50.5325 19.7078 50.9969C19.7078 50.9969 21.516 53.7514 22.0926 54.0009C22.6693 54.2505 24.3184 54.9521 24.0392 55.0855C23.76 55.2189 21.7534 54.668 21.7534 54.668L17.683 53.6378C17.683 53.6378 4.21902 51.6392 5.11401 45.7918C5.66457 42.2072 6.26471 38.9784 6.48128 38.1606L10.6666 39.2946Z" fill="#E5BAAB"/>
<path d="M6.2534 37.8271L5.05835 45.6361C4.77915 48.0398 6.48041 49.9495 8.76876 51.0241C12.2522 52.6571 17.4238 53.8231 17.3794 53.8157C17.335 53.8083 17.7291 50.3299 17.7291 50.3299C17.7291 50.3299 10.4778 47.3654 10.2508 46.0808C10.0238 44.7962 11.1719 39.4601 11.1719 39.4601L6.2534 37.8271Z" fill="#E0E0E0"/>
<path d="M17.3685 53.8153C17.3658 53.7948 17.3658 53.7741 17.3685 53.7536C17.3685 53.7042 17.3685 53.6449 17.3816 53.5732C17.3946 53.4028 17.4129 53.173 17.439 52.879C17.4938 52.2664 17.5746 51.3968 17.6712 50.3271L17.6999 50.3716L14.0469 48.6991L13.0032 48.205C12.6509 48.0271 12.2961 47.832 11.9438 47.6171C11.5864 47.3987 11.2431 47.1603 10.9157 46.9031C10.7514 46.7722 10.587 46.6338 10.4304 46.4881C10.3421 46.4147 10.271 46.3247 10.2217 46.2237C10.194 46.1748 10.1738 46.1224 10.1617 46.0681C10.1445 46.0165 10.1323 45.9636 10.1251 45.91C10.0077 45.0552 10.2478 44.2499 10.3861 43.4816C10.5243 42.7133 10.6626 41.9647 10.7931 41.2582C11.054 39.8402 11.2915 38.5655 11.4898 37.4884C11.5969 37.0112 11.658 36.5258 11.6724 36.0382C11.6775 35.6713 11.5973 35.3078 11.4376 34.9735C11.3352 34.7625 11.1897 34.5728 11.0097 34.4152C10.8844 34.3089 10.8088 34.2669 10.8114 34.2595C10.889 34.2965 10.9617 34.3421 11.0279 34.3954C11.2195 34.5484 11.3751 34.7378 11.4846 34.9512C11.6558 35.2907 11.745 35.662 11.7455 36.0382C11.7397 36.5304 11.6846 37.0209 11.5811 37.5032C11.3906 38.5828 11.1636 39.86 10.9131 41.2804C10.7853 41.9895 10.6522 42.7355 10.5139 43.5038C10.48 43.6965 10.4435 43.8917 10.4069 44.0893C10.3704 44.2869 10.3313 44.4796 10.3026 44.6773C10.2339 45.0767 10.2225 45.483 10.2686 45.8853C10.2769 45.9345 10.2882 45.9831 10.3026 46.0311C10.3128 46.0785 10.3304 46.1243 10.3547 46.1669C10.3977 46.2542 10.46 46.3317 10.5374 46.3942C10.6913 46.5375 10.8505 46.6734 11.0123 46.8018C11.3353 47.0565 11.6742 47.2924 12.0273 47.5084C12.3743 47.7233 12.724 47.916 13.071 48.0939L14.1147 48.5879L17.739 50.2975L17.7677 50.3123V50.3419C17.6503 51.4116 17.5564 52.2787 17.4911 52.8914C17.4546 53.1829 17.4285 53.4151 17.4076 53.5831C17.3972 53.6556 17.3894 53.7149 17.3842 53.761C17.3808 53.7795 17.3756 53.7977 17.3685 53.8153Z" fill="#FAFAFA"/>
<path d="M16.6981 49.8528C16.7058 50.0317 16.6909 50.2108 16.6537 50.3864C16.6093 50.7125 16.5363 51.1621 16.4397 51.6562C16.3432 52.1503 16.2336 52.5949 16.1449 52.9136C16.1091 53.0893 16.0485 53.2596 15.9648 53.4201C15.9739 53.2415 16.0028 53.0643 16.051 52.8914C16.1275 52.5192 16.2145 52.0992 16.3119 51.6315C16.4032 51.0318 16.5321 50.4379 16.6981 49.8528Z" fill="#FAFAFA"/>
<path d="M17.3684 53.8156C17.3249 53.8154 17.2818 53.8087 17.2405 53.7958L16.883 53.7143L15.5784 53.3882C14.4747 53.1066 12.9404 52.736 11.2966 52.1653C10.523 51.8975 9.76974 51.5797 9.04212 51.2142C8.4477 50.9148 7.88042 50.5694 7.34609 50.1816C6.98555 49.9203 6.64546 49.6346 6.32847 49.3268C6.21627 49.2181 6.13538 49.1317 6.06754 49.0798C6.03647 49.0506 6.0101 49.0173 5.98926 48.981C5.98926 48.981 6.11972 49.0971 6.35456 49.3021C6.68538 49.5937 7.03387 49.8667 7.39827 50.1198C7.93786 50.4873 8.50467 50.8175 9.09431 51.108C9.8201 51.465 10.5697 51.777 11.3383 52.0418C12.9717 52.61 14.5034 52.9929 15.5993 53.2992L16.9039 53.6624L17.2562 53.7686C17.2955 53.7796 17.3332 53.7954 17.3684 53.8156Z" fill="#FAFAFA"/>
<path d="M17.4578 50.6878C17.4594 50.732 17.447 50.7756 17.4223 50.8131C17.3975 50.8505 17.3616 50.8802 17.319 50.8982C17.2764 50.9162 17.2291 50.9218 17.1831 50.9143C17.1371 50.9068 17.0946 50.8865 17.0608 50.8559C17.0271 50.8254 17.0038 50.7861 16.9937 50.7429C16.9837 50.6998 16.9875 50.6548 17.0047 50.6137C17.0218 50.5726 17.0514 50.5372 17.0899 50.5122C17.1283 50.4871 17.1737 50.4734 17.2204 50.4729C17.2818 50.4722 17.341 50.4944 17.3854 50.5345C17.4298 50.5747 17.4558 50.6297 17.4578 50.6878Z" fill="#FAFAFA"/>
</svg>
