<svg width="100" height="100" viewBox="0 0 100 100" fill="none" xmlns="http://www.w3.org/2000/svg">
<path d="M100 87.8784H0V87.9455H100V87.8784Z" fill="#EBEBEB"/>
<path d="M89.9785 92.1973H83.3545V92.2644H89.9785V92.1973Z" fill="#EBEBEB"/>
<path d="M66.2448 92.9272H64.5068V92.9943H66.2448V92.9272Z" fill="#EBEBEB"/>
<path d="M83.1583 89.7065H79.3203V89.7736H83.1583V89.7065Z" fill="#EBEBEB"/>
<path d="M19.1292 90.1572H10.4912V90.2243H19.1292V90.1572Z" fill="#EBEBEB"/>
<path d="M22.1791 90.1572H20.9131V90.2243H22.1791V90.1572Z" fill="#EBEBEB"/>
<path d="M45.029 91.29H26.293V91.3571H45.029V91.29Z" fill="#EBEBEB"/>
<path d="M47.4006 75.9073H8.78258C8.48005 75.9066 8.19009 75.7448 7.97636 75.4575C7.76262 75.1701 7.64258 74.7807 7.64258 74.3747V1.51922C7.64521 1.11553 7.76642 0.729542 7.97987 0.445088C8.19332 0.160634 8.48177 0.000691537 8.78258 0H47.4006C47.7035 0 47.9939 0.161474 48.2081 0.4489C48.4223 0.736326 48.5426 1.12616 48.5426 1.53264V74.3747C48.5426 74.7812 48.4223 75.171 48.2081 75.4584C47.9939 75.7458 47.7035 75.9073 47.4006 75.9073ZM8.78258 0.0536829C8.49331 0.0543939 8.21607 0.209112 8.01171 0.483876C7.80735 0.758641 7.69258 1.131 7.69258 1.51922V74.3747C7.69258 74.7629 7.80735 75.1353 8.01171 75.41C8.21607 75.6848 8.49331 75.8395 8.78258 75.8402H47.4006C47.69 75.8395 47.9675 75.6849 48.1722 75.4102C48.3768 75.1355 48.4921 74.7631 48.4926 74.3747V1.51922C48.4921 1.13075 48.3768 0.7584 48.1722 0.483712C47.9675 0.209024 47.69 0.0543924 47.4006 0.0536829H8.78258Z" fill="#EBEBEB"/>
<path d="M90.6643 75.9073H52.0443C51.7416 75.9066 51.4515 75.7449 51.2374 75.4576C51.0234 75.1704 50.9029 74.7809 50.9023 74.3747V1.51922C50.9055 1.11529 51.0271 0.7293 51.2409 0.44492C51.4547 0.16054 51.7433 0.000683995 52.0443 0H90.6643C90.9648 0.00139696 91.2527 0.161652 91.4658 0.44603C91.6788 0.730408 91.7997 1.116 91.8023 1.51922V74.3747C91.8023 74.7802 91.6826 75.1693 91.4693 75.4565C91.256 75.7438 90.9665 75.9059 90.6643 75.9073ZM52.0443 0.0536829C51.7549 0.0543924 51.4774 0.209024 51.2728 0.483712C51.0681 0.7584 50.9529 1.13075 50.9523 1.51922V74.3747C50.9529 74.7631 51.0681 75.1355 51.2728 75.4102C51.4774 75.6849 51.7549 75.8395 52.0443 75.8402H90.6643C90.9538 75.8395 91.2312 75.6849 91.4359 75.4102C91.6406 75.1355 91.7558 74.7631 91.7563 74.3747V1.51922C91.7558 1.13075 91.6406 0.7584 91.4359 0.483712C91.2312 0.209024 90.9538 0.0543924 90.6643 0.0536829H52.0443Z" fill="#EBEBEB"/>
<path d="M47.3994 33.8496V38.563L49.1994 38.7911C49.4409 40.3444 49.8989 41.8225 50.5494 43.1475L49.3874 45.0264L51.8714 48.3601L53.2714 46.8006C54.2581 47.6727 55.3588 48.2865 56.5154 48.6097L56.6854 51.0254H60.2194L60.3894 48.6097C61.5467 48.2865 62.648 47.6727 63.6354 46.8006L65.0354 48.3601L67.5194 45.0264L66.3574 43.1475C67.0073 41.8223 67.4646 40.3443 67.7054 38.7911L69.5154 38.563V33.8496L67.7054 33.6188C67.4662 32.0642 67.0102 30.5844 66.3614 29.2571L67.5234 27.3782L65.0394 24.0472L63.6394 25.6067C62.6535 24.7357 61.5544 24.1211 60.3994 23.7949L60.2294 21.3792H56.7054L56.5354 23.7949C55.3789 24.1202 54.2784 24.7348 53.2914 25.6067L51.8914 24.0472L49.3994 27.3782L50.5614 29.2571C49.9115 30.5815 49.4535 32.0586 49.2114 33.6108L47.3994 33.8496ZM58.4554 29.8234C59.3961 29.8234 60.3156 30.1978 61.0977 30.8991C61.8798 31.6005 62.4894 32.5974 62.8494 33.7637C63.2094 34.93 63.3035 36.2134 63.12 37.4515C62.9365 38.6897 62.4836 39.827 61.8184 40.7197C61.1533 41.6123 60.3058 42.2202 59.3833 42.4665C58.4607 42.7128 57.5044 42.5864 56.6354 42.1033C55.7663 41.6202 55.0235 40.8021 54.5009 39.7524C53.9784 38.7028 53.6994 37.4687 53.6994 36.2063C53.6994 35.3672 53.8227 34.5363 54.0622 33.7612C54.3017 32.9861 54.6528 32.282 55.0952 31.6891C55.5377 31.0963 56.063 30.6264 56.6409 30.3062C57.2189 29.9861 57.8382 29.822 58.4634 29.8234H58.4554Z" fill="#F0F0F0"/>
<path d="M41.4743 54.9469L42.4743 56.0689L44.2603 53.672L43.4243 52.3299C43.8957 51.3758 44.2276 50.31 44.4023 49.1895L45.7023 49.0257V45.6303L44.4023 45.4666C44.2291 44.3505 43.9 43.2885 43.4323 42.3369L44.2683 40.9948L42.4823 38.5979L41.4823 39.7198C40.7727 39.0932 39.9816 38.6516 39.1503 38.418L39.0283 36.6733H36.4963L36.3743 38.418C35.5426 38.6532 34.7515 39.0967 34.0423 39.7252L33.0423 38.6032L31.2563 41.0002L32.0923 42.3422C31.6245 43.2939 31.2954 44.3558 31.1223 45.4719L29.8223 45.6357V49.023L31.1223 49.1868C31.2954 50.3029 31.6245 51.3648 32.0923 52.3165L31.2563 53.6585L33.0423 56.0555L34.0423 54.9335C34.7518 55.5601 35.5429 56.0018 36.3743 56.2353L36.4963 57.98H39.0203L39.1423 56.2353C39.9729 56.0059 40.764 55.5688 41.4743 54.9469ZM34.3423 47.332C34.3423 46.4247 34.5428 45.5377 34.9184 44.7833C35.2941 44.0288 35.828 43.4409 36.4527 43.0938C37.0774 42.7467 37.7647 42.656 38.4278 42.8332C39.0909 43.0104 39.6999 43.4476 40.1779 44.0894C40.6558 44.7312 40.9812 45.5488 41.1128 46.4388C41.2445 47.3288 41.1765 48.2512 40.9175 49.0893C40.6585 49.9275 40.2201 50.6437 39.6577 51.1474C39.0954 51.6512 38.4344 51.9197 37.7583 51.9192C37.3095 51.9192 36.8651 51.8005 36.4506 51.57C36.036 51.3394 35.6593 51.0015 35.3421 50.5755C35.0248 50.1495 34.7733 49.6438 34.6017 49.0873C34.4302 48.5307 34.342 47.9343 34.3423 47.332Z" fill="#F5F5F5"/>
<path d="M52.6907 77.8937C53.6806 77.6176 54.6226 77.092 55.4667 76.345L56.6667 77.6871L58.8007 74.8285L57.8007 73.218C58.3573 72.0852 58.7489 70.821 58.9547 69.4924L60.5027 69.2991V65.2729L58.9547 65.077C58.7499 63.7447 58.3582 62.4768 57.8007 61.3407L58.8007 59.7302L56.6687 56.877L55.4687 58.219C54.6241 57.4733 53.6823 56.9478 52.6927 56.6703L52.5467 54.5955H49.5467L49.4007 56.6622C48.411 56.9398 47.4693 57.4652 46.6247 58.211L45.4247 56.8689L43.2987 59.7222L44.2987 61.3326C43.743 62.4661 43.3515 63.7301 43.1447 65.0582L41.5967 65.2542V69.2804L43.1447 69.4736C43.3511 70.8019 43.7426 72.0659 44.2987 73.1992L43.2987 74.8097L45.4247 77.6602L46.6247 76.3182C47.4673 77.0747 48.4093 77.6093 49.4007 77.8937L49.5467 79.9713H52.5467L52.6907 77.8937ZM46.9747 67.278C46.9751 66.1983 47.214 65.143 47.6612 64.2456C48.1085 63.3481 48.7439 62.6488 49.4873 62.236C50.2307 61.8232 51.0485 61.7154 51.8375 61.9264C52.6265 62.1373 53.3512 62.6575 53.9199 63.4212C54.4886 64.1848 54.8759 65.1576 55.0327 66.2166C55.1895 67.2755 55.1088 68.3731 54.8008 69.3706C54.4929 70.368 53.9715 71.2205 53.3025 71.8203C52.6336 72.4201 51.8472 72.7402 51.0427 72.7402C50.5083 72.7402 49.9791 72.5989 49.4855 72.3244C48.9918 72.0498 48.5432 71.6475 48.1655 71.1402C47.7877 70.633 47.4881 70.0308 47.2838 69.3681C47.0794 68.7054 46.9744 67.9952 46.9747 67.278Z" fill="#FAFAFA"/>
<path d="M28.2913 29.0877L19.0908 27.4006L17.8338 39.7484L27.0343 41.4354L28.2913 29.0877Z" fill="#F5F5F5"/>
<path d="M20.4455 30.7862L20.3643 31.584L26.3546 32.6824L26.4358 31.8846L20.4455 30.7862Z" fill="#E0E0E0"/>
<path d="M20.1906 33.291L20.1094 34.0889L26.0997 35.1873L26.1809 34.3894L20.1906 33.291Z" fill="#E0E0E0"/>
<path d="M19.9289 35.8794L19.8477 36.6772L23.3749 37.324L23.4561 36.5262L19.9289 35.8794Z" fill="#E0E0E0"/>
<path d="M79.8064 15.371L70.5205 15.4146L70.5529 27.8769L79.8389 27.8334L79.8064 15.371Z" fill="#F0F0F0"/>
<path d="M78.2618 18.4683L72.2158 18.498L72.218 19.3033L78.264 19.2735L78.2618 18.4683Z" fill="#E0E0E0"/>
<path d="M78.2686 20.9966L72.2227 21.0264L72.2249 21.8316L78.2708 21.8019L78.2686 20.9966Z" fill="#E0E0E0"/>
<path d="M75.7904 23.6234L72.2305 23.6409L72.2327 24.4461L75.7926 24.4286L75.7904 23.6234Z" fill="#E0E0E0"/>
<path d="M85.3784 45.7643L76.166 47.3306L77.3331 59.6942L86.5454 58.1279L85.3784 45.7643Z" fill="#F5F5F5"/>
<path d="M84.1289 49.1045L78.1309 50.1243L78.2063 50.9231L84.2043 49.9033L84.1289 49.1045Z" fill="#E0E0E0"/>
<path d="M84.3653 51.6108L78.3672 52.6306L78.4426 53.4295L84.4407 52.4097L84.3653 51.6108Z" fill="#E0E0E0"/>
<path d="M82.1421 54.6224L78.6104 55.2229L78.6858 56.0218L82.2175 55.4213L82.1421 54.6224Z" fill="#E0E0E0"/>
<path d="M35.9832 65.8313L26.6973 65.8748L26.7297 78.3371L36.0156 78.2936L35.9832 65.8313Z" fill="#F0F0F0"/>
<path d="M34.4493 68.9383L28.4033 68.968L28.4055 69.7733L34.4515 69.7435L34.4493 68.9383Z" fill="#E0E0E0"/>
<path d="M34.4561 71.4668L28.4102 71.4966L28.4124 72.3018L34.4583 72.2721L34.4561 71.4668Z" fill="#E0E0E0"/>
<path d="M31.9779 74.0933L28.418 74.1108L28.4202 74.9161L31.9801 74.8986L31.9779 74.0933Z" fill="#E0E0E0"/>
<path d="M76.9939 71.9333L67.708 71.9768L67.7404 84.4392L77.0264 84.3957L76.9939 71.9333Z" fill="#F0F0F0"/>
<path d="M75.46 75.0308L69.4141 75.0605L69.4163 75.8658L75.4622 75.836L75.46 75.0308Z" fill="#E0E0E0"/>
<path d="M75.4717 77.5591L69.4258 77.5889L69.428 78.3941L75.4739 78.3644L75.4717 77.5591Z" fill="#E0E0E0"/>
<path d="M72.9887 80.1859L69.4287 80.2034L69.4309 81.0086L72.9909 80.9911L72.9887 80.1859Z" fill="#E0E0E0"/>
<path d="M37.865 14.5569L28.7998 17.2585L30.8128 29.4246L39.878 26.723L37.865 14.5569Z" fill="#F0F0F0"/>
<path d="M36.8485 18.044L30.9463 19.803L31.0764 20.5891L36.9786 18.8301L36.8485 18.044Z" fill="#E0E0E0"/>
<path d="M37.2596 20.5135L31.3574 22.2725L31.4875 23.0586L37.3897 21.2996L37.2596 20.5135Z" fill="#E0E0E0"/>
<path d="M35.2546 23.787L31.7793 24.8228L31.9094 25.6088L35.3847 24.5731L35.2546 23.787Z" fill="#E0E0E0"/>
<path d="M19.8472 28.7471H19.6812L19.4512 27.3245H20.0752L19.8472 28.7471Z" fill="#E0E0E0"/>
<path d="M19.7639 28.3955C20.2301 28.3955 20.6079 27.9954 20.6079 27.5017C20.6079 27.0081 20.2301 26.6079 19.7639 26.6079C19.2978 26.6079 18.9199 27.0081 18.9199 27.5017C18.9199 27.9954 19.2978 28.3955 19.7639 28.3955Z" fill="#E6E6E6"/>
<path d="M36.8149 16.3279H36.6489L36.4209 14.908H37.0449L36.8149 16.3279Z" fill="#E0E0E0"/>
<path d="M36.7317 15.979C37.199 15.979 37.5777 15.5789 37.5777 15.0852C37.5777 14.5916 37.199 14.1914 36.7317 14.1914C36.2645 14.1914 35.8857 14.5916 35.8857 15.0852C35.8857 15.5789 36.2645 15.979 36.7317 15.979Z" fill="#E6E6E6"/>
<path d="M75.0269 16.6846H74.8609L74.6309 15.2646H75.2549L75.0269 16.6846Z" fill="#E0E0E0"/>
<path d="M74.9436 16.3355C75.4097 16.3355 75.7876 15.9353 75.7876 15.4417C75.7876 14.948 75.4097 14.5479 74.9436 14.5479C74.4775 14.5479 74.0996 14.948 74.0996 15.4417C74.0996 15.9353 74.4775 16.3355 74.9436 16.3355Z" fill="#E6E6E6"/>
<path d="M84.519 47.5493H84.353L84.125 46.1294H84.749L84.519 47.5493Z" fill="#E0E0E0"/>
<path d="M84.4378 47.2005C84.9039 47.2005 85.2818 46.8003 85.2818 46.3067C85.2818 45.813 84.9039 45.4128 84.4378 45.4128C83.9716 45.4128 83.5938 45.813 83.5938 46.3067C83.5938 46.8003 83.9716 47.2005 84.4378 47.2005Z" fill="#E6E6E6"/>
<path d="M72.5171 73.3493H72.3491L72.1211 71.9268H72.7451L72.5171 73.3493Z" fill="#E0E0E0"/>
<path d="M72.4338 72.9978C72.9 72.9978 73.2778 72.5977 73.2778 72.104C73.2778 71.6104 72.9 71.2102 72.4338 71.2102C71.9677 71.2102 71.5898 71.6104 71.5898 72.104C71.5898 72.5977 71.9677 72.9978 72.4338 72.9978Z" fill="#E6E6E6"/>
<path d="M31.0961 66.9609H30.9301L30.7021 65.5383H31.3262L31.0961 66.9609Z" fill="#E0E0E0"/>
<path d="M31.0149 66.6094C31.481 66.6094 31.8589 66.2092 31.8589 65.7156C31.8589 65.2219 31.481 64.8218 31.0149 64.8218C30.5488 64.8218 30.1709 65.2219 30.1709 65.7156C30.1709 66.2092 30.5488 66.6094 31.0149 66.6094Z" fill="#E6E6E6"/>
<path d="M49.9997 100C71.4162 100 88.7777 98.6396 88.7777 96.9615C88.7777 95.2834 71.4162 93.9231 49.9997 93.9231C28.5832 93.9231 11.2217 95.2834 11.2217 96.9615C11.2217 98.6396 28.5832 100 49.9997 100Z" fill="#F5F5F5"/>
<path d="M28.7334 52.0288C28.7334 50.26 29.5994 48.8079 30.6654 48.8079C31.7314 48.8079 32.5974 50.2466 32.5974 52.0288C32.5974 53.8111 31.7314 55.2337 30.6654 55.2337C29.5994 55.2337 28.7334 53.7977 28.7334 52.0288ZM29.1334 52.0288C29.1334 53.4997 29.8214 54.6969 30.6654 54.6969C31.5094 54.6969 32.1974 53.4997 32.1974 52.0288C32.1974 50.5579 31.5114 49.3447 30.6654 49.3447C29.8194 49.3447 29.1334 50.5579 29.1334 52.0288Z" fill="#263238"/>
<path d="M24.9326 52.0288C24.9326 50.26 25.7986 48.8079 26.8646 48.8079C27.9306 48.8079 28.7966 50.2466 28.7966 52.0288C28.7966 53.8111 27.9306 55.2337 26.8646 55.2337C25.7986 55.2337 24.9326 53.7977 24.9326 52.0288ZM25.3326 52.0288C25.3326 53.4997 26.0186 54.6969 26.8646 54.6969C27.7106 54.6969 28.3966 53.4997 28.3966 52.0288C28.3966 50.5579 27.7086 49.3447 26.8646 49.3447C26.0206 49.3447 25.3326 50.5579 25.3326 52.0288Z" fill="#263238"/>
<path d="M21.127 52.0288C21.127 50.26 21.995 48.8079 23.061 48.8079C24.127 48.8079 24.993 50.2466 24.993 52.0288C24.993 53.8111 24.125 55.2337 23.061 55.2337C21.997 55.2337 21.127 53.7977 21.127 52.0288ZM21.527 52.0288C21.527 53.4997 22.215 54.6969 23.061 54.6969C23.907 54.6969 24.593 53.4997 24.593 52.0288C24.593 50.5579 23.905 49.3447 23.061 49.3447C22.217 49.3447 21.527 50.5579 21.527 52.0288Z" fill="#263238"/>
<path d="M17.3262 52.0288C17.3262 50.26 18.1942 48.8079 19.2602 48.8079C20.3262 48.8079 21.1922 50.2466 21.1922 52.0288C21.1922 53.8111 20.3242 55.2337 19.2602 55.2337C18.1962 55.2337 17.3262 53.7977 17.3262 52.0288ZM17.7262 52.0288C17.7262 53.4997 18.4142 54.6969 19.2602 54.6969C20.1062 54.6969 20.7922 53.4997 20.7922 52.0288C20.7922 50.5579 20.1042 49.3447 19.2602 49.3447C18.4162 49.3447 17.7262 50.5579 17.7262 52.0288Z" fill="#263238"/>
<path d="M32.5352 52.0288C32.5352 50.26 33.4012 48.8079 34.4672 48.8079C35.5332 48.8079 36.4012 50.2466 36.4012 52.0288C36.4012 53.8111 35.5332 55.2337 34.4672 55.2337C33.4012 55.2337 32.5352 53.7977 32.5352 52.0288ZM32.9352 52.0288C32.9352 53.4997 33.6232 54.6969 34.4672 54.6969C35.3112 54.6969 36.0012 53.4997 36.0012 52.0288C36.0012 50.5579 35.3132 49.3447 34.4672 49.3447C33.6212 49.3447 32.9352 50.5579 32.9352 52.0288Z" fill="#263238"/>
<path d="M14.8129 96.304H38.6289L38.6289 52.0909L14.8129 52.0909L14.8129 96.304Z" fill="#263238"/>
<path opacity="0.7" d="M14.8129 96.304H38.6289L38.6289 52.0909L14.8129 52.0909L14.8129 96.304Z" fill="white"/>
<path opacity="0.6" d="M16.9589 96.304H38.6289L38.6289 52.0909L16.9589 52.0909L16.9589 96.304Z" fill="white"/>
<path opacity="0.2" d="M15.5252 96.3039L15.4252 54.9844L15.3252 96.3039H15.5252Z" fill="#2E2E30"/>
<path opacity="0.2" d="M16.5223 96.3036L16.4223 57.5581L16.3223 96.3036H16.5223Z" fill="#2E2E30"/>
<path opacity="0.2" d="M15.8242 52.123L15.9242 83.1865L16.0242 52.123H15.8242Z" fill="#2E2E30"/>
<path d="M35.0444 54.1926C35.0649 54.3357 35.1154 54.4681 35.1898 54.5741C35.2643 54.6802 35.3597 54.7556 35.4649 54.7916C35.5701 54.8276 35.6808 54.8226 35.784 54.7773C35.8872 54.732 35.9787 54.6482 36.0477 54.5357C36.1167 54.4232 36.1605 54.2867 36.1738 54.1421C36.1872 53.9974 36.1696 53.8507 36.1231 53.719C36.0766 53.5873 36.0031 53.4761 35.9113 53.3984C35.8195 53.3206 35.713 53.2796 35.6044 53.28C35.4406 53.3031 35.29 53.4117 35.1852 53.5825C35.0805 53.7532 35.0299 53.9723 35.0444 54.1926Z" fill="#263238"/>
<path d="M35.6384 54.4633C35.667 54.463 35.6951 54.4544 35.721 54.4382C35.7469 54.422 35.7699 54.3985 35.7884 54.3694C36.1914 53.7102 36.4081 52.8814 36.4004 52.0288C36.4004 50.26 35.5324 48.8079 34.4664 48.8079C33.6824 48.8079 32.9804 49.5863 32.6804 50.7861C32.672 50.8196 32.6686 50.8549 32.6704 50.8902C32.6722 50.9254 32.6791 50.9599 32.6908 50.9915C32.7025 51.0232 32.7187 51.0514 32.7386 51.0747C32.7584 51.0979 32.7815 51.1157 32.8064 51.127C32.8314 51.1382 32.8577 51.1428 32.884 51.1404C32.9103 51.138 32.9359 51.1287 32.9595 51.113C32.9831 51.0973 33.0041 51.0755 33.0215 51.0489C33.0388 51.0223 33.052 50.9913 33.0604 50.9579C33.3044 49.9781 33.8604 49.3474 34.4604 49.3474C35.3064 49.3474 35.9944 50.5472 35.9944 52.0315C36.0029 52.755 35.8209 53.4594 35.4804 54.0205C35.4549 54.0594 35.4384 54.1074 35.4328 54.1586C35.4272 54.2099 35.4327 54.2622 35.4488 54.3093C35.4649 54.3565 35.4908 54.3963 35.5233 54.4241C35.5559 54.4519 35.5938 54.4665 35.6324 54.466L35.6384 54.4633Z" fill="#263238"/>
<g opacity="0.4">
<path opacity="0.4" d="M35.6384 54.4633C35.667 54.463 35.6951 54.4544 35.721 54.4382C35.7469 54.422 35.7699 54.3985 35.7884 54.3694C36.1914 53.7102 36.4081 52.8814 36.4004 52.0288C36.4004 50.26 35.5324 48.8079 34.4664 48.8079C33.6824 48.8079 32.9804 49.5863 32.6804 50.7861C32.672 50.8196 32.6686 50.8549 32.6704 50.8902C32.6722 50.9254 32.6791 50.9599 32.6908 50.9915C32.7025 51.0232 32.7187 51.0514 32.7386 51.0747C32.7584 51.0979 32.7815 51.1157 32.8064 51.127C32.8314 51.1382 32.8577 51.1428 32.884 51.1404C32.9103 51.138 32.9359 51.1287 32.9595 51.113C32.9831 51.0973 33.0041 51.0755 33.0215 51.0489C33.0388 51.0223 33.052 50.9913 33.0604 50.9579C33.3044 49.9781 33.8604 49.3474 34.4604 49.3474C35.3064 49.3474 35.9944 50.5472 35.9944 52.0315C36.0029 52.755 35.8209 53.4594 35.4804 54.0205C35.4549 54.0594 35.4384 54.1074 35.4328 54.1586C35.4272 54.2099 35.4327 54.2622 35.4488 54.3093C35.4649 54.3565 35.4908 54.3963 35.5233 54.4241C35.5559 54.4519 35.5938 54.4665 35.6324 54.466L35.6384 54.4633Z" fill="white"/>
</g>
<path d="M31.2427 54.1926C31.2635 54.3348 31.314 54.4662 31.3884 54.5714C31.4627 54.6765 31.5577 54.7512 31.6624 54.7867C31.7671 54.8222 31.8772 54.817 31.9798 54.7718C32.0824 54.7266 32.1733 54.6432 32.242 54.5313C32.3106 54.4194 32.3542 54.2837 32.3676 54.1399C32.381 53.996 32.3636 53.8501 32.3176 53.719C32.2716 53.5878 32.1987 53.477 32.1076 53.3993C32.0164 53.3216 31.9107 53.2802 31.8027 53.28C31.6388 53.3031 31.4882 53.4117 31.3835 53.5825C31.2787 53.7532 31.2281 53.9723 31.2427 54.1926Z" fill="#263238"/>
<path d="M31.8356 54.4633C31.8645 54.4633 31.8931 54.4549 31.9193 54.4387C31.9455 54.4225 31.9689 54.3988 31.9876 54.3694C32.39 53.71 32.6061 52.8811 32.5976 52.0288C32.5976 50.26 31.7316 48.8079 30.6656 48.8079C29.8796 48.8079 29.1796 49.5863 28.8796 50.7861C28.8627 50.8537 28.8664 50.9276 28.89 50.9915C28.9137 51.0555 28.9552 51.1042 29.0056 51.127C29.056 51.1497 29.1111 51.1447 29.1587 51.113C29.2064 51.0813 29.2427 51.0255 29.2596 50.9579C29.5036 49.9781 30.0596 49.3474 30.6596 49.3474C31.5056 49.3474 32.1916 50.5472 32.1916 52.0315C32.2008 52.7547 32.0195 53.4591 31.6796 54.0205C31.6543 54.0592 31.6378 54.1069 31.6321 54.158C31.6264 54.209 31.6318 54.2611 31.6476 54.3081C31.6634 54.3551 31.689 54.395 31.7213 54.423C31.7536 54.451 31.7912 54.466 31.8296 54.466L31.8356 54.4633Z" fill="#263238"/>
<g opacity="0.4">
<path opacity="0.4" d="M31.8347 54.4633C31.8635 54.4633 31.8921 54.4549 31.9183 54.4387C31.9446 54.4225 31.9679 54.3988 31.9867 54.3694C32.3891 53.71 32.6051 52.8811 32.5967 52.0288C32.5967 50.26 31.7307 48.8079 30.6647 48.8079C29.8787 48.8079 29.1787 49.5863 28.8787 50.7861C28.8617 50.8537 28.8654 50.9276 28.8891 50.9915C28.9127 51.0555 28.9543 51.1042 29.0047 51.127C29.055 51.1497 29.1101 51.1447 29.1577 51.113C29.2054 51.0813 29.2417 51.0255 29.2587 50.9579C29.5027 49.9781 30.0587 49.3474 30.6587 49.3474C31.5047 49.3474 32.1907 50.5472 32.1907 52.0315C32.1999 52.7547 32.0185 53.4591 31.6787 54.0205C31.6533 54.0592 31.6368 54.1069 31.6311 54.158C31.6254 54.209 31.6308 54.2611 31.6466 54.3081C31.6625 54.3551 31.6881 54.395 31.7203 54.423C31.7526 54.451 31.7902 54.466 31.8287 54.466L31.8347 54.4633Z" fill="white"/>
</g>
<path d="M27.4378 54.1926C27.4583 54.3356 27.5087 54.4678 27.583 54.5739C27.6574 54.6799 27.7527 54.7553 27.8578 54.7914C27.9629 54.8275 28.0735 54.8227 28.1767 54.7776C28.2798 54.7325 28.3713 54.649 28.4404 54.5367C28.5096 54.4245 28.5535 54.2882 28.567 54.1437C28.5806 53.9993 28.5633 53.8526 28.5171 53.7208C28.4709 53.5891 28.3977 53.4777 28.3061 53.3996C28.2146 53.3216 28.1083 53.2801 27.9998 53.28C27.8358 53.3031 27.685 53.4116 27.5799 53.5823C27.4749 53.7529 27.4238 53.9721 27.4378 54.1926Z" fill="#263238"/>
<path d="M28.0323 54.4633C28.0612 54.4633 28.0897 54.4549 28.116 54.4387C28.1422 54.4225 28.1655 54.3988 28.1843 54.3694C28.5831 53.7081 28.7955 52.8794 28.7843 52.0288C28.7843 50.26 27.9183 48.8079 26.8523 48.8079C26.0663 48.8079 25.3663 49.5863 25.0663 50.7861C25.0578 50.8196 25.0544 50.8549 25.0561 50.8902C25.0579 50.9255 25.0648 50.96 25.0765 50.9917C25.0882 51.0233 25.1045 51.0516 25.1243 51.0748C25.1442 51.098 25.1673 51.1157 25.1923 51.127C25.2172 51.1383 25.2436 51.143 25.2699 51.1406C25.2962 51.1383 25.3219 51.129 25.3455 51.1132C25.3691 51.0975 25.3901 51.0757 25.4074 51.049C25.4247 51.0224 25.4379 50.9914 25.4463 50.9579C25.6903 49.9781 26.2463 49.3474 26.8463 49.3474C27.6903 49.3474 28.3783 50.5472 28.3783 52.0315C28.3878 52.7552 28.2057 53.46 27.8643 54.0205C27.8388 54.0594 27.8223 54.1074 27.8167 54.1586C27.811 54.2099 27.8166 54.2622 27.8327 54.3093C27.8488 54.3565 27.8746 54.3963 27.9072 54.4241C27.9398 54.4519 27.9777 54.4665 28.0163 54.466L28.0323 54.4633Z" fill="#263238"/>
<g opacity="0.4">
<path opacity="0.4" d="M28.0323 54.4633C28.0612 54.4633 28.0897 54.4549 28.116 54.4387C28.1422 54.4225 28.1655 54.3988 28.1843 54.3694C28.5831 53.7081 28.7955 52.8794 28.7843 52.0288C28.7843 50.26 27.9183 48.8079 26.8523 48.8079C26.0663 48.8079 25.3663 49.5863 25.0663 50.7861C25.0578 50.8196 25.0544 50.8549 25.0561 50.8902C25.0579 50.9255 25.0648 50.96 25.0765 50.9917C25.0882 51.0233 25.1045 51.0516 25.1243 51.0748C25.1442 51.098 25.1673 51.1157 25.1923 51.127C25.2172 51.1383 25.2436 51.143 25.2699 51.1406C25.2962 51.1383 25.3219 51.129 25.3455 51.1132C25.3691 51.0975 25.3901 51.0757 25.4074 51.049C25.4247 51.0224 25.4379 50.9914 25.4463 50.9579C25.6903 49.9781 26.2463 49.3474 26.8463 49.3474C27.6903 49.3474 28.3783 50.5472 28.3783 52.0315C28.3878 52.7552 28.2057 53.46 27.8643 54.0205C27.8388 54.0594 27.8223 54.1074 27.8167 54.1586C27.811 54.2099 27.8166 54.2622 27.8327 54.3093C27.8488 54.3565 27.8746 54.3963 27.9072 54.4241C27.9398 54.4519 27.9777 54.4665 28.0163 54.466L28.0323 54.4633Z" fill="white"/>
</g>
<path d="M23.6361 54.1926C23.6565 54.3356 23.7069 54.4678 23.7813 54.5739C23.8556 54.6799 23.9509 54.7553 24.0561 54.7914C24.1612 54.8275 24.2718 54.8227 24.3749 54.7776C24.4781 54.7325 24.5696 54.649 24.6387 54.5367C24.7078 54.4245 24.7517 54.2882 24.7653 54.1437C24.7789 53.9993 24.7615 53.8526 24.7153 53.7208C24.6691 53.5891 24.596 53.4777 24.5044 53.3996C24.4128 53.3216 24.3066 53.2801 24.1981 53.28C24.034 53.3031 23.8833 53.4116 23.7782 53.5823C23.6731 53.7529 23.6221 53.9721 23.6361 54.1926Z" fill="#263238"/>
<path d="M24.2323 54.4633C24.2612 54.4633 24.2897 54.4549 24.316 54.4387C24.3422 54.4225 24.3655 54.3988 24.3843 54.3694C24.7831 53.7081 24.9956 52.8794 24.9843 52.0288C24.9843 50.26 24.1163 48.8079 23.0523 48.8079C22.2663 48.8079 21.5663 49.5863 21.2663 50.7861C21.2558 50.82 21.2506 50.8565 21.251 50.8933C21.2514 50.9301 21.2575 50.9663 21.2688 50.9998C21.2801 51.0333 21.2964 51.0634 21.3167 51.0881C21.337 51.1128 21.3609 51.1316 21.3868 51.1434C21.4128 51.1552 21.4403 51.1597 21.4676 51.1566C21.4949 51.1536 21.5214 51.143 21.5456 51.1256C21.5697 51.1082 21.591 51.0844 21.6079 51.0555C21.6249 51.0266 21.6373 50.9934 21.6443 50.9579C21.8883 49.9781 22.4443 49.3474 23.0443 49.3474C23.8883 49.3474 24.5763 50.5472 24.5763 52.0315C24.5848 52.755 24.4028 53.4594 24.0623 54.0205C24.0368 54.0594 24.0203 54.1074 24.0147 54.1586C24.0091 54.2099 24.0146 54.2622 24.0307 54.3093C24.0468 54.3565 24.0727 54.3963 24.1053 54.4241C24.1378 54.4519 24.1757 54.4665 24.2143 54.466L24.2323 54.4633Z" fill="#263238"/>
<g opacity="0.4">
<path opacity="0.4" d="M24.2284 54.4633C24.2573 54.4633 24.2858 54.4549 24.3121 54.4387C24.3383 54.4225 24.3616 54.3988 24.3804 54.3694C24.7792 53.7081 24.9917 52.8794 24.9804 52.0288C24.9804 50.26 24.1124 48.8079 23.0484 48.8079C22.2624 48.8079 21.5624 49.5863 21.2624 50.7861C21.2519 50.82 21.2467 50.8565 21.2471 50.8933C21.2475 50.9301 21.2536 50.9663 21.2649 50.9998C21.2762 51.0333 21.2925 51.0634 21.3128 51.0881C21.3331 51.1128 21.357 51.1316 21.3829 51.1434C21.4089 51.1552 21.4364 51.1597 21.4637 51.1566C21.491 51.1536 21.5175 51.143 21.5417 51.1256C21.5658 51.1082 21.587 51.0844 21.604 51.0555C21.621 51.0266 21.6334 50.9934 21.6404 50.9579C21.8844 49.9781 22.4404 49.3474 23.0404 49.3474C23.8844 49.3474 24.5724 50.5472 24.5724 52.0315C24.5809 52.755 24.3989 53.4594 24.0584 54.0205C24.0329 54.0594 24.0164 54.1074 24.0108 54.1586C24.0052 54.2099 24.0107 54.2622 24.0268 54.3093C24.0429 54.3565 24.0688 54.3963 24.1013 54.4241C24.1339 54.4519 24.1718 54.4665 24.2104 54.466L24.2284 54.4633Z" fill="white"/>
</g>
<path d="M19.833 54.1926C19.833 54.6973 20.085 55.1052 20.393 55.1052C20.5515 55.0651 20.6945 54.952 20.7975 54.7853C20.9004 54.6187 20.9567 54.4091 20.9567 54.1926C20.9567 53.9762 20.9004 53.7666 20.7975 53.5999C20.6945 53.4333 20.5515 53.3202 20.393 53.28C20.085 53.28 19.833 53.6826 19.833 54.1926Z" fill="#263238"/>
<path d="M20.4276 54.4633C20.4565 54.4633 20.4851 54.4549 20.5113 54.4387C20.5375 54.4225 20.5609 54.3988 20.5796 54.3694C20.9777 53.7076 21.19 52.8792 21.1796 52.0288C21.1796 50.26 20.3116 48.8079 19.2476 48.8079C18.4616 48.8079 17.7596 49.5863 17.4616 50.7861C17.4511 50.82 17.4459 50.8565 17.4463 50.8933C17.4467 50.9301 17.4528 50.9663 17.4641 50.9998C17.4754 51.0333 17.4917 51.0634 17.512 51.0881C17.5323 51.1128 17.5562 51.1316 17.5821 51.1434C17.6081 51.1552 17.6356 51.1597 17.6629 51.1566C17.6902 51.1536 17.7168 51.143 17.7409 51.1256C17.765 51.1082 17.7863 51.0844 17.8032 51.0555C17.8202 51.0266 17.8326 50.9934 17.8396 50.9579C18.0836 49.9781 18.6396 49.3474 19.2396 49.3474C20.0836 49.3474 20.7716 50.5472 20.7716 52.0315C20.7801 52.755 20.5981 53.4594 20.2576 54.0205C20.2401 54.0471 20.2268 54.0782 20.2183 54.1119C20.2098 54.1456 20.2064 54.1812 20.2083 54.2166C20.2101 54.2521 20.2172 54.2867 20.2291 54.3185C20.241 54.3502 20.2575 54.3785 20.2776 54.4016C20.2982 54.4249 20.3222 54.4424 20.3479 54.453C20.3737 54.4636 20.4008 54.4671 20.4276 54.4633Z" fill="#263238"/>
<g opacity="0.4">
<path opacity="0.4" d="M20.4276 54.4633C20.4565 54.4633 20.4851 54.4549 20.5113 54.4387C20.5375 54.4225 20.5609 54.3988 20.5796 54.3694C20.9777 53.7076 21.19 52.8792 21.1796 52.0288C21.1796 50.26 20.3116 48.8079 19.2476 48.8079C18.4616 48.8079 17.7596 49.5863 17.4616 50.7861C17.4511 50.82 17.4459 50.8565 17.4463 50.8933C17.4467 50.9301 17.4528 50.9663 17.4641 50.9998C17.4754 51.0333 17.4917 51.0634 17.512 51.0881C17.5323 51.1128 17.5562 51.1316 17.5821 51.1434C17.6081 51.1552 17.6356 51.1597 17.6629 51.1566C17.6902 51.1536 17.7168 51.143 17.7409 51.1256C17.765 51.1082 17.7863 51.0844 17.8032 51.0555C17.8202 51.0266 17.8326 50.9934 17.8396 50.9579C18.0836 49.9781 18.6396 49.3474 19.2396 49.3474C20.0836 49.3474 20.7716 50.5472 20.7716 52.0315C20.7801 52.755 20.5981 53.4594 20.2576 54.0205C20.2401 54.0471 20.2268 54.0782 20.2183 54.1119C20.2098 54.1456 20.2064 54.1812 20.2083 54.2166C20.2101 54.2521 20.2172 54.2867 20.2291 54.3185C20.241 54.3502 20.2575 54.3785 20.2776 54.4016C20.2982 54.4249 20.3222 54.4424 20.3479 54.453C20.3737 54.4636 20.4008 54.4671 20.4276 54.4633Z" fill="white"/>
</g>
<path d="M23.2151 72.4309H21.5391V76.2665H23.2151V72.4309Z" fill="#407BFF"/>
<path d="M25.9289 69.6399H24.2529V76.267H25.9289V69.6399Z" fill="#407BFF"/>
<path d="M28.6457 70.6865H26.9697V76.2668H28.6457V70.6865Z" fill="#407BFF"/>
<path d="M31.3635 67.8948H29.6875V76.2666H31.3635V67.8948Z" fill="#407BFF"/>
<path d="M34.0774 65.1033H32.4014V76.2666H34.0774V65.1033Z" fill="#407BFF"/>
<path opacity="0.5" d="M23.2151 72.4309H21.5391V76.2665H23.2151V72.4309Z" fill="white"/>
<path opacity="0.5" d="M25.9289 69.6399H24.2529V76.267H25.9289V69.6399Z" fill="white"/>
<path opacity="0.5" d="M28.6457 70.6865H26.9697V76.2668H28.6457V70.6865Z" fill="white"/>
<path opacity="0.5" d="M31.3635 67.8948H29.6875V76.2666H31.3635V67.8948Z" fill="white"/>
<path opacity="0.5" d="M34.0774 65.1033H32.4014V76.2666H34.0774V65.1033Z" fill="white"/>
<path d="M36.3103 75.7354H19.2363V76.7983H36.3103V75.7354Z" fill="#263238"/>
<path d="M19.9569 73.2204L19.5889 72.5976L25.0649 66.7489L27.7749 68.8586L35.0909 60.4895L35.4749 61.0934L27.8409 69.8303L25.1189 67.7098L19.9569 73.2204Z" fill="#407BFF"/>
<path d="M35.7214 60.2991L34.6094 60.5299L35.3934 61.6519L35.7214 60.2991Z" fill="#407BFF"/>
<g opacity="0.3">
<path opacity="0.3" d="M28.9206 80.2553H19.2586C19.2056 80.2553 19.1547 80.227 19.1172 80.1767C19.0797 80.1264 19.0586 80.0581 19.0586 79.9869C19.0586 79.9157 19.0797 79.8475 19.1172 79.7971C19.1547 79.7468 19.2056 79.7185 19.2586 79.7185H28.9206C28.9736 79.7185 29.0245 79.7468 29.062 79.7971C29.0995 79.8475 29.1206 79.9157 29.1206 79.9869C29.1206 80.0581 29.0995 80.1264 29.062 80.1767C29.0245 80.227 28.9736 80.2553 28.9206 80.2553Z" fill="#2E2E30"/>
</g>
<g opacity="0.3">
<path opacity="0.3" d="M36.3835 82.6467H20.6375C20.5845 82.6467 20.5336 82.6184 20.4961 82.5681C20.4586 82.5177 20.4375 82.4495 20.4375 82.3783C20.4375 82.3071 20.4586 82.2388 20.4961 82.1885C20.5336 82.1381 20.5845 82.1099 20.6375 82.1099H36.3835C36.4365 82.1099 36.4874 82.1381 36.5249 82.1885C36.5624 82.2388 36.5835 82.3071 36.5835 82.3783C36.5835 82.4495 36.5624 82.5177 36.5249 82.5681C36.4874 82.6184 36.4365 82.6467 36.3835 82.6467Z" fill="#2E2E30"/>
<path opacity="0.3" d="M36.4006 83.9919H19.2586C19.2056 83.9919 19.1547 83.9636 19.1172 83.9133C19.0797 83.8629 19.0586 83.7947 19.0586 83.7235C19.0586 83.6523 19.0797 83.584 19.1172 83.5337C19.1547 83.4834 19.2056 83.4551 19.2586 83.4551H36.4006C36.4536 83.4551 36.5045 83.4834 36.542 83.5337C36.5795 83.584 36.6006 83.6523 36.6006 83.7235C36.6006 83.7947 36.5795 83.8629 36.542 83.9133C36.5045 83.9636 36.4536 83.9919 36.4006 83.9919Z" fill="#2E2E30"/>
<path opacity="0.3" d="M36.4281 85.3364H19.2801C19.227 85.3364 19.1762 85.3081 19.1387 85.2578C19.1011 85.2074 19.0801 85.1392 19.0801 85.068C19.0801 84.9968 19.1011 84.9285 19.1387 84.8782C19.1762 84.8278 19.227 84.7996 19.2801 84.7996H36.4281C36.4811 84.7996 36.532 84.8278 36.5695 84.8782C36.607 84.9285 36.6281 84.9968 36.6281 85.068C36.6281 85.1392 36.607 85.2074 36.5695 85.2578C36.532 85.3081 36.4811 85.3364 36.4281 85.3364Z" fill="#2E2E30"/>
<path opacity="0.3" d="M33.6485 86.6811H19.3025C19.2495 86.6811 19.1986 86.6528 19.1611 86.6025C19.1236 86.5522 19.1025 86.4839 19.1025 86.4127C19.1025 86.3415 19.1236 86.2732 19.1611 86.2229C19.1986 86.1726 19.2495 86.1443 19.3025 86.1443H33.6485C33.7016 86.1443 33.7525 86.1726 33.79 86.2229C33.8275 86.2732 33.8485 86.3415 33.8485 86.4127C33.8485 86.4839 33.8275 86.5522 33.79 86.6025C33.7525 86.6528 33.7016 86.6811 33.6485 86.6811Z" fill="#2E2E30"/>
</g>
<g opacity="0.3">
<path opacity="0.3" d="M36.3835 89.0944H20.6375C20.5845 89.0944 20.5336 89.0662 20.4961 89.0158C20.4586 88.9655 20.4375 88.8972 20.4375 88.826C20.4375 88.7548 20.4586 88.6866 20.4961 88.6362C20.5336 88.5859 20.5845 88.5576 20.6375 88.5576H36.3835C36.4365 88.5576 36.4874 88.5859 36.5249 88.6362C36.5624 88.6866 36.5835 88.7548 36.5835 88.826C36.5835 88.8972 36.5624 88.9655 36.5249 89.0158C36.4874 89.0662 36.4365 89.0944 36.3835 89.0944Z" fill="#2E2E30"/>
<path opacity="0.3" d="M36.4006 90.4389H19.2586C19.2056 90.4389 19.1547 90.4106 19.1172 90.3603C19.0797 90.31 19.0586 90.2417 19.0586 90.1705C19.0586 90.0993 19.0797 90.031 19.1172 89.9807C19.1547 89.9304 19.2056 89.9021 19.2586 89.9021H36.4006C36.4536 89.9021 36.5045 89.9304 36.542 89.9807C36.5795 90.031 36.6006 90.0993 36.6006 90.1705C36.6006 90.2417 36.5795 90.31 36.542 90.3603C36.5045 90.4106 36.4536 90.4389 36.4006 90.4389Z" fill="#2E2E30"/>
<path opacity="0.3" d="M36.4281 91.7971H19.2801C19.227 91.7971 19.1762 91.7688 19.1387 91.7185C19.1011 91.6681 19.0801 91.5999 19.0801 91.5287C19.0801 91.4575 19.1011 91.3892 19.1387 91.3389C19.1762 91.2885 19.227 91.2603 19.2801 91.2603H36.4281C36.4811 91.2603 36.532 91.2885 36.5695 91.3389C36.607 91.3892 36.6281 91.4575 36.6281 91.5287C36.6281 91.5999 36.607 91.6681 36.5695 91.7185C36.532 91.7688 36.4811 91.7971 36.4281 91.7971Z" fill="#2E2E30"/>
<path opacity="0.3" d="M33.6485 93.1391H19.3025C19.2495 93.1391 19.1986 93.1108 19.1611 93.0605C19.1236 93.0102 19.1025 92.9419 19.1025 92.8707C19.1025 92.7995 19.1236 92.7313 19.1611 92.6809C19.1986 92.6306 19.2495 92.6023 19.3025 92.6023H33.6485C33.7016 92.6023 33.7525 92.6306 33.79 92.6809C33.8275 92.7313 33.8485 92.7995 33.8485 92.8707C33.8485 92.9419 33.8275 93.0102 33.79 93.0605C33.7525 93.1108 33.7016 93.1391 33.6485 93.1391Z" fill="#2E2E30"/>
</g>
<g opacity="0.3">
<path opacity="0.3" d="M28.9206 57.9555H19.2586C19.2056 57.9555 19.1547 57.9272 19.1172 57.8769C19.0797 57.8266 19.0586 57.7583 19.0586 57.6871C19.0586 57.6159 19.0797 57.5477 19.1172 57.4973C19.1547 57.447 19.2056 57.4187 19.2586 57.4187H28.9206C28.9736 57.4187 29.0245 57.447 29.062 57.4973C29.0995 57.5477 29.1206 57.6159 29.1206 57.6871C29.1206 57.7583 29.0995 57.8266 29.062 57.8769C29.0245 57.9272 28.9736 57.9555 28.9206 57.9555Z" fill="#2E2E30"/>
</g>
<path d="M82.0896 31.2007H59.1236C58.7415 31.2007 58.4316 31.6165 58.4316 32.1294V83.0474C58.4316 83.5603 58.7415 83.9761 59.1236 83.9761H82.0896C82.4718 83.9761 82.7816 83.5603 82.7816 83.0474V32.1294C82.7816 31.6165 82.4718 31.2007 82.0896 31.2007Z" fill="#407BFF"/>
<path d="M64.1671 30.948H77.0431C77.0771 30.948 77.1096 30.9661 77.1336 30.9983C77.1576 31.0306 77.1711 31.0742 77.1711 31.1198V32.8484H64.0371V31.1198C64.0371 31.097 64.0405 31.0745 64.047 31.0534C64.0536 31.0324 64.0632 31.0134 64.0753 30.9974C64.0874 30.9814 64.1017 30.9688 64.1175 30.9603C64.1333 30.9518 64.1501 30.9477 64.1671 30.948Z" fill="#263238"/>
<path opacity="0.9" d="M81.8195 32.8486H59.3955V82.3199H81.8195V32.8486Z" fill="white"/>
<path d="M75.0028 35.1246H71.0608L71.0148 34.9394C70.9869 34.8247 70.9327 34.7248 70.86 34.654C70.7872 34.5831 70.6996 34.545 70.6098 34.545C70.5199 34.545 70.4323 34.5831 70.3596 34.654C70.2868 34.7248 70.2326 34.8247 70.2048 34.9394L70.1588 35.1246H66.2128C66.0598 35.1246 65.9131 35.0433 65.8048 34.8984C65.6964 34.7535 65.6353 34.5569 65.6348 34.3516V32.4029C65.6358 32.1979 65.6971 32.0017 65.8053 31.8569C65.9136 31.7122 66.06 31.6306 66.2128 31.6299H75.0128C75.1654 31.6306 75.3116 31.7123 75.4195 31.8571C75.5274 32.0019 75.5882 32.1981 75.5888 32.4029V34.357C75.5882 34.4592 75.5726 34.5602 75.5428 34.6543C75.513 34.7483 75.4696 34.8335 75.4151 34.9049C75.3606 34.9763 75.2961 35.0325 75.2253 35.0702C75.1546 35.1079 75.0789 35.1264 75.0028 35.1246ZM71.3348 34.5878H75.0028C75.026 34.5882 75.049 34.5823 75.0704 34.5706C75.0919 34.5588 75.1114 34.5414 75.1278 34.5194C75.1442 34.4974 75.1572 34.4712 75.1659 34.4424C75.1747 34.4136 75.179 34.3827 75.1788 34.3516V32.4029C75.1788 32.3403 75.1602 32.2802 75.1272 32.2359C75.0942 32.1916 75.0494 32.1667 75.0028 32.1667H66.2028C66.1795 32.1664 66.1564 32.1722 66.1348 32.1839C66.1132 32.1956 66.0936 32.213 66.077 32.2349C66.0605 32.2569 66.0473 32.2831 66.0383 32.3119C66.0294 32.3407 66.0248 32.3717 66.0248 32.4029V34.357C66.0248 34.3882 66.0294 34.4191 66.0383 34.448C66.0473 34.4768 66.0605 34.503 66.077 34.5249C66.0936 34.5469 66.1132 34.5643 66.1348 34.576C66.1564 34.5877 66.1795 34.5935 66.2028 34.5932H69.8828C69.9535 34.4171 70.0585 34.27 70.1864 34.1675C70.3144 34.065 70.4607 34.0109 70.6098 34.0109C70.7588 34.0109 70.9051 34.065 71.0331 34.1675C71.1611 34.27 71.266 34.4171 71.3368 34.5932L71.3348 34.5878Z" fill="#263238"/>
<g opacity="0.5">
<path opacity="0.5" d="M75.0028 35.1246H71.0608L71.0148 34.9394C70.9869 34.8247 70.9327 34.7248 70.86 34.654C70.7872 34.5831 70.6996 34.545 70.6098 34.545C70.5199 34.545 70.4323 34.5831 70.3596 34.654C70.2868 34.7248 70.2326 34.8247 70.2048 34.9394L70.1588 35.1246H66.2128C66.0598 35.1246 65.9131 35.0433 65.8048 34.8984C65.6964 34.7535 65.6353 34.5569 65.6348 34.3516V32.4029C65.6358 32.1979 65.6971 32.0017 65.8053 31.8569C65.9136 31.7122 66.06 31.6306 66.2128 31.6299H75.0128C75.1654 31.6306 75.3116 31.7123 75.4195 31.8571C75.5274 32.0019 75.5882 32.1981 75.5888 32.4029V34.357C75.5882 34.4592 75.5726 34.5602 75.5428 34.6543C75.513 34.7483 75.4696 34.8335 75.4151 34.9049C75.3606 34.9763 75.2961 35.0325 75.2253 35.0702C75.1546 35.1079 75.0789 35.1264 75.0028 35.1246ZM71.3348 34.5878H75.0028C75.026 34.5882 75.049 34.5823 75.0704 34.5706C75.0919 34.5588 75.1114 34.5414 75.1278 34.5194C75.1442 34.4974 75.1572 34.4712 75.1659 34.4424C75.1747 34.4136 75.179 34.3827 75.1788 34.3516V32.4029C75.1788 32.3403 75.1602 32.2802 75.1272 32.2359C75.0942 32.1916 75.0494 32.1667 75.0028 32.1667H66.2028C66.1795 32.1664 66.1564 32.1722 66.1348 32.1839C66.1132 32.1956 66.0936 32.213 66.077 32.2349C66.0605 32.2569 66.0473 32.2831 66.0383 32.3119C66.0294 32.3407 66.0248 32.3717 66.0248 32.4029V34.357C66.0248 34.3882 66.0294 34.4191 66.0383 34.448C66.0473 34.4768 66.0605 34.503 66.077 34.5249C66.0936 34.5469 66.1132 34.5643 66.1348 34.576C66.1564 34.5877 66.1795 34.5935 66.2028 34.5932H69.8828C69.9535 34.4171 70.0585 34.27 70.1864 34.1675C70.3144 34.065 70.4607 34.0109 70.6098 34.0109C70.7588 34.0109 70.9051 34.065 71.0331 34.1675C71.1611 34.27 71.266 34.4171 71.3368 34.5932L71.3348 34.5878Z" fill="white"/>
</g>
<path d="M74.3849 31.3184H66.8289C66.7195 31.3184 66.6309 31.4373 66.6309 31.5841V32.2202C66.6309 32.367 66.7195 32.486 66.8289 32.486H74.3849C74.4942 32.486 74.5829 32.367 74.5829 32.2202V31.5841C74.5829 31.4373 74.4942 31.3184 74.3849 31.3184Z" fill="#263238"/>
<path opacity="0.2" d="M74.3849 31.3184H66.8289C66.7195 31.3184 66.6309 31.4373 66.6309 31.5841V32.2202C66.6309 32.367 66.7195 32.486 66.8289 32.486H74.3849C74.4942 32.486 74.5829 32.367 74.5829 32.2202V31.5841C74.5829 31.4373 74.4942 31.3184 74.3849 31.3184Z" fill="white"/>
<path d="M80.0657 74.2933C80.6057 71.2231 79.1889 68.1468 76.9012 67.4221C74.6135 66.6975 72.3213 68.599 71.7814 71.6692C71.2414 74.7394 72.6582 77.8157 74.9459 78.5403C77.2336 79.265 79.5258 77.3635 80.0657 74.2933Z" fill="#407BFF"/>
<path opacity="0.3" d="M75.9249 72.987H80.1809C80.1809 74.1167 79.9313 75.221 79.4637 76.1603C78.996 77.0996 78.3313 77.8317 77.5536 78.264C76.776 78.6963 75.9202 78.8095 75.0946 78.5891C74.2691 78.3687 73.5107 77.8247 72.9155 77.0259C72.3203 76.227 71.9149 75.2093 71.7507 74.1013C71.5865 72.9933 71.6708 71.8449 71.9929 70.8012C72.315 69.7575 72.8605 68.8654 73.5604 68.2378C74.2603 67.6101 75.0832 67.2751 75.9249 67.2751H75.9409L75.9249 72.987Z" fill="white"/>
<path opacity="0.3" d="M75.9244 72.987L78.2205 77.7943C77.6638 78.2736 77.0316 78.5722 76.374 78.6665C75.7164 78.7608 75.0515 78.6481 74.432 78.3373C73.8125 78.0266 73.2555 77.5264 72.8052 76.8764C72.3548 76.2264 72.0236 75.4445 71.8376 74.5927C71.6517 73.7409 71.6163 72.8427 71.7341 71.9693C71.8519 71.096 72.1198 70.2714 72.5165 69.5612C72.9131 68.851 73.4276 68.2746 74.0192 67.8778C74.6108 67.481 75.2631 67.2746 75.9244 67.2751H75.9385L75.9244 72.987Z" fill="white"/>
<path opacity="0.3" d="M76.2553 72.7121L72.6673 75.7827C72.2572 74.9194 72.0275 73.924 72.0023 72.9007C71.9771 71.8774 72.1574 70.8638 72.5241 69.966C72.8909 69.0682 73.4308 68.3193 74.0872 67.7975C74.7436 67.2758 75.4924 67.0004 76.2553 67.0002H76.2693L76.2553 72.7121Z" fill="white"/>
<g opacity="0.5">
<path opacity="0.5" d="M61.0107 41.7087V55.1885H80.2107V41.7087H61.0107ZM80.0527 43.8131H76.7307V41.9101H80.0527V43.8131ZM69.4427 43.8131H66.0227V41.9101H69.4427V43.8131ZM69.5927 41.9101H73.0107V43.8131H69.6007L69.5927 41.9101ZM69.4427 44.0144V54.9871H66.0227V44.0198L69.4427 44.0144ZM69.5927 44.0144H73.0107V54.9871H69.6007L69.5927 44.0144ZM73.1607 44.0144H76.5807V54.9871H73.1607V44.0144ZM73.1607 43.8131V41.9101H76.5807V43.8131H73.1607ZM65.8727 41.9101V43.8131H61.1607V41.9101H65.8727ZM61.1607 44.0198H65.8727V54.9925H61.1607V44.0198ZM76.7307 54.9925V44.0198H80.0527V54.9925H76.7307Z" fill="#2E2E30"/>
<path opacity="0.5" d="M67.115 45.8989H68.499C68.5521 45.8989 68.603 45.8706 68.6405 45.8203C68.678 45.7699 68.699 45.7017 68.699 45.6305C68.699 45.5593 68.678 45.491 68.6405 45.4407C68.603 45.3903 68.5521 45.3621 68.499 45.3621H67.115C67.062 45.3621 67.0111 45.3903 66.9736 45.4407C66.9361 45.491 66.915 45.5593 66.915 45.6305C66.915 45.7017 66.9361 45.7699 66.9736 45.8203C67.0111 45.8706 67.062 45.8989 67.115 45.8989Z" fill="#2E2E30"/>
<path opacity="0.5" d="M70.5994 48.3332H72.1014C72.1545 48.3332 72.2053 48.3049 72.2428 48.2546C72.2803 48.2043 72.3014 48.136 72.3014 48.0648C72.3014 47.9936 72.2803 47.9253 72.2428 47.875C72.2053 47.8247 72.1545 47.7964 72.1014 47.7964H70.5994C70.5464 47.7964 70.4955 47.8247 70.458 47.875C70.4205 47.9253 70.3994 47.9936 70.3994 48.0648C70.3994 48.136 70.4205 48.2043 70.458 48.2546C70.4955 48.3049 70.5464 48.3332 70.5994 48.3332Z" fill="#2E2E30"/>
<path opacity="0.5" d="M72.1734 52.668H70.5994C70.5464 52.668 70.4955 52.6962 70.458 52.7466C70.4205 52.7969 70.3994 52.8652 70.3994 52.9364C70.3994 53.0076 70.4205 53.0758 70.458 53.1262C70.4955 53.1765 70.5464 53.2048 70.5994 53.2048H72.1674C72.2205 53.2048 72.2713 53.1765 72.3088 53.1262C72.3463 53.0758 72.3674 53.0076 72.3674 52.9364C72.3674 52.8652 72.3463 52.7969 72.3088 52.7466C72.2713 52.6962 72.2205 52.668 72.1674 52.668H72.1734Z" fill="#2E2E30"/>
<path opacity="0.5" d="M75.6548 50.2307H74.0008C73.9477 50.2307 73.8969 50.259 73.8594 50.3093C73.8219 50.3597 73.8008 50.4279 73.8008 50.4991C73.8008 50.5703 73.8219 50.6386 73.8594 50.6889C73.8969 50.7393 73.9477 50.7675 74.0008 50.7675H75.6588C75.7118 50.7675 75.7627 50.7393 75.8002 50.6889C75.8377 50.6386 75.8588 50.5703 75.8588 50.4991C75.8588 50.4279 75.8377 50.3597 75.8002 50.3093C75.7627 50.259 75.7118 50.2307 75.6588 50.2307H75.6548Z" fill="#2E2E30"/>
<path opacity="0.5" d="M79.2316 45.3621H77.5516C77.4985 45.3621 77.4476 45.3903 77.4101 45.4407C77.3726 45.491 77.3516 45.5593 77.3516 45.6305C77.3516 45.7017 77.3726 45.7699 77.4101 45.8203C77.4476 45.8706 77.4985 45.8989 77.5516 45.8989H79.2316C79.2846 45.8989 79.3355 45.8706 79.373 45.8203C79.4105 45.7699 79.4316 45.7017 79.4316 45.6305C79.4316 45.5593 79.4105 45.491 79.373 45.4407C79.3355 45.3903 79.2846 45.3621 79.2316 45.3621Z" fill="#2E2E30"/>
<path opacity="0.5" d="M79.0156 52.668H77.5516C77.4985 52.668 77.4476 52.6962 77.4101 52.7466C77.3726 52.7969 77.3516 52.8652 77.3516 52.9364C77.3516 53.0076 77.3726 53.0758 77.4101 53.1262C77.4476 53.1765 77.4985 53.2048 77.5516 53.2048H79.0156C79.0686 53.2048 79.1195 53.1765 79.157 53.1262C79.1945 53.0758 79.2156 53.0076 79.2156 52.9364C79.2156 52.8652 79.1945 52.7969 79.157 52.7466C79.1195 52.6962 79.0686 52.668 79.0156 52.668Z" fill="#2E2E30"/>
<path opacity="0.5" d="M67.115 50.7675H68.301C68.3541 50.7675 68.405 50.7393 68.4425 50.6889C68.48 50.6386 68.501 50.5703 68.501 50.4991C68.501 50.4279 68.48 50.3597 68.4425 50.3093C68.405 50.259 68.3541 50.2307 68.301 50.2307H67.115C67.062 50.2307 67.0111 50.259 66.9736 50.3093C66.9361 50.3597 66.915 50.4279 66.915 50.4991C66.915 50.5703 66.9361 50.6386 66.9736 50.6889C67.0111 50.7393 67.062 50.7675 67.115 50.7675Z" fill="#2E2E30"/>
<path opacity="0.5" d="M68.499 52.668H67.115C67.062 52.668 67.0111 52.6962 66.9736 52.7466C66.9361 52.7969 66.915 52.8652 66.915 52.9364C66.915 53.0076 66.9361 53.0758 66.9736 53.1262C67.0111 53.1765 67.062 53.2048 67.115 53.2048H68.499C68.5521 53.2048 68.603 53.1765 68.6405 53.1262C68.678 53.0758 68.699 53.0076 68.699 52.9364C68.699 52.8652 68.678 52.7969 68.6405 52.7466C68.603 52.6962 68.5521 52.668 68.499 52.668Z" fill="#2E2E30"/>
<path opacity="0.5" d="M61.8836 45.8989H65.0476C65.1006 45.8989 65.1515 45.8706 65.189 45.8203C65.2265 45.7699 65.2476 45.7017 65.2476 45.6305C65.2476 45.5593 65.2265 45.491 65.189 45.4407C65.1515 45.3903 65.1006 45.3621 65.0476 45.3621H61.8836C61.8306 45.3621 61.7797 45.3903 61.7422 45.4407C61.7047 45.491 61.6836 45.5593 61.6836 45.6305C61.6836 45.7017 61.7047 45.7699 61.7422 45.8203C61.7797 45.8706 61.8306 45.8989 61.8836 45.8989Z" fill="#2E2E30"/>
<path opacity="0.5" d="M61.8836 48.3332H63.9896C64.0426 48.3332 64.0935 48.3049 64.131 48.2546C64.1685 48.2043 64.1896 48.136 64.1896 48.0648C64.1896 47.9936 64.1685 47.9253 64.131 47.875C64.0935 47.8247 64.0426 47.7964 63.9896 47.7964H61.8836C61.8306 47.7964 61.7797 47.8247 61.7422 47.875C61.7047 47.9253 61.6836 47.9936 61.6836 48.0648C61.6836 48.136 61.7047 48.2043 61.7422 48.2546C61.7797 48.3049 61.8306 48.3332 61.8836 48.3332Z" fill="#2E2E30"/>
<path opacity="0.5" d="M65.0476 50.2307H61.8836C61.8306 50.2307 61.7797 50.259 61.7422 50.3093C61.7047 50.3597 61.6836 50.4279 61.6836 50.4991C61.6836 50.5703 61.7047 50.6386 61.7422 50.6889C61.7797 50.7393 61.8306 50.7675 61.8836 50.7675H65.0476C65.1006 50.7675 65.1515 50.7393 65.189 50.6889C65.2265 50.6386 65.2476 50.5703 65.2476 50.4991C65.2476 50.4279 65.2265 50.3597 65.189 50.3093C65.1515 50.259 65.1006 50.2307 65.0476 50.2307Z" fill="#2E2E30"/>
<path opacity="0.5" d="M63.4656 52.668H61.8836C61.8306 52.668 61.7797 52.6962 61.7422 52.7466C61.7047 52.7969 61.6836 52.8652 61.6836 52.9364C61.6836 53.0076 61.7047 53.0758 61.7422 53.1262C61.7797 53.1765 61.8306 53.2048 61.8836 53.2048H63.4656C63.5186 53.2048 63.5695 53.1765 63.607 53.1262C63.6445 53.0758 63.6656 53.0076 63.6656 52.9364C63.6656 52.8652 63.6445 52.7969 63.607 52.7466C63.5695 52.6962 63.5186 52.668 63.4656 52.668Z" fill="#2E2E30"/>
</g>
<g opacity="0.5">
<path opacity="0.5" d="M68.6987 38.8823H61.2107C61.1577 38.8823 61.1068 38.854 61.0693 38.8037C61.0318 38.7533 61.0107 38.6851 61.0107 38.6139C61.0107 38.5427 61.0318 38.4744 61.0693 38.4241C61.1068 38.3737 61.1577 38.3455 61.2107 38.3455H68.6987C68.7518 38.3455 68.8027 38.3737 68.8402 38.4241C68.8777 38.4744 68.8987 38.5427 68.8987 38.6139C68.8987 38.6851 68.8777 38.7533 68.8402 38.8037C68.8027 38.854 68.7518 38.8823 68.6987 38.8823Z" fill="#2E2E30"/>
</g>
<g opacity="0.5">
<path opacity="0.5" d="M66.0727 40.3881H61.2107C61.1577 40.3881 61.1068 40.3599 61.0693 40.3095C61.0318 40.2592 61.0107 40.1909 61.0107 40.1197C61.0107 40.0485 61.0318 39.9803 61.0693 39.9299C61.1068 39.8796 61.1577 39.8513 61.2107 39.8513H66.0727C66.1258 39.8513 66.1767 39.8796 66.2142 39.9299C66.2517 39.9803 66.2727 40.0485 66.2727 40.1197C66.2727 40.1909 66.2517 40.2592 66.2142 40.3095C66.1767 40.3599 66.1258 40.3881 66.0727 40.3881Z" fill="#2E2E30"/>
</g>
<g opacity="0.5">
<path opacity="0.5" d="M70.8727 57.5156H61.2107C61.1577 57.5156 61.1068 57.4873 61.0693 57.437C61.0318 57.3866 61.0107 57.3184 61.0107 57.2472C61.0107 57.176 61.0318 57.1077 61.0693 57.0574C61.1068 57.007 61.1577 56.9788 61.2107 56.9788H70.8727C70.9258 56.9788 70.9767 57.007 71.0142 57.0574C71.0517 57.1077 71.0727 57.176 71.0727 57.2472C71.0727 57.3184 71.0517 57.3866 71.0142 57.437C70.9767 57.4873 70.9258 57.5156 70.8727 57.5156Z" fill="#2E2E30"/>
</g>
<path d="M62.2047 68.1555H61.0107V69.7579H62.2047V68.1555Z" fill="#407BFF"/>
<g opacity="0.5">
<path opacity="0.5" d="M69.001 69.2265H63.073C63.02 69.2265 62.9691 69.1982 62.9316 69.1479C62.8941 69.0976 62.873 69.0293 62.873 68.9581C62.873 68.8869 62.8941 68.8186 62.9316 68.7683C62.9691 68.718 63.02 68.6897 63.073 68.6897H69.001C69.0541 68.6897 69.105 68.718 69.1425 68.7683C69.18 68.8186 69.201 68.8869 69.201 68.9581C69.201 69.0293 69.18 69.0976 69.1425 69.1479C69.105 69.1982 69.0541 69.2265 69.001 69.2265Z" fill="#2E2E30"/>
</g>
<path d="M62.2047 70.8423H61.0107V72.4447H62.2047V70.8423Z" fill="#407BFF"/>
<g opacity="0.5">
<path opacity="0.5" d="M69.001 71.9109H63.073C63.02 71.9109 62.9691 71.8826 62.9316 71.8322C62.8941 71.7819 62.873 71.7136 62.873 71.6424C62.873 71.5712 62.8941 71.503 62.9316 71.4526C62.9691 71.4023 63.02 71.374 63.073 71.374H69.001C69.0541 71.374 69.105 71.4023 69.1425 71.4526C69.18 71.503 69.201 71.5712 69.201 71.6424C69.201 71.7136 69.18 71.7819 69.1425 71.8322C69.105 71.8826 69.0541 71.9109 69.001 71.9109Z" fill="#2E2E30"/>
</g>
<path d="M62.2047 73.5264H61.0107V75.1288H62.2047V73.5264Z" fill="#407BFF"/>
<g opacity="0.5">
<path opacity="0.5" d="M69.001 74.5976H63.073C63.02 74.5976 62.9691 74.5693 62.9316 74.519C62.8941 74.4687 62.873 74.4004 62.873 74.3292C62.873 74.258 62.8941 74.1897 62.9316 74.1394C62.9691 74.0891 63.02 74.0608 63.073 74.0608H69.001C69.0541 74.0608 69.105 74.0891 69.1425 74.1394C69.18 74.1897 69.201 74.258 69.201 74.3292C69.201 74.4004 69.18 74.4687 69.1425 74.519C69.105 74.5693 69.0541 74.5976 69.001 74.5976Z" fill="#2E2E30"/>
</g>
<path d="M62.2047 76.2134H61.0107V77.8158H62.2047V76.2134Z" fill="#407BFF"/>
<g opacity="0.5">
<path opacity="0.5" d="M69.001 77.2844H63.073C63.02 77.2844 62.9691 77.2561 62.9316 77.2058C62.8941 77.1554 62.873 77.0872 62.873 77.016C62.873 76.9448 62.8941 76.8765 62.9316 76.8262C62.9691 76.7758 63.02 76.7476 63.073 76.7476H69.001C69.0541 76.7476 69.105 76.7758 69.1425 76.8262C69.18 76.8765 69.201 76.9448 69.201 77.016C69.201 77.0872 69.18 77.1554 69.1425 77.2058C69.105 77.2561 69.0541 77.2844 69.001 77.2844Z" fill="#2E2E30"/>
</g>
<g opacity="0.5">
<path opacity="0.5" d="M79.9376 59.9152H62.5896C62.5366 59.9152 62.4857 59.887 62.4482 59.8366C62.4107 59.7863 62.3896 59.718 62.3896 59.6468C62.3896 59.5756 62.4107 59.5074 62.4482 59.457C62.4857 59.4067 62.5366 59.3784 62.5896 59.3784H79.9376C79.9907 59.3784 80.0416 59.4067 80.0791 59.457C80.1166 59.5074 80.1376 59.5756 80.1376 59.6468C80.1376 59.718 80.1166 59.7863 80.0791 59.8366C80.0416 59.887 79.9907 59.9152 79.9376 59.9152Z" fill="#2E2E30"/>
<path opacity="0.5" d="M79.9587 61.2602H61.2107C61.1577 61.2602 61.1068 61.2319 61.0693 61.1816C61.0318 61.1313 61.0107 61.063 61.0107 60.9918C61.0107 60.9206 61.0318 60.8523 61.0693 60.802C61.1068 60.7517 61.1577 60.7234 61.2107 60.7234H79.9587C80.0118 60.7234 80.0627 60.7517 80.1002 60.802C80.1377 60.8523 80.1587 60.9206 80.1587 60.9918C80.1587 61.063 80.1377 61.1313 80.1002 61.1816C80.0627 61.2319 80.0118 61.2602 79.9587 61.2602Z" fill="#2E2E30"/>
<path opacity="0.5" d="M79.9802 62.6047H61.2322C61.1792 62.6047 61.1283 62.5764 61.0908 62.5261C61.0533 62.4757 61.0322 62.4075 61.0322 62.3363C61.0322 62.2651 61.0533 62.1968 61.0908 62.1465C61.1283 62.0962 61.1792 62.0679 61.2322 62.0679H79.9802C80.0333 62.0679 80.0841 62.0962 80.1216 62.1465C80.1592 62.1968 80.1802 62.2651 80.1802 62.3363C80.1802 62.4075 80.1592 62.4757 80.1216 62.5261C80.0841 62.5764 80.0333 62.6047 79.9802 62.6047Z" fill="#2E2E30"/>
<path opacity="0.5" d="M77.2007 63.9494H61.2547C61.2016 63.9494 61.1508 63.9211 61.1133 63.8708C61.0758 63.8205 61.0547 63.7522 61.0547 63.681C61.0547 63.6098 61.0758 63.5416 61.1133 63.4912C61.1508 63.4409 61.2016 63.4126 61.2547 63.4126H77.2007C77.2537 63.4126 77.3046 63.4409 77.3421 63.4912C77.3796 63.5416 77.4007 63.6098 77.4007 63.681C77.4007 63.7522 77.3796 63.8205 77.3421 63.8708C77.3046 63.9211 77.2537 63.9494 77.2007 63.9494Z" fill="#2E2E30"/>
</g>
<path opacity="0.3" d="M62.2047 70.8423H61.0107V72.4447H62.2047V70.8423Z" fill="white"/>
<path opacity="0.5" d="M62.2047 73.5264H61.0107V75.1288H62.2047V73.5264Z" fill="white"/>
<path opacity="0.7" d="M62.2047 76.2134H61.0107V77.8158H62.2047V76.2134Z" fill="white"/>
<path d="M81.4817 90.7906C81.4817 90.7906 80.5317 88.0098 81.6177 85.2667C82.7037 82.5235 83.0177 81.8793 82.3257 81.3183C81.6337 80.7573 81.3157 83.5112 81.3157 83.5112C80.9734 82.2653 80.9384 80.9047 81.2157 79.63C81.6957 77.6464 81.9977 74.4147 81.3417 74.0685C80.6857 73.7222 81.2157 78.0947 80.6437 79.5924C80.3536 78.5441 80.1661 77.4496 80.0857 76.3365C80.0077 74.7449 80.1297 72.2003 79.6117 71.548C79.0937 70.8958 78.7597 71.3467 79.2697 74.863C79.5763 76.9641 79.7456 79.0971 79.7757 81.2378C79.7757 81.2378 78.6497 76.6237 77.8917 76.4895C77.1337 76.3553 77.1357 77.8504 77.7837 79.1468C78.4317 80.4433 79.6817 82.7624 79.8857 83.9568C79.8857 83.9568 78.6477 80.4862 77.5357 81.5411C76.4237 82.5959 78.5037 84.703 79.4317 85.4599C80.3597 86.2168 80.9997 90.9758 80.9997 90.9758L81.4817 90.7906Z" fill="#407BFF"/>
<path opacity="0.2" d="M81.4817 90.7906C81.4817 90.7906 80.5317 88.0098 81.6177 85.2667C82.7037 82.5235 83.0177 81.8793 82.3257 81.3183C81.6337 80.7573 81.3157 83.5112 81.3157 83.5112C80.9734 82.2653 80.9384 80.9047 81.2157 79.63C81.6957 77.6464 81.9977 74.4147 81.3417 74.0685C80.6857 73.7222 81.2157 78.0947 80.6437 79.5924C80.3536 78.5441 80.1661 77.4496 80.0857 76.3365C80.0077 74.7449 80.1297 72.2003 79.6117 71.548C79.0937 70.8958 78.7597 71.3467 79.2697 74.863C79.5763 76.9641 79.7456 79.0971 79.7757 81.2378C79.7757 81.2378 78.6497 76.6237 77.8917 76.4895C77.1337 76.3553 77.1357 77.8504 77.7837 79.1468C78.4317 80.4433 79.6817 82.7624 79.8857 83.9568C79.8857 83.9568 78.6477 80.4862 77.5357 81.5411C76.4237 82.5959 78.5037 84.703 79.4317 85.4599C80.3597 86.2168 80.9997 90.9758 80.9997 90.9758L81.4817 90.7906Z" fill="#2E2E30"/>
<path d="M80.7342 91.9319C80.7342 91.9319 81.6602 89.1323 80.5502 86.4133C79.4402 83.6942 79.1202 83.0527 79.8062 82.4756C80.4922 81.8986 80.8362 84.6498 80.8362 84.6498C81.1676 83.399 81.1908 82.0383 80.9022 80.7685C80.4042 78.793 80.0722 75.5694 80.7262 75.2097C81.3802 74.85 80.8882 79.2359 81.4722 80.7175C81.7533 79.6649 81.9315 78.5678 82.0022 77.4536C82.0662 75.8566 81.9202 73.3147 82.4342 72.6517C82.9482 71.9887 83.2842 72.4343 82.8042 75.9613C82.5168 78.0682 82.3669 80.2049 82.3562 82.3468C82.3562 82.3468 83.4422 77.7113 84.2022 77.5717C84.9622 77.4322 84.9702 78.9138 84.3342 80.2237C83.6982 81.5335 82.4702 83.8795 82.2762 85.0766C82.2762 85.0766 83.4762 81.5872 84.6042 82.6233C85.7322 83.6594 83.6642 85.804 82.7442 86.5797C81.8242 87.3554 81.2202 92.1171 81.2202 92.1171L80.7342 91.9319Z" fill="#407BFF"/>
<path d="M85.0004 89.9373H77.3584L77.9764 97.2757H84.3804L85.0004 89.9373Z" fill="#263238"/>
<path d="M38.852 26.9941H44.6C45.0689 26.9941 45.5186 27.2441 45.8502 27.6891C46.1818 28.1341 46.368 28.7376 46.368 29.3669V36.0772C46.368 36.7065 46.1818 37.3101 45.8502 37.7551C45.5186 38.2 45.0689 38.45 44.6 38.45H42.92L43.52 41.3757L41.72 38.45H38.852C38.6197 38.4504 38.3896 38.3893 38.1748 38.2702C37.9601 38.1511 37.765 37.9764 37.6006 37.756C37.4362 37.5356 37.3058 37.2739 37.2168 36.9859C37.1278 36.6978 37.082 36.3891 37.082 36.0772V29.3669C37.082 29.0551 37.1278 28.7463 37.2168 28.4583C37.3058 28.1702 37.4362 27.9085 37.6006 27.6882C37.765 27.4678 37.9601 27.2931 38.1748 27.174C38.3896 27.0549 38.6197 26.9938 38.852 26.9941Z" fill="#407BFF"/>
<path opacity="0.7" d="M38.852 26.9941H44.6C45.0689 26.9941 45.5186 27.2441 45.8502 27.6891C46.1818 28.1341 46.368 28.7376 46.368 29.3669V36.0772C46.368 36.7065 46.1818 37.3101 45.8502 37.7551C45.5186 38.2 45.0689 38.45 44.6 38.45H42.92L43.52 41.3757L41.72 38.45H38.852C38.6197 38.4504 38.3896 38.3893 38.1748 38.2702C37.9601 38.1511 37.765 37.9764 37.6006 37.756C37.4362 37.5356 37.3058 37.2739 37.2168 36.9859C37.1278 36.6978 37.082 36.3891 37.082 36.0772V29.3669C37.082 29.0551 37.1278 28.7463 37.2168 28.4583C37.3058 28.1702 37.4362 27.9085 37.6006 27.6882C37.765 27.4678 37.9601 27.2931 38.1748 27.174C38.3896 27.0549 38.6197 26.9938 38.852 26.9941Z" fill="white"/>
<path opacity="0.7" d="M40.8545 34.1852C41.843 34.1852 42.6445 33.1097 42.6445 31.7829C42.6445 30.4562 41.843 29.3806 40.8545 29.3806C39.8659 29.3806 39.0645 30.4562 39.0645 31.7829C39.0645 33.1097 39.8659 34.1852 40.8545 34.1852Z" fill="white"/>
<path d="M40.8559 34.5313C40.3821 34.5308 39.9232 34.3098 39.5572 33.9062C39.1912 33.5025 38.9408 32.941 38.8487 32.3174C38.7565 31.6937 38.8283 31.0465 39.0519 30.4859C39.2754 29.9254 39.6368 29.4861 40.0745 29.243C40.5123 28.9999 40.9992 28.968 41.4525 29.1527C41.9059 29.3374 42.2974 29.7273 42.5606 30.256C42.8237 30.7847 42.9421 31.4194 42.8957 32.0522C42.8493 32.6849 42.6408 33.2764 42.3059 33.726C42.1156 33.9818 41.8896 34.1847 41.6408 34.3229C41.3919 34.461 41.1252 34.5319 40.8559 34.5313ZM40.8559 29.7294C40.5019 29.7294 40.1589 29.8942 39.8853 30.1957C39.6117 30.4971 39.4245 30.9165 39.3555 31.3825C39.2865 31.8484 39.34 32.332 39.5069 32.7509C39.6738 33.1699 39.9438 33.4982 40.2708 33.6799C40.5979 33.8616 40.9618 33.8856 41.3005 33.7476C41.6392 33.6096 41.9318 33.3183 42.1284 32.9233C42.325 32.5283 42.4135 32.054 42.3787 31.5812C42.344 31.1085 42.1882 30.6665 41.9379 30.3306C41.7962 30.1392 41.6276 29.9875 41.4418 29.8843C41.2561 29.7811 41.0569 29.7284 40.8559 29.7294Z" fill="#407BFF"/>
<path d="M42.3062 33.2348L41.9385 33.7283L43.9792 36.467L44.3469 35.9736L42.3062 33.2348Z" fill="#407BFF"/>
<path d="M44.3802 37.0409C44.2769 37.0396 44.178 36.9848 44.1042 36.8879L42.5462 34.7969C42.5073 34.7493 42.4759 34.6916 42.4541 34.6273C42.4322 34.5629 42.4203 34.4934 42.4191 34.4227C42.4178 34.352 42.4272 34.2817 42.4467 34.2161C42.4663 34.1504 42.4955 34.0908 42.5327 34.0407C42.5699 33.9906 42.6142 33.9512 42.663 33.9247C42.7119 33.8983 42.7642 33.8854 42.8169 33.8868C42.8695 33.8883 42.9214 33.904 42.9694 33.9331C43.0175 33.9622 43.0606 34.004 43.0962 34.0561L44.6562 36.1497C44.7101 36.2231 44.7468 36.3161 44.7615 36.4173C44.7762 36.5185 44.7683 36.6232 44.7388 36.7183C44.7093 36.8135 44.6596 36.8949 44.5958 36.9523C44.532 37.0096 44.457 37.0404 44.3802 37.0409Z" fill="#407BFF"/>
<path d="M41.134 30.6958C41.134 30.8019 41.1105 30.9057 41.0666 30.994C41.0226 31.0823 40.9601 31.1511 40.8871 31.1917C40.814 31.2324 40.7335 31.243 40.6559 31.2223C40.5784 31.2016 40.5071 31.1504 40.4511 31.0754C40.3952 31.0003 40.3571 30.9046 40.3417 30.8005C40.3262 30.6964 40.3342 30.5884 40.3644 30.4903C40.3947 30.3922 40.446 30.3084 40.5118 30.2494C40.5775 30.1904 40.6549 30.1589 40.734 30.1589C40.8401 30.1589 40.9418 30.2155 41.0168 30.3162C41.0918 30.4168 41.134 30.5534 41.134 30.6958Z" fill="white"/>
<path d="M41.7271 31.0875C41.7271 31.1406 41.7154 31.1925 41.6934 31.2366C41.6715 31.2808 41.6402 31.3152 41.6037 31.3355C41.5671 31.3558 41.5269 31.3611 41.4881 31.3508C41.4493 31.3404 41.4137 31.3148 41.3857 31.2773C41.3578 31.2398 41.3387 31.1919 41.331 31.1399C41.3233 31.0878 41.3272 31.0338 41.3424 30.9848C41.3575 30.9357 41.3831 30.8938 41.416 30.8643C41.4489 30.8348 41.4876 30.8191 41.5271 30.8191C41.5802 30.8191 41.6311 30.8474 41.6686 30.8977C41.7061 30.948 41.7271 31.0163 41.7271 31.0875Z" fill="white"/>
<path d="M57.7587 76.353H27.9707V82.7869H57.7587V76.353Z" fill="#407BFF"/>
<path opacity="0.8" d="M57.7587 76.353H27.9707V82.7869H57.7587V76.353Z" fill="white"/>
<path opacity="0.2" d="M57.7573 78.0547V77.5312L37.3633 77.7487L57.7573 78.0547Z" fill="#2E2E30"/>
<path opacity="0.2" d="M57.7595 80.3094V79.9041L48.6035 80.3442L57.7595 80.3094Z" fill="#2E2E30"/>
<path opacity="0.2" d="M57.7561 81.8181V81.2947L42.9941 81.598L57.7561 81.8181Z" fill="#2E2E30"/>
<path opacity="0.2" d="M34.6301 76.353L34.2021 81.1496L34.7121 80.4195C34.8835 81.2951 35.2039 82.1055 35.6481 82.7869C35.9668 82.2267 36.2203 81.605 36.4001 80.9429L50.3121 80.7282L36.5321 80.3229C36.5749 80.0583 36.5971 79.7884 36.5981 79.5176C36.5974 79.2933 36.5814 79.0696 36.5501 78.8493L56.9621 78.7795L36.5021 78.5648C36.4302 78.2034 36.3296 77.8533 36.2021 77.5206C36.4964 77.1723 36.8758 76.9813 37.2681 76.9838H57.7581V76.353H34.6301Z" fill="#2E2E30"/>
<path d="M35.0894 79.5334C35.091 80.3047 35.3203 81.0436 35.727 81.5885C36.1337 82.1333 36.6847 82.4396 37.2594 82.4403H58.1014C58.1224 82.4403 58.1432 82.4459 58.1626 82.4567C58.182 82.4675 58.1997 82.4833 58.2145 82.5032C58.2294 82.5232 58.2412 82.5468 58.2492 82.5729C58.2573 82.599 58.2614 82.6269 58.2614 82.6551V82.8859C58.2614 82.9429 58.2445 82.9975 58.2145 83.0378C58.1845 83.078 58.1438 83.1006 58.1014 83.1006H27.3134C26.9622 83.1007 26.6145 83.0074 26.2904 82.8261C25.9662 82.6449 25.672 82.3793 25.4247 82.0446C25.1774 81.71 24.9819 81.313 24.8495 80.8764C24.7172 80.4399 24.6505 79.9725 24.6534 79.5012C24.6707 78.5486 24.9665 77.6433 25.4769 76.9809C25.9873 76.3185 26.6714 75.9521 27.3814 75.9608H58.1014C58.1438 75.9608 58.1845 75.9835 58.2145 76.0237C58.2445 76.064 58.2614 76.1186 58.2614 76.1756V76.4037C58.2614 76.4607 58.2445 76.5153 58.2145 76.5556C58.1845 76.5958 58.1438 76.6185 58.1014 76.6185H37.3234C36.7412 76.6168 36.1816 76.9208 35.7642 77.4655C35.3467 78.0101 35.1046 78.7523 35.0894 79.5334Z" fill="#407BFF"/>
<path opacity="0.4" d="M35.0894 79.5334C35.091 80.3047 35.3203 81.0436 35.727 81.5885C36.1337 82.1333 36.6847 82.4396 37.2594 82.4403H58.1014C58.1224 82.4403 58.1432 82.4459 58.1626 82.4567C58.182 82.4675 58.1997 82.4833 58.2145 82.5032C58.2294 82.5232 58.2412 82.5468 58.2492 82.5729C58.2573 82.599 58.2614 82.6269 58.2614 82.6551V82.8859C58.2614 82.9429 58.2445 82.9975 58.2145 83.0378C58.1845 83.078 58.1438 83.1006 58.1014 83.1006H27.3134C26.9622 83.1007 26.6145 83.0074 26.2904 82.8261C25.9662 82.6449 25.672 82.3793 25.4247 82.0446C25.1774 81.71 24.9819 81.313 24.8495 80.8764C24.7172 80.4399 24.6505 79.9725 24.6534 79.5012C24.6707 78.5486 24.9665 77.6433 25.4769 76.9809C25.9873 76.3185 26.6714 75.9521 27.3814 75.9608H58.1014C58.1438 75.9608 58.1845 75.9835 58.2145 76.0237C58.2445 76.064 58.2614 76.1186 58.2614 76.1756V76.4037C58.2614 76.4607 58.2445 76.5153 58.2145 76.5556C58.1845 76.5958 58.1438 76.6185 58.1014 76.6185H37.3234C36.7412 76.6168 36.1816 76.9208 35.7642 77.4655C35.3467 78.0101 35.1046 78.7523 35.0894 79.5334Z" fill="white"/>
<path d="M35.0906 79.5338C35.0922 80.3051 35.3214 81.044 35.7281 81.5889C36.1349 82.1337 36.6859 82.44 37.2606 82.4408H58.1026C58.1236 82.4408 58.1444 82.4463 58.1638 82.4571C58.1832 82.4679 58.2009 82.4837 58.2157 82.5036C58.2306 82.5236 58.2424 82.5473 58.2504 82.5733C58.2584 82.5994 58.2626 82.6273 58.2626 82.6555V82.8863C58.2626 82.9433 58.2457 82.9979 58.2157 83.0382C58.1857 83.0784 58.145 83.1011 58.1026 83.1011H37.1406C36.7894 83.1007 36.4417 83.0072 36.1175 82.8258C35.7934 82.6445 35.4991 82.3789 35.2517 82.0444C35.0043 81.7099 34.8087 81.313 34.676 80.8766C34.5433 80.4402 34.4762 79.9729 34.4786 79.5016C34.4969 78.5504 34.7925 77.6467 35.3018 76.9848C35.8111 76.3228 36.4936 75.9553 37.2026 75.9613H58.1026C58.145 75.9613 58.1857 75.9839 58.2157 76.0241C58.2457 76.0644 58.2626 76.119 58.2626 76.176V76.4041C58.2626 76.4611 58.2457 76.5157 58.2157 76.556C58.1857 76.5962 58.145 76.6189 58.1026 76.6189H37.3246C36.7424 76.6172 36.1828 76.9212 35.7653 77.4659C35.3479 78.0106 35.1057 78.7527 35.0906 79.5338Z" fill="#407BFF"/>
<path d="M39.0146 77.7998V80.3793L39.7106 79.4452L40.3846 80.3497V77.7998H39.0146Z" fill="#263238"/>
<path opacity="0.6" d="M35.0906 79.5338C35.0922 80.3051 35.3214 81.044 35.7281 81.5889C36.1349 82.1337 36.6859 82.44 37.2606 82.4408H58.1026C58.1236 82.4408 58.1444 82.4463 58.1638 82.4571C58.1832 82.4679 58.2009 82.4837 58.2157 82.5036C58.2306 82.5236 58.2424 82.5473 58.2504 82.5733C58.2584 82.5994 58.2626 82.6273 58.2626 82.6555V82.8863C58.2626 82.9433 58.2457 82.9979 58.2157 83.0382C58.1857 83.0784 58.145 83.1011 58.1026 83.1011H37.1406C36.7894 83.1007 36.4417 83.0072 36.1175 82.8258C35.7934 82.6445 35.4991 82.3789 35.2517 82.0444C35.0043 81.7099 34.8087 81.313 34.676 80.8766C34.5433 80.4402 34.4762 79.9729 34.4786 79.5016C34.4969 78.5504 34.7925 77.6467 35.3018 76.9848C35.8111 76.3228 36.4936 75.9553 37.2026 75.9613H58.1026C58.145 75.9613 58.1857 75.9839 58.2157 76.0241C58.2457 76.0644 58.2626 76.119 58.2626 76.176V76.4041C58.2626 76.4611 58.2457 76.5157 58.2157 76.556C58.1857 76.5962 58.145 76.6189 58.1026 76.6189H37.3246C36.7424 76.6172 36.1828 76.9212 35.7653 77.4659C35.3479 78.0106 35.1057 78.7527 35.0906 79.5338Z" fill="white"/>
<path d="M59.1952 90.5305H29.4072V96.9644H59.1952V90.5305Z" fill="#407BFF"/>
<path opacity="0.7" d="M59.1952 90.5305H29.4072V96.9644H59.1952V90.5305Z" fill="white"/>
<path opacity="0.2" d="M59.1938 92.2295V91.7061L38.7998 91.9262L59.1938 92.2295Z" fill="#2E2E30"/>
<path opacity="0.2" d="M59.197 94.4842V94.0815L50.041 94.5191L59.197 94.4842Z" fill="#2E2E30"/>
<path opacity="0.2" d="M59.1966 95.9926V95.4719L44.4346 95.7725L59.1966 95.9926Z" fill="#2E2E30"/>
<path opacity="0.2" d="M36.0677 90.5305L35.6357 95.3271L36.1457 94.597C36.319 95.4722 36.64 96.2822 37.0837 96.9644C37.4009 96.4024 37.6537 95.78 37.8337 95.1177L51.7457 94.903L37.9657 94.5004C38.009 94.2358 38.0317 93.9659 38.0337 93.6951C38.0324 93.4707 38.0156 93.247 37.9837 93.0268L58.4017 92.965L37.9397 92.7503C37.8677 92.3898 37.7672 92.0406 37.6397 91.7089C37.9325 91.3557 38.3121 91.1598 38.7057 91.1586H59.2017V90.5305H36.0677Z" fill="#2E2E30"/>
<path d="M36.5272 93.7085C36.5261 94.0917 36.5815 94.4714 36.6901 94.8259C36.7987 95.1803 36.9584 95.5024 37.16 95.7738C37.3617 96.0451 37.6013 96.2604 37.865 96.4071C38.1288 96.5538 38.4116 96.6292 38.6972 96.6288H59.5392C59.5816 96.6288 59.6223 96.6514 59.6523 96.6917C59.6823 96.732 59.6992 96.7866 59.6992 96.8435V97.0744C59.6992 97.1313 59.6823 97.186 59.6523 97.2262C59.6223 97.2665 59.5816 97.2891 59.5392 97.2891H27.1132C26.7623 97.2884 26.415 97.1947 26.0912 97.0134C25.7674 96.832 25.4735 96.5667 25.2263 96.2325C24.9792 95.8983 24.7837 95.5018 24.651 95.0659C24.5183 94.63 24.4511 94.1632 24.4532 93.6924C24.47 92.7386 24.7657 91.8319 25.2766 91.1684C25.7874 90.505 26.4723 90.1379 27.1832 90.1466H59.5392C59.5816 90.1466 59.6223 90.1693 59.6523 90.2095C59.6823 90.2498 59.6992 90.3044 59.6992 90.3614V90.5922C59.6992 90.6492 59.6823 90.7038 59.6523 90.744C59.6223 90.7843 59.5816 90.8069 59.5392 90.8069H38.7612C38.1806 90.8052 37.6225 91.1073 37.2053 91.6491C36.7882 92.1909 36.5449 92.9297 36.5272 93.7085Z" fill="#263238"/>
<path opacity="0.2" d="M36.5272 93.7085C36.5261 94.0917 36.5815 94.4714 36.6901 94.8259C36.7987 95.1803 36.9584 95.5024 37.16 95.7738C37.3617 96.0451 37.6013 96.2604 37.865 96.4071C38.1288 96.5538 38.4116 96.6292 38.6972 96.6288H59.5392C59.5816 96.6288 59.6223 96.6514 59.6523 96.6917C59.6823 96.732 59.6992 96.7866 59.6992 96.8435V97.0744C59.6992 97.1313 59.6823 97.186 59.6523 97.2262C59.6223 97.2665 59.5816 97.2891 59.5392 97.2891H27.1132C26.7623 97.2884 26.415 97.1947 26.0912 97.0134C25.7674 96.832 25.4735 96.5667 25.2263 96.2325C24.9792 95.8983 24.7837 95.5018 24.651 95.0659C24.5183 94.63 24.4511 94.1632 24.4532 93.6924C24.47 92.7386 24.7657 91.8319 25.2766 91.1684C25.7874 90.505 26.4723 90.1379 27.1832 90.1466H59.5392C59.5816 90.1466 59.6223 90.1693 59.6523 90.2095C59.6823 90.2498 59.6992 90.3044 59.6992 90.3614V90.5922C59.6992 90.6492 59.6823 90.7038 59.6523 90.744C59.6223 90.7843 59.5816 90.8069 59.5392 90.8069H38.7612C38.1806 90.8052 37.6225 91.1073 37.2053 91.6491C36.7882 92.1909 36.5449 92.9297 36.5272 93.7085Z" fill="white"/>
<path d="M36.5251 93.7085C36.5241 94.0917 36.5794 94.4714 36.688 94.8259C36.7966 95.1803 36.9563 95.5024 37.158 95.7738C37.3596 96.0451 37.5992 96.2604 37.863 96.4071C38.1268 96.5538 38.4096 96.6292 38.6951 96.6288H59.5371C59.5795 96.6288 59.6202 96.6514 59.6502 96.6917C59.6803 96.732 59.6971 96.7866 59.6971 96.8435V97.0744C59.6971 97.1313 59.6803 97.1859 59.6502 97.2262C59.6202 97.2665 59.5795 97.2891 59.5371 97.2891H38.5751C38.2241 97.2891 37.8766 97.1959 37.5525 97.0148C37.2285 96.8337 36.9344 96.5684 36.6871 96.234C36.4398 95.8997 36.2443 95.503 36.1118 95.0668C35.9793 94.6305 35.9125 94.1634 35.9151 93.6924C35.9314 92.7388 36.2267 91.8322 36.7373 91.1686C37.2478 90.5051 37.9324 90.1379 38.6431 90.1466H59.5371C59.5795 90.1466 59.6202 90.1693 59.6502 90.2095C59.6803 90.2498 59.6971 90.3044 59.6971 90.3614V90.5922C59.6971 90.6492 59.6803 90.7038 59.6502 90.744C59.6202 90.7843 59.5795 90.8069 59.5371 90.8069H38.7591C38.1786 90.8052 37.6204 91.1073 37.2033 91.6491C36.7861 92.1909 36.5428 92.9297 36.5251 93.7085Z" fill="#263238"/>
<path d="M38.7998 92.8926V95.472L39.4938 94.538L40.1678 95.4425V92.8926H38.7998Z" fill="#407BFF"/>
<path opacity="0.4" d="M36.5251 93.7085C36.5241 94.0917 36.5794 94.4714 36.688 94.8259C36.7966 95.1803 36.9563 95.5024 37.158 95.7738C37.3596 96.0451 37.5992 96.2604 37.863 96.4071C38.1268 96.5538 38.4096 96.6292 38.6951 96.6288H59.5371C59.5795 96.6288 59.6202 96.6514 59.6502 96.6917C59.6803 96.732 59.6971 96.7866 59.6971 96.8435V97.0744C59.6971 97.1313 59.6803 97.1859 59.6502 97.2262C59.6202 97.2665 59.5795 97.2891 59.5371 97.2891H38.5751C38.2241 97.2891 37.8766 97.1959 37.5525 97.0148C37.2285 96.8337 36.9344 96.5684 36.6871 96.234C36.4398 95.8997 36.2443 95.503 36.1118 95.0668C35.9793 94.6305 35.9125 94.1634 35.9151 93.6924C35.9314 92.7388 36.2267 91.8322 36.7373 91.1686C37.2478 90.5051 37.9324 90.1379 38.6431 90.1466H59.5371C59.5795 90.1466 59.6202 90.1693 59.6502 90.2095C59.6803 90.2498 59.6971 90.3044 59.6971 90.3614V90.5922C59.6971 90.6492 59.6803 90.7038 59.6502 90.744C59.6202 90.7843 59.5795 90.8069 59.5371 90.8069H38.7591C38.1786 90.8052 37.6204 91.1073 37.2033 91.6491C36.7861 92.1909 36.5428 92.9297 36.5251 93.7085Z" fill="white"/>
<path d="M26.7277 89.865H37.7637V83.4392H26.7277V89.865Z" fill="#407BFF"/>
<path opacity="0.8" d="M26.7277 89.865H37.7637V83.4392H26.7277V89.865Z" fill="white"/>
<path opacity="0.2" d="M36.8786 84.07H26.7266V83.4419H36.8666L36.8786 84.07Z" fill="#2E2E30"/>
<path opacity="0.2" d="M36.8777 84.6174L27.7197 84.8805L36.8777 85.1408V84.6174Z" fill="#2E2E30"/>
<path opacity="0.2" d="M36.8796 86.9929L27.1816 87.213L36.8796 87.3982V86.9929Z" fill="#2E2E30"/>
<path opacity="0.2" d="M36.8806 88.3833L27.2686 88.6437L36.8806 88.904V88.3833Z" fill="#2E2E30"/>
<path opacity="0.2" d="M26.7266 85.5327L36.0246 85.9085L26.7266 86.1715V85.5327Z" fill="#2E2E30"/>
<path d="M51.3596 86.6196C51.3586 87.3913 51.1295 88.131 50.7227 88.6764C50.316 89.2218 49.7646 89.5285 49.1896 89.5292H26.2176C26.1752 89.5292 26.1345 89.5518 26.1045 89.5921C26.0745 89.6324 26.0576 89.687 26.0576 89.7439V89.9721C26.0576 90.029 26.0745 90.0837 26.1045 90.1239C26.1345 90.1642 26.1752 90.1868 26.2176 90.1868H49.3096C49.6608 90.1875 50.0086 90.0948 50.3328 89.914C50.6571 89.7332 50.9514 89.4678 51.1988 89.1333C51.4462 88.7989 51.6417 88.4019 51.774 87.9653C51.9063 87.5288 51.9728 87.0613 51.9696 86.5901C51.9533 85.6365 51.658 84.7299 51.1475 84.0663C50.637 83.4028 49.9523 83.0356 49.2416 83.0443H26.2176C26.1752 83.0443 26.1345 83.067 26.1045 83.1072C26.0745 83.1475 26.0576 83.2021 26.0576 83.2591V83.4899C26.0576 83.5469 26.0745 83.6015 26.1045 83.6417C26.1345 83.682 26.1752 83.7046 26.2176 83.7046H49.1256C49.7078 83.703 50.2674 84.007 50.6849 84.5516C51.1023 85.0963 51.3445 85.8385 51.3596 86.6196Z" fill="#263238"/>
<path opacity="0.4" d="M51.3596 86.6196C51.3586 87.3913 51.1295 88.131 50.7227 88.6764C50.316 89.2218 49.7646 89.5285 49.1896 89.5292H26.2176C26.1752 89.5292 26.1345 89.5518 26.1045 89.5921C26.0745 89.6324 26.0576 89.687 26.0576 89.7439V89.9721C26.0576 90.029 26.0745 90.0837 26.1045 90.1239C26.1345 90.1642 26.1752 90.1868 26.2176 90.1868H49.3096C49.6608 90.1875 50.0086 90.0948 50.3328 89.914C50.6571 89.7332 50.9514 89.4678 51.1988 89.1333C51.4462 88.7989 51.6417 88.4019 51.774 87.9653C51.9063 87.5288 51.9728 87.0613 51.9696 86.5901C51.9533 85.6365 51.658 84.7299 51.1475 84.0663C50.637 83.4028 49.9523 83.0356 49.2416 83.0443H26.2176C26.1752 83.0443 26.1345 83.067 26.1045 83.1072C26.0745 83.1475 26.0576 83.2021 26.0576 83.2591V83.4899C26.0576 83.5469 26.0745 83.6015 26.1045 83.6417C26.1345 83.682 26.1752 83.7046 26.2176 83.7046H49.1256C49.7078 83.703 50.2674 84.007 50.6849 84.5516C51.1023 85.0963 51.3445 85.8385 51.3596 86.6196Z" fill="white"/>
<path d="M59.7379 86.6572C59.7379 87.5115 59.485 88.3308 59.0349 88.9348C58.5848 89.5389 57.9744 89.8782 57.3379 89.8782H36.8799V83.4363H57.3399C57.9761 83.437 58.586 83.7767 59.0356 84.3806C59.4853 84.9846 59.7379 85.8035 59.7379 86.6572Z" fill="#407BFF"/>
<path opacity="0.7" d="M36.8799 83.4419V89.8838H57.3419C57.9784 89.8838 58.5888 89.5445 59.0389 88.9404C59.489 88.3364 59.7419 87.5171 59.7419 86.6629C59.7419 85.8086 59.489 84.9893 59.0389 84.3853C58.5888 83.7812 57.9784 83.4419 57.3419 83.4419H36.8799Z" fill="white"/>
<path opacity="0.2" d="M36.8799 85.1408V84.6174L57.2739 84.8375L36.8799 85.1408Z" fill="#2E2E30"/>
<path opacity="0.2" d="M36.8799 87.3982V86.9929L46.0359 87.4331L36.8799 87.3982Z" fill="#2E2E30"/>
<path opacity="0.2" d="M36.8799 88.904V88.3833L51.6419 88.6839L36.8799 88.904Z" fill="#2E2E30"/>
<path opacity="0.2" d="M57.3739 84.07C57.7676 84.0712 58.1471 84.2671 58.4399 84.6202C58.3124 84.9532 58.2111 85.3031 58.1379 85.6644L37.6779 85.8791L58.0919 85.9462C58.06 86.1674 58.0433 86.392 58.0419 86.6172C58.0423 86.8884 58.0657 87.1585 58.1119 87.4225L44.3299 87.8251L58.2399 88.0425C58.3604 88.4879 58.5153 88.9152 58.7019 89.3175C59.1206 88.9265 59.4356 88.3666 59.6012 87.7191C59.7667 87.0716 59.7743 86.3701 59.6227 85.7164C59.4711 85.0628 59.1683 84.4909 58.7582 84.0839C58.3481 83.6768 57.852 83.4557 57.3419 83.4526H36.8799V84.0807L57.3739 84.07Z" fill="#2E2E30"/>
<path d="M59.546 86.6196C59.545 87.3913 59.3159 88.131 58.9092 88.6764C58.5024 89.2218 57.951 89.5285 57.376 89.5292H36.534C36.4916 89.5292 36.4509 89.5518 36.4209 89.5921C36.3909 89.6324 36.374 89.687 36.374 89.7439V89.9721C36.374 90.029 36.3909 90.0837 36.4209 90.1239C36.4509 90.1642 36.4916 90.1868 36.534 90.1868H57.496C57.8472 90.1875 58.195 90.0948 58.5192 89.914C58.8435 89.7332 59.1379 89.4678 59.3852 89.1333C59.6326 88.7989 59.8281 88.4019 59.9604 87.9653C60.0927 87.5288 60.1592 87.0613 60.156 86.5901C60.1398 85.6365 59.8444 84.7299 59.3339 84.0663C58.8234 83.4028 58.1387 83.0356 57.428 83.0443H36.534C36.4916 83.0443 36.4509 83.067 36.4209 83.1072C36.3909 83.1475 36.374 83.2021 36.374 83.2591V83.4899C36.374 83.5469 36.3909 83.6015 36.4209 83.6417C36.4509 83.682 36.4916 83.7046 36.534 83.7046H57.312C57.8942 83.703 58.4538 84.007 58.8713 84.5516C59.2887 85.0963 59.5309 85.8385 59.546 86.6196Z" fill="#263238"/>
<path d="M57.2743 85.804V88.3834L56.5783 87.4493L55.9043 88.3539V85.804H57.2743Z" fill="#407BFF"/>
<path d="M62.6795 49.5465H62.1795C62.0866 49.549 61.9955 49.5813 61.9138 49.6406C61.832 49.6998 61.762 49.7845 61.7095 49.8874L61.2135 50.859C61.1151 51.051 61.0524 51.2718 61.0309 51.5031C61.0093 51.7343 61.0294 51.9691 61.0895 52.1877L61.1655 52.4561C61.9955 52.5098 62.9235 51.7475 62.9235 51.7475L63.2075 51.5703C63.2662 51.536 63.3192 51.4863 63.3635 51.4243C63.4078 51.3623 63.4425 51.2891 63.4655 51.209C63.4886 51.1288 63.4996 51.0434 63.4979 50.9575C63.4962 50.8716 63.4818 50.7871 63.4555 50.7087L63.2015 49.9706C63.1542 49.8399 63.0798 49.7304 62.9872 49.6552C62.8946 49.5799 62.7877 49.5422 62.6795 49.5465Z" fill="#EEC1BB"/>
<path d="M53.2012 50.73C54.4852 52.1231 55.8712 53.4652 57.4012 54.2865L57.2112 54.2328C57.3512 54.2784 57.7192 54.0906 57.9112 53.9644C58.9792 53.2665 59.9912 52.2197 60.9512 51.2642C61.0494 51.1687 61.1699 51.1236 61.2908 51.1369C61.4117 51.1503 61.525 51.2213 61.6103 51.3371C61.6956 51.4528 61.7472 51.6057 61.7558 51.7681C61.7644 51.9305 61.7294 52.0916 61.6572 52.2224C60.6992 53.8329 58.5432 57.1048 56.8352 56.6271C54.9632 55.8782 53.3092 54.4798 51.8352 52.77C50.8792 51.5353 52.1612 49.6054 53.2012 50.73Z" fill="#EBC0BB"/>
<path d="M50.5077 48.8326C50.0397 50.5826 50.7937 52.3219 52.6077 54.3699C53.5097 54.1901 54.7277 51.7073 54.7277 51.7073C54.7277 51.7073 52.1757 48.2823 50.5077 48.8326Z" fill="#407BFF"/>
<path d="M52.0659 37.9619C52.0659 37.9619 50.2799 35.5086 47.9519 38.5873C45.6239 41.666 45.1699 51.8657 45.1699 51.8657L51.2459 53.4494C51.2459 53.4494 52.0319 52.2388 52.4359 48.7467C52.8399 45.2547 53.0539 41.9156 53.5659 41.1372C54.0779 40.3588 52.0659 37.9619 52.0659 37.9619Z" fill="#263238"/>
<path d="M57.2857 89.6152L55.9697 88.912L56.4837 86.3379L56.9577 83.9758L58.6217 84.4697L57.9157 87.1941L57.2857 89.6152Z" fill="#EEC1BB"/>
<path opacity="0.2" d="M57.8987 87.2505L56.4688 86.3862L56.9508 84L58.6167 84.4831L57.8987 87.2505Z" fill="#2E2E30"/>
<path d="M47.3291 66.4216C47.3291 66.4216 58.3291 64.4299 61.3851 67.0496C64.4411 69.6694 58.5231 85.6239 58.5231 85.6239L56.6711 85.087C56.6711 85.087 58.0591 72.4394 57.9551 71.9106C57.8511 71.3818 52.6711 74.831 45.5811 75.1584L47.3291 66.4216Z" fill="#263238"/>
<path opacity="0.2" d="M47.3291 66.4216C47.3291 66.4216 58.3291 64.4299 61.3851 67.0496C64.4411 69.6694 58.5231 85.6239 58.5231 85.6239L56.6711 85.087C56.6711 85.087 58.0591 72.4394 57.9551 71.9106C57.8511 71.3818 52.6711 74.831 45.5811 75.1584L47.3291 66.4216Z" fill="#2E2E30"/>
<path d="M56.5659 84.2817L58.8959 85.2963L58.4779 86.7216L56.3379 85.7446L56.5659 84.2817Z" fill="#263238"/>
<path d="M58.5051 90.0123C58.2531 90.0123 57.8091 89.4755 57.7171 89.3466C57.7118 89.3399 57.7077 89.3316 57.7051 89.3225V89.3064C57.7047 89.2893 57.7082 89.2724 57.7151 89.2581C57.7271 89.2393 58.0191 88.7212 58.2991 88.7051C58.3414 88.6993 58.3842 88.7062 58.4243 88.7252C58.4644 88.7442 58.5009 88.775 58.5311 88.8152C58.6011 88.9037 58.6251 88.9896 58.6011 89.0702C58.5631 89.199 58.4011 89.2688 58.2191 89.3117C58.3664 89.3399 58.5049 89.4226 58.6191 89.5506C58.6391 89.5776 58.6547 89.6099 58.6647 89.6456C58.6747 89.6812 58.6789 89.7193 58.6771 89.7573C58.6771 89.913 58.6151 89.9747 58.5711 89.9962C58.5501 90.0072 58.5277 90.0127 58.5051 90.0123ZM57.8851 89.3762C58.1171 89.6446 58.4251 89.9345 58.5351 89.8754C58.5351 89.8754 58.5751 89.8566 58.5791 89.7492C58.58 89.7289 58.5776 89.7085 58.572 89.6896C58.5665 89.6706 58.558 89.6534 58.5471 89.6392C58.4391 89.4781 58.1051 89.403 57.8851 89.3815V89.3762ZM58.3211 88.8393H58.3031C58.1262 88.9017 57.9695 89.0403 57.8571 89.2339C58.1631 89.2151 58.4751 89.1373 58.5071 89.0272C58.5171 88.9923 58.4831 88.9413 58.4611 88.9145C58.4229 88.8678 58.3727 88.8428 58.3211 88.8447V88.8393Z" fill="#577AFA"/>
<path d="M55.7242 87.8141C55.7762 87.6155 57.5622 88.5683 57.5622 88.5683C57.5622 88.5683 58.3142 90.5895 59.3222 91.4108C60.3302 92.2322 59.5062 92.8442 58.2882 92.31L55.2722 90.9921C54.4022 90.6163 55.1862 89.8648 55.7242 87.8141Z" fill="#2E353A"/>
<path opacity="0.4" d="M56.5659 84.2817L58.8959 85.2963L58.4779 86.7216L56.3379 85.7446L56.5659 84.2817Z" fill="white"/>
<path d="M63.0279 94.7231L61.6639 95.2385L60.9039 92.7744L60.2119 90.5144L61.7559 89.5481L62.4299 92.2886L63.0279 94.7231Z" fill="#EEC1BB"/>
<path d="M61.0555 93.9446C61.0555 93.7353 62.9795 93.9634 62.9795 93.9634C62.9795 93.9634 64.1295 95.6141 65.2695 96.0141C66.4095 96.414 65.7515 97.3159 64.4695 97.2756L61.2995 97.1683C60.3895 97.1387 60.9775 96.1161 61.0555 93.9446Z" fill="#2E353A"/>
<path d="M63.9885 94.6535C63.7081 94.6024 63.437 94.4832 63.1885 94.3018L63.1745 94.2884C63.1737 94.2813 63.1737 94.2741 63.1745 94.267C63.1736 94.2607 63.1736 94.2544 63.1745 94.2482C63.1723 94.2394 63.1723 94.23 63.1745 94.2213C63.1745 94.1918 63.3525 93.6013 63.6145 93.4644C63.6539 93.4427 63.6965 93.4332 63.739 93.4364C63.7816 93.4397 63.8231 93.4556 63.8605 93.4832C63.9465 93.5396 63.9865 93.612 63.9825 93.7006C63.9725 93.8375 63.8285 93.969 63.6685 94.0764C63.817 94.0466 63.9688 94.0736 64.1065 94.1542C64.131 94.1725 64.1524 94.1974 64.1693 94.2275C64.1862 94.2575 64.1981 94.292 64.2045 94.3287C64.2173 94.375 64.2194 94.4254 64.2105 94.4733C64.2016 94.5212 64.182 94.5644 64.1545 94.5971C64.1059 94.6417 64.047 94.6617 63.9885 94.6535ZM63.3545 94.267C63.6365 94.4361 63.9905 94.5944 64.0845 94.4951C64.0845 94.4951 64.1185 94.4602 64.1005 94.3582C64.0971 94.3382 64.0906 94.3194 64.0813 94.3032C64.0719 94.2869 64.06 94.2736 64.0465 94.2643C63.9065 94.1515 63.5705 94.2133 63.3545 94.267ZM63.7145 93.5664C63.6891 93.5663 63.664 93.5727 63.6405 93.5852C63.4862 93.7105 63.3657 93.8985 63.2965 94.122C63.5865 93.9878 63.8685 93.7919 63.8765 93.6764C63.8765 93.6389 63.8345 93.6013 63.8085 93.5852C63.7786 93.5695 63.7464 93.563 63.7145 93.5664Z" fill="#577AFA"/>
<path opacity="0.2" d="M62.4408 92.345L60.9148 92.8254L60.2148 90.5385L61.7568 89.5615L62.4408 92.345Z" fill="#2E2E30"/>
<path d="M50.4492 68.33C50.4492 68.33 50.2912 65.4097 50.2172 64.8138C50.156 64.2231 50.0658 63.6385 49.9472 63.0638C49.4652 61.1178 42.9992 63.4073 42.9992 63.4073L42.8152 64.7494C42.8152 64.7494 39.8972 72.1335 41.8472 74.7934C42.4472 75.5987 43.6012 75.9637 44.7872 75.953C44.7872 75.953 48.4132 76.1865 55.1572 75.7651C55.1572 75.7651 54.6572 81.0367 60.2152 91.3653L62.0752 90.56C62.0752 90.56 58.4032 71.8087 58.0912 71.4759C55.4032 68.5609 50.4492 68.33 50.4492 68.33Z" fill="#263238"/>
<path d="M59.877 91.2389L62.187 90.1411L62.501 91.6147L60.359 92.5864L59.877 91.2389Z" fill="#263238"/>
<path d="M52.6233 50.2309C52.6233 50.2309 52.3913 50.9932 52.0673 52.3246C51.9893 52.6359 51.9093 52.9795 51.8253 53.3499C51.7153 53.8357 51.5973 54.3699 51.4793 54.9604C51.3933 55.3791 51.3073 55.8166 51.2233 56.2783C51.1393 56.74 51.0493 57.2392 50.9633 57.7465C50.9633 57.8056 50.9433 57.8673 50.9353 57.9264C50.5696 60.0032 50.3024 62.1091 50.1353 64.2314L43.0313 63.3993C43.0302 61.3068 43.111 59.2157 43.2733 57.1345C43.4013 55.3314 43.6497 53.5474 44.0153 51.8038C44.2973 50.5477 44.6613 49.4687 45.1293 48.7627C45.1293 48.7735 48.9813 47.0771 52.6233 50.2309Z" fill="#407BFF"/>
<path d="M49.0032 47.4044C46.8652 46.4864 46.0352 48.7465 46.0352 48.7465L47.1732 48.5962L49.4832 52.4882L50.8372 50.1342L51.6892 50.7489C51.6892 50.7489 50.8552 48.1989 49.0032 47.4044Z" fill="#407BFF"/>
<path opacity="0.6" d="M49.0032 47.4044C46.8652 46.4864 46.0352 48.7465 46.0352 48.7465L47.1732 48.5962L49.4832 52.4882L50.8372 50.1342L51.6892 50.7489C51.6892 50.7489 50.8552 48.1989 49.0032 47.4044Z" fill="white"/>
<path d="M49.4219 52.2762L47.4619 48.3386C48.3859 47.7776 48.9979 45.4048 49.1319 44.0681L50.5159 46.8757C50.0639 47.7776 49.7619 48.8083 50.7979 49.5867C50.8019 49.5867 49.4199 52.2681 49.4219 52.2762Z" fill="#EEC1BB"/>
<path opacity="0.2" d="M49.6975 45.2144L50.5175 46.8758C50.4098 47.082 50.3167 47.3013 50.2395 47.5308C49.8295 47.2838 49.3935 46.4571 49.4955 45.8854C49.5303 45.6464 49.5988 45.4187 49.6975 45.2144Z" fill="#2E2E30"/>
<path d="M42.9182 63.7026L45.1402 63.8986L45.0602 64.7414L42.7002 64.5133L42.9182 63.7026Z" fill="#2E2E30"/>
<path d="M50.3121 65.2434L45.3301 64.7657L45.4101 63.9229L50.2321 64.3496L50.3121 65.2434Z" fill="#2E2E30"/>
<path d="M48.4866 65.2407H48.4666L47.8666 65.187C47.795 65.1808 47.7281 65.1371 47.6802 65.0653C47.6323 64.9935 47.6073 64.8994 47.6106 64.8032L47.6266 64.2663C47.6264 64.2156 47.6344 64.1653 47.6499 64.119C47.6654 64.0727 47.6882 64.0314 47.7166 63.9979C47.7431 63.964 47.7746 63.9378 47.809 63.9212C47.8435 63.9045 47.8801 63.8978 47.9166 63.9013L48.5406 63.9496C48.577 63.9523 48.6126 63.9648 48.6453 63.9862C48.6781 64.0075 48.7073 64.0375 48.7313 64.0742C48.7554 64.111 48.7737 64.1538 48.7852 64.2001C48.7968 64.2465 48.8014 64.2954 48.7986 64.3442L48.7686 64.9025C48.7621 64.9962 48.7294 65.0831 48.6771 65.1459C48.6248 65.2086 48.5568 65.2425 48.4866 65.2407ZM47.8186 64.2637L47.8006 64.8005C47.8001 64.8267 47.807 64.8521 47.82 64.8716C47.8331 64.8911 47.8512 64.9031 47.8706 64.9052L48.4706 64.9615C48.4905 64.963 48.51 64.954 48.5249 64.9365C48.5399 64.9189 48.5491 64.8942 48.5506 64.8676L48.5806 64.312C48.5816 64.2985 48.5805 64.2848 48.5774 64.2719C48.5744 64.259 48.5693 64.247 48.5626 64.2368C48.556 64.2271 48.548 64.2192 48.5391 64.2137C48.5301 64.2082 48.5205 64.2051 48.5106 64.2046L47.8866 64.1563C47.8667 64.1554 47.8473 64.165 47.8326 64.1831C47.8251 64.1917 47.819 64.2024 47.8149 64.2145C47.8108 64.2265 47.8086 64.2397 47.8086 64.2529L47.8186 64.2637Z" fill="white"/>
<path opacity="0.5" d="M59.877 91.2389L62.187 90.1411L62.501 91.6147L60.359 92.5864L59.877 91.2389Z" fill="white"/>
<path d="M53.9875 43.3464C53.9772 43.3468 53.967 43.3432 53.9581 43.3361C53.9493 43.3289 53.9421 43.3185 53.9375 43.3061C53.8821 43.1613 53.8029 43.0353 53.7059 42.9377C53.6089 42.84 53.4966 42.7733 53.3775 42.7424C53.3701 42.7421 53.3628 42.7397 53.356 42.7354C53.3493 42.7311 53.3433 42.725 53.3384 42.7175C53.3335 42.7099 53.3298 42.701 53.3276 42.6915C53.3254 42.6819 53.3247 42.6719 53.3255 42.6619C53.3275 42.6427 53.3348 42.6252 53.3459 42.6128C53.357 42.6004 53.3711 42.594 53.3855 42.5948C53.5238 42.6266 53.6547 42.7014 53.7676 42.8132C53.8805 42.9251 53.9722 43.0709 54.0355 43.239C54.039 43.2476 54.0411 43.257 54.0417 43.2667C54.0423 43.2764 54.0415 43.2862 54.0393 43.2955C54.037 43.3048 54.0334 43.3133 54.0287 43.3207C54.0239 43.3281 54.0181 43.334 54.0115 43.3383L53.9875 43.3464Z" fill="#263238"/>
<path d="M53.3187 44.5083C53.3405 44.8808 53.3955 45.2485 53.4827 45.6034C53.412 45.6616 53.3306 45.6923 53.2477 45.6923C53.1648 45.6923 53.0834 45.6616 53.0127 45.6034L53.3187 44.5083Z" fill="#D4827D"/>
<path d="M53.7595 44.1085C53.7075 44.2749 53.5995 44.3769 53.5155 44.3286C53.4315 44.2803 53.4055 44.1085 53.4575 43.9421C53.5095 43.7757 53.6175 43.6737 53.7015 43.722C53.7855 43.7703 53.8095 43.9394 53.7595 44.1085Z" fill="#263238"/>
<path d="M53.667 43.7112H53.981C53.981 43.7112 53.753 43.9501 53.667 43.7112Z" fill="#263238"/>
<path d="M49.1575 45.5524C49.165 45.5799 49.1751 45.606 49.1875 45.6302C49.2075 45.6839 49.2295 45.7322 49.2515 45.7859C49.3799 46.1164 49.5544 46.4107 49.7655 46.6529C50.4475 47.4125 51.0355 47.654 51.5655 47.4581C51.5915 47.4581 51.6155 47.4366 51.6415 47.4259C52.4255 47.0286 53.0415 45.8154 53.5635 44.1781C53.7895 43.5442 53.9375 42.8652 54.0015 42.1677C54.0015 42.1677 54.0015 42.1435 54.0015 42.1381C54.0015 42.1328 54.0015 42.0818 54.0015 42.0576C54.027 41.6565 53.9775 41.2531 53.8574 40.8842C53.7372 40.5152 53.5502 40.1925 53.3135 39.9452C53.1113 39.7218 52.8913 39.5292 52.6575 39.3708C50.3855 37.7872 48.0595 42.6052 49.1575 45.5524Z" fill="#EEC1BB"/>
<path d="M54.0011 42.1411C54.0011 42.1411 53.3171 44.3851 51.4451 44.2884C51.4451 44.2884 49.9491 46.0895 48.9751 45.4695C47.6451 44.624 47.4291 41.3332 48.8431 39.0866C50.6811 36.1716 54.5211 38.4317 54.0011 42.1411Z" fill="#263238"/>
<path d="M52.455 44.1916C52.581 43.8534 52.591 43.1529 52.173 42.965C51.755 42.7771 51.013 43.9554 51.893 44.9244C52.019 45.064 52.201 44.8949 52.455 44.1916Z" fill="#EEC1BB"/>
<path d="M52.0679 37.9617C52.0679 37.9617 53.7979 38.477 54.3339 39.8782C54.9619 41.5155 54.9619 42.769 53.2059 43.5286C53.2059 43.5286 51.0519 40.6673 50.1059 40.3264C49.5543 40.123 48.991 39.9821 48.4219 39.905C49.0999 37.5 51.3859 36.9149 52.0679 37.9617Z" fill="#263238"/>
<path d="M51.4509 44.2882C50.3629 47.2059 47.9709 52.1634 45.4209 48.666C45.4209 48.666 46.3369 44.7096 48.1869 43.0777C50.0369 41.4457 51.4509 44.2882 51.4509 44.2882Z" fill="#263238"/>
<path d="M51.0557 49.1546C51.9857 50.0779 50.7957 53.1163 51.9697 53.7927C51.8593 53.588 51.79 53.3487 51.7683 53.0978C51.7466 52.8468 51.7732 52.5926 51.8457 52.3594C52.0917 51.5327 53.0897 49.3478 52.6917 46.3899L51.0557 49.1546Z" fill="#263238"/>
<path opacity="0.2" d="M46.2363 55.5616C46.2363 55.5616 44.7163 56.944 43.2783 57.1157C43.4046 55.3193 43.6502 53.5416 44.0123 51.8038C44.1963 51.6648 44.4015 51.584 44.6123 51.5676C45.6803 51.5945 46.0703 52.9392 46.0703 52.9392C46.1859 53.8046 46.2415 54.6825 46.2363 55.5616Z" fill="#2E2E30"/>
<path d="M51.7848 65.1358L51.4648 64.6204C51.4046 64.5263 51.3286 64.4529 51.243 64.4062C51.1574 64.3595 51.0648 64.3409 50.9728 64.352L50.0968 64.4379C49.9236 64.4548 49.7561 64.5272 49.6082 64.6492C49.4602 64.7711 49.3363 64.9389 49.2468 65.1384L49.1348 65.3881C49.6228 66.2926 50.6448 66.7892 50.6448 66.7892L50.9248 66.9744C50.981 67.0152 51.0428 67.0406 51.1064 67.0491C51.17 67.0577 51.2343 67.0493 51.2955 67.0243C51.3567 66.9993 51.4135 66.9584 51.4629 66.9037C51.5122 66.8491 51.5529 66.7819 51.5828 66.706L51.8628 65.9652C51.9129 65.8323 51.9323 65.6822 51.9184 65.5344C51.9045 65.3866 51.858 65.2478 51.7848 65.1358Z" fill="#EEC1BB"/>
<path d="M45.6263 52.7971C45.6019 54.4875 45.6923 56.1774 45.8963 57.8459C45.9713 58.3796 46.0681 58.9074 46.1863 59.4269L46.0983 59.1933C46.5603 60.1408 47.2363 61.0186 47.8263 61.8775L48.8143 63.2464L49.8143 64.6234C49.9024 64.7424 49.9545 64.901 49.9606 65.0686C49.9667 65.2362 49.9264 65.4009 49.8474 65.5309C49.7684 65.661 49.6563 65.7471 49.5327 65.7728C49.4092 65.7986 49.2829 65.762 49.1783 65.6702C48.7643 65.3185 48.3783 64.9481 47.9783 64.5724C46.7583 63.3403 45.5283 62.1888 44.5783 60.5462C43.7503 58.0848 43.5483 55.3497 43.6183 52.6763C43.7363 50.8913 45.6643 51.0228 45.6483 52.8132L45.6263 52.7971Z" fill="#EBC0BB"/>
<path d="M45.0604 48.7898C43.7504 49.3937 43.2084 51.2726 43.1504 54.4506C43.8204 55.2854 46.0244 55.0089 46.0244 55.0089C46.0244 55.0089 46.4224 50.1936 45.0604 48.7898Z" fill="#407BFF"/>
<path d="M59.1787 67.6052V68.4454C59.1787 68.6628 58.9787 68.7514 58.8267 68.7514H46.2047C46.0427 68.7514 45.8467 68.6628 45.8467 68.4454V67.5972L59.1787 67.6052Z" fill="#263238"/>
<path opacity="0.4" d="M59.1787 67.6052V68.4454C59.1787 68.6628 58.9787 68.7514 58.8267 68.7514H46.2047C46.0427 68.7514 45.8467 68.6628 45.8467 68.4454V67.5972L59.1787 67.6052Z" fill="white"/>
<path opacity="0.2" d="M59.1765 67.6052V68.4454C59.1765 68.6628 58.9765 68.7514 58.8245 68.7514H50.5005C50.3385 68.7514 50.1465 68.6628 50.1465 68.4454V67.5972L59.1765 67.6052Z" fill="#2E2E30"/>
<path d="M61.2896 58.8067L59.7856 67.9515C59.759 68.0988 59.6965 68.2299 59.6081 68.3242C59.5198 68.4185 59.4105 68.4706 59.2976 68.4723H51.0976C51.0466 68.4702 50.9967 68.4525 50.9517 68.4204C50.9066 68.3883 50.8677 68.3427 50.8379 68.2871C50.8081 68.2316 50.7883 68.1676 50.7799 68.1001C50.7715 68.0325 50.7748 67.9634 50.7896 67.8978L52.2916 58.8201C52.322 58.6819 52.3869 58.5619 52.4754 58.4803C52.5639 58.3987 52.6706 58.3604 52.7776 58.3719H60.9876C61.2036 58.3719 61.3376 58.5141 61.2896 58.8067Z" fill="#263238"/>
<path opacity="0.4" d="M61.2891 58.8069L59.7851 67.9517C59.7585 68.099 59.696 68.2301 59.6077 68.3244C59.5193 68.4187 59.41 68.4708 59.2971 68.4725H51.3691C51.318 68.4709 51.2678 68.4534 51.2225 68.4215C51.1772 68.3895 51.1381 68.344 51.108 68.2884C51.078 68.2328 51.058 68.1686 51.0495 68.1009C51.041 68.0332 51.0443 67.9638 51.0591 67.8981L52.5611 58.8203C52.5916 58.6816 52.6568 58.5613 52.7457 58.4796C52.8346 58.398 52.9418 58.36 53.0491 58.3721H60.9791C61.2031 58.3721 61.3371 58.5143 61.2891 58.8069Z" fill="white"/>
<path opacity="0.2" d="M57.239 63.4556C57.239 64.2366 56.613 64.8728 56.155 64.8728C55.697 64.8728 55.425 64.2366 55.555 63.4556C55.685 62.6745 56.143 62.0598 56.591 62.0383C56.461 62.8194 56.741 63.4556 57.191 63.4556H57.239Z" fill="#2E2E30"/>
</svg>
