<svg width="21" height="24" viewBox="0 0 21 24" fill="none" xmlns="http://www.w3.org/2000/svg">
<rect x="2" y="1" width="16" height="20" rx="2" fill="white" fill-opacity="0.2" stroke="#84878B" stroke-width="1.2"/>
<rect x="17" y="8" width="2.72087" height="10.7933" rx="1.36043" fill="white" stroke="#84878B" stroke-width="1.2"/>
<rect x="1" y="8" width="3" height="11" rx="1.5" fill="white" stroke="#84878B" stroke-width="1.2"/>
<path d="M3 20.3604C3 19.6091 3.60909 19 4.36043 19H16.3577C17.1091 19 17.7182 19.6091 17.7182 20.3604V20.3604C17.7182 21.1118 17.1091 21.7209 16.3577 21.7209H4.36044C3.60909 21.7209 3 21.1118 3 20.3604V20.3604Z" fill="white" stroke="#84878B" stroke-width="1.2"/>
<path d="M15.4154 6.82753L11.9441 6.32304L10.3923 3.17714C10.3499 3.09101 10.2802 3.02128 10.1941 2.9789C9.97807 2.87226 9.71557 2.96113 9.60757 3.17714L8.05581 6.32304L4.58452 6.82753C4.48882 6.8412 4.40132 6.88632 4.33432 6.95468C4.25333 7.03792 4.20871 7.14992 4.21024 7.26605C4.21178 7.38218 4.25936 7.49295 4.34253 7.57402L6.85405 10.0226L6.26069 13.4803C6.24678 13.5607 6.25568 13.6434 6.28638 13.7191C6.31709 13.7947 6.36837 13.8602 6.43442 13.9082C6.50046 13.9561 6.57863 13.9846 6.66005 13.9904C6.74147 13.9962 6.82288 13.9791 6.89507 13.941L9.99995 12.3086L13.1048 13.941C13.1896 13.9861 13.288 14.0012 13.3824 13.9848C13.6203 13.9437 13.7802 13.7182 13.7392 13.4803L13.1458 10.0226L15.6574 7.57402C15.7257 7.50702 15.7708 7.41952 15.7845 7.32382C15.8214 7.08456 15.6546 6.86308 15.4154 6.82753V6.82753ZM12.089 9.67812L12.5826 12.5533L9.99995 11.1971L7.41733 12.5547L7.91089 9.67949L5.82182 7.64238L8.70932 7.22265L9.99995 4.60722L11.2906 7.22265L14.1781 7.64238L12.089 9.67812Z" fill="#84878B"/>
</svg>
